<svg width="40" height="40" viewBox="0 0 40 40" fill="none" xmlns="http://www.w3.org/2000/svg">
  <rect width="40" height="40" rx="20" fill="#4899EE" />
  <path
    d="M16.9769 15.2641C16.2729 16.1441 15.9209 17.3441 15.9209 18.8641C15.9209 20.3841 16.2729 21.5921 16.9769 22.4881C17.6809 23.3681 18.6329 23.8081 19.8329 23.8081C21.0329 23.8081 21.9849 23.3681 22.6889 22.4881C23.3929 21.5921 23.7449 20.3841 23.7449 18.8641C23.7449 17.3441 23.3929 16.1441 22.6889 15.2641C21.9849 14.3681 21.0329 13.9201 19.8329 13.9201C18.6329 13.9201 17.6809 14.3681 16.9769 15.2641ZM28.7129 29.0161L24.5129 30.6241L19.7369 27.1681C17.3689 27.1521 15.4809 26.3841 14.0729 24.8641C12.6649 23.3441 11.9609 21.3441 11.9609 18.8641C11.9609 16.3841 12.6729 14.3841 14.0969 12.8641C15.5369 11.3281 17.4489 10.5601 19.8329 10.5601C22.2329 10.5601 24.1449 11.3201 25.5689 12.8401C26.9929 14.3601 27.7049 16.3681 27.7049 18.8641C27.7049 20.5601 27.3609 22.0481 26.6729 23.3281C25.9849 24.6081 25.0169 25.5841 23.7689 26.2561L28.7129 29.0161Z"
    fill="white" />
</svg>
