<svg width="347" height="68" viewBox="0 0 347 68" fill="none" xmlns="http://www.w3.org/2000/svg">
<rect width="347" height="68" rx="34" fill="#4899EE"/>
<path d="M325 28L330.5 33.5L325 39" stroke="white" stroke-width="1.5" stroke-linecap="round"/>
<path d="M97.2303 26.718L99.3543 27.33C98.3643 29.328 96.7623 31.272 95.2503 32.46C94.8543 32.064 93.9903 31.38 93.4863 31.056C94.9983 30.048 96.4383 28.392 97.2303 26.718ZM97.0863 28.608H109.488V30.516H96.5643L97.0863 28.608ZM93.8643 32.802H110.136V34.728H93.8643V32.802ZM94.1703 37.032H109.884V38.958H94.1703V37.032ZM99.4983 29.292H101.316V38.04H99.4983V29.292ZM96.3123 29.292H98.2203V38.058H96.3123V29.292ZM102.63 29.292H104.43V38.058H102.63V29.292ZM105.798 29.292H107.778V38.058H105.798V29.292ZM98.9583 39.966L100.956 39.732C101.19 40.83 101.406 42.252 101.424 43.134L99.3003 43.44C99.3003 42.558 99.1743 41.082 98.9583 39.966ZM102.54 40.002L104.574 39.66C105.024 40.722 105.474 42.144 105.636 43.026L103.476 43.458C103.35 42.576 102.954 41.118 102.54 40.002ZM106.122 39.912L108.192 39.264C109.002 40.362 110.028 41.892 110.478 42.9L108.282 43.638C107.886 42.648 106.932 41.064 106.122 39.912ZM95.7183 39.336L97.8243 39.84C97.4103 41.226 96.6363 42.702 95.7723 43.638L93.6843 42.81C94.5123 42.054 95.3043 40.65 95.7183 39.336Z" fill="white"/>
<path d="M114.402 26.808H116.4V43.584H114.402V26.808ZM111.684 32.712H119.064V34.728H111.684V32.712ZM114.024 33.792L115.212 34.368C114.636 36.78 113.52 39.912 112.332 41.64C112.134 40.974 111.666 40.02 111.342 39.408C112.422 38.076 113.52 35.574 114.024 33.792ZM116.364 34.836C116.886 35.304 118.632 37.392 119.028 37.896L117.696 39.588C117.228 38.562 116.022 36.564 115.374 35.682L116.364 34.836ZM111.648 28.194L113.16 27.798C113.628 29.112 113.988 30.822 114.078 31.956L112.458 32.388C112.422 31.254 112.08 29.508 111.648 28.194ZM117.588 27.708L119.406 28.104C118.938 29.562 118.398 31.272 117.948 32.334L116.598 31.956C116.958 30.804 117.39 28.986 117.588 27.708ZM124.392 26.7H126.426V43.602H124.392V26.7ZM119.01 37.968L128.262 36.312L128.586 38.31L119.352 39.984L119.01 37.968ZM120.036 29.166L121.098 27.69C122.106 28.302 123.384 29.202 123.978 29.868L122.844 31.506C122.304 30.804 121.044 29.814 120.036 29.166ZM119.226 33.702L120.234 32.154C121.278 32.712 122.628 33.576 123.276 34.242L122.196 35.952C121.584 35.286 120.27 34.314 119.226 33.702Z" fill="white"/>
<path d="M134.634 40.29C134.634 38.904 134.634 31.452 134.634 29.94C134.634 29.292 134.58 28.41 134.454 27.762H137.262C137.19 28.41 137.1 29.184 137.1 29.94C137.1 31.92 137.118 38.958 137.118 40.29C137.118 40.794 137.19 42.054 137.28 42.792H134.454C134.58 42.09 134.634 40.992 134.634 40.29ZM136.578 32.424C138.972 33.09 142.86 34.512 144.624 35.376L143.616 37.878C141.564 36.816 138.54 35.664 136.578 35.016V32.424Z" fill="white"/>
<path d="M151.014 28.194C151.5 28.266 152.274 28.302 152.886 28.302C154.02 28.302 158.754 28.302 159.798 28.302C160.374 28.302 161.256 28.266 161.742 28.194V30.534C161.274 30.498 160.428 30.462 159.762 30.462C158.772 30.462 153.948 30.462 152.886 30.462C152.292 30.462 151.536 30.48 151.014 30.534V28.194ZM163.272 33.432C163.146 33.666 162.984 33.99 162.93 34.17C162.372 35.916 161.598 37.68 160.266 39.156C158.448 41.19 156.144 42.396 153.84 43.062L152.04 41.028C154.758 40.452 156.9 39.282 158.286 37.86C159.24 36.888 159.816 35.754 160.122 34.764C159.222 34.764 153.048 34.764 151.446 34.764C150.996 34.764 150.096 34.782 149.34 34.836V32.496C150.114 32.568 150.87 32.622 151.446 32.622C152.67 32.622 159.114 32.622 160.338 32.622C160.932 32.622 161.418 32.55 161.67 32.424L163.272 33.432Z" fill="white"/>
<path d="M166.116 35.016C169.338 34.188 171.966 33.018 173.982 31.776C175.818 30.642 177.87 28.842 179.04 27.42L180.984 29.256C179.346 30.912 177.15 32.604 175.026 33.882C172.992 35.088 170.076 36.438 167.232 37.284L166.116 35.016ZM173.604 32.946L176.16 32.334V40.452C176.16 41.244 176.196 42.36 176.322 42.81H173.46C173.532 42.378 173.604 41.244 173.604 40.452V32.946Z" fill="white"/>
<path d="M200.172 29.832C199.992 30.066 199.65 30.498 199.488 30.75C198.642 32.154 196.932 34.44 195.15 35.7L193.278 34.206C194.736 33.324 196.14 31.74 196.608 30.858C195.51 30.858 188.346 30.858 187.212 30.858C186.474 30.858 185.862 30.894 185.016 30.984V28.464C185.718 28.572 186.474 28.662 187.212 28.662C188.346 28.662 195.978 28.662 196.914 28.662C197.418 28.662 198.408 28.59 198.75 28.5L200.172 29.832ZM192.846 32.244C192.846 36.708 192.738 40.38 187.842 43.026L185.736 41.316C186.33 41.118 186.978 40.812 187.644 40.308C189.912 38.724 190.344 36.834 190.344 33.882C190.344 33.306 190.326 32.838 190.236 32.244H192.846Z" fill="white"/>
<path d="M209.861 41.604C209.951 41.262 210.005 40.776 210.005 40.29C210.005 39.336 210.005 31.254 210.005 29.796C210.005 28.986 209.879 28.284 209.879 28.248H212.543C212.543 28.284 212.417 29.004 212.417 29.814C212.417 31.254 212.417 38.112 212.417 39.21C213.893 38.58 215.657 37.158 216.881 35.412L218.249 37.41C216.755 39.354 214.181 41.298 212.147 42.324C211.769 42.522 211.553 42.72 211.373 42.846L209.861 41.604ZM201.527 41.352C203.129 40.236 204.101 38.58 204.587 37.032C205.109 35.502 205.127 32.082 205.127 29.922C205.127 29.184 205.055 28.716 204.947 28.266H207.593C207.593 28.338 207.467 29.148 207.467 29.886C207.467 32.028 207.413 35.826 206.945 37.644C206.387 39.66 205.271 41.442 203.723 42.81L201.527 41.352Z" fill="white"/>
<path d="M224.513 31.524H231.173V33.324H224.513V31.524ZM220.085 41.496H235.637V43.26H220.085V41.496ZM221.129 27.384H226.169V29.13H221.129V27.384ZM225.485 27.384H225.845L226.223 27.294L227.627 27.996C226.295 31.524 223.451 34.098 220.427 35.556C220.139 35.106 219.563 34.368 219.131 33.99C221.813 32.856 224.495 30.408 225.485 27.744V27.384ZM229.589 26.772C230.831 29.706 233.351 32.316 236.483 33.504C235.979 33.936 235.349 34.746 235.025 35.304C231.713 33.792 229.247 30.912 227.753 27.348L229.589 26.772ZM220.265 30.624L221.417 29.436C222.227 29.886 223.217 30.588 223.685 31.128L222.479 32.442C222.011 31.902 221.039 31.128 220.265 30.624ZM232.361 26.88L233.981 28.032C232.991 28.878 231.821 29.76 230.921 30.336L229.625 29.328C230.489 28.716 231.677 27.672 232.361 26.88ZM234.395 28.986L235.979 30.102C234.953 31.002 233.711 31.938 232.757 32.532L231.461 31.524C232.397 30.876 233.657 29.814 234.395 28.986ZM224.675 36.078V37.662H230.831V36.078H224.675ZM222.569 34.35H233.063V39.372H222.569V34.35ZM223.613 39.606L225.593 39.102C226.061 39.75 226.457 40.668 226.619 41.28L224.549 41.874C224.423 41.262 224.027 40.308 223.613 39.606ZM230.039 39.084L232.127 39.534C231.677 40.416 231.263 41.226 230.903 41.802L229.013 41.37C229.373 40.74 229.823 39.768 230.039 39.084Z" fill="white"/>
<path d="M252.593 34.818L254.285 35.844C253.529 36.672 252.737 37.536 252.089 38.112L250.739 37.212C251.333 36.582 252.143 35.556 252.593 34.818ZM244.583 35.988L245.987 35.07C246.725 35.736 247.517 36.672 247.859 37.356L246.347 38.364C246.059 37.68 245.285 36.69 244.583 35.988ZM245.357 27.33H252.791V33.648H250.793V29.094H245.357V27.33ZM245.753 30.048H251.927V31.704H245.753V30.048ZM244.493 32.622H254.141V34.458H244.493V32.622ZM248.201 33.558H250.199V41.586C250.199 42.468 250.091 42.99 249.515 43.296C248.975 43.602 248.255 43.62 247.265 43.62C247.211 43.08 246.977 42.306 246.743 41.766C247.247 41.784 247.787 41.784 247.967 41.784C248.147 41.784 248.201 41.73 248.201 41.532V33.558ZM243.971 40.668C244.889 40.146 246.239 39.3 247.571 38.436L248.219 40.056C247.157 40.866 245.987 41.712 244.961 42.396L243.971 40.668ZM250.145 34.836C250.721 36.978 252.089 39.66 254.555 40.92C254.123 41.298 253.475 42.144 253.169 42.684C250.811 41.172 249.515 38.076 248.957 35.988L250.145 34.836ZM238.625 31.2H243.953V33H238.625V31.2ZM237.761 34.314H244.331V36.15H237.761V34.314ZM237.941 37.158L239.309 36.816C239.615 37.824 239.867 39.084 239.957 39.948L238.499 40.326C238.463 39.462 238.211 38.166 237.941 37.158ZM237.563 41.28C239.273 41.028 241.829 40.56 244.259 40.128L244.421 41.91C242.171 42.378 239.795 42.882 237.977 43.242L237.563 41.28ZM242.927 36.672L244.475 37.05C244.151 38.076 243.863 39.21 243.593 39.966L242.297 39.606C242.531 38.796 242.801 37.536 242.927 36.672ZM240.227 31.92H242.081V41.622L240.227 41.946V31.92ZM240.137 26.718H241.271V27.114H241.883V27.672C241.181 29.04 240.083 30.894 238.301 32.514C238.013 32.082 237.401 31.398 237.005 31.11C238.517 29.814 239.579 28.122 240.137 26.718ZM240.407 26.718H241.919C242.963 27.618 244.295 28.914 244.943 29.832L243.557 31.488C242.981 30.57 241.757 29.058 240.785 28.248H240.407V26.718Z" fill="white"/>
</svg>
