<svg width="388" height="51" viewBox="0 0 388 51" fill="none" xmlns="http://www.w3.org/2000/svg">
<rect x="0.75" y="0.75" width="386.5" height="49.5" rx="24.75" fill="white" stroke="#4899EE" stroke-width="1.5"/>
<rect x="22" y="29" width="343" height="8" fill="#FBFF2F"/>
<path d="M36.0149 23.0022V22.0842H30.4709V23.0022H36.0149ZM36.0149 25.3062V24.4062H30.4709V25.3062H36.0149ZM36.0149 27.6462V26.7282H30.4709V27.6462H36.0149ZM28.4549 20.5902H30.7409C30.7949 20.2842 30.8489 19.9422 30.8849 19.6002H24.0449V17.6382H31.0829C31.1189 17.0982 31.1369 16.5762 31.1549 16.1082L33.6749 16.1802C33.6029 16.6662 33.5489 17.1522 33.4589 17.6382H39.9929V19.6002H33.1349C33.0629 19.9422 33.0089 20.2842 32.9369 20.5902H38.1389V29.1402H28.4549V20.5902ZM40.1729 30.1842V32.1822H26.9969V32.9922H24.8729V21.1482H26.9969V30.1842H40.1729Z" fill="#4899EE"/>
<path d="M48.8669 25.0902V23.9562H47.2289V25.0902H48.8669ZM45.0329 19.5282V20.5722C45.0329 22.7862 44.6909 25.9182 42.9809 27.9522C42.6749 27.5742 41.8469 26.8722 41.4329 26.6562C42.9089 24.8742 43.0709 22.3542 43.0709 20.5362V17.8362H50.7209C50.6669 17.2782 50.6309 16.7202 50.6129 16.1622H52.6109C52.6289 16.7202 52.6649 17.2962 52.7189 17.8362H54.6449C54.1769 17.5842 53.6549 17.3502 53.1869 17.1702L54.2489 16.0002C55.0949 16.2522 56.1929 16.7382 56.7509 17.1882L56.2109 17.8362H57.8669V19.5282H52.9709C53.1509 20.5542 53.4209 21.5082 53.7089 22.3542C54.1589 21.6162 54.5369 20.8242 54.8069 19.9782L56.7869 20.4462C56.2829 21.9042 55.5629 23.2182 54.6989 24.3882C55.1849 25.1082 55.6889 25.5222 56.1929 25.5222C56.5889 25.5042 56.7329 24.9102 56.8229 23.3622C57.2729 23.7582 57.9389 24.1362 58.4429 24.2982C58.1369 26.8542 57.5069 27.4482 56.0849 27.4482C55.0589 27.4482 54.1409 26.8722 53.3669 25.9002C52.8269 26.4222 52.2689 26.8902 51.6749 27.2862C51.4589 26.9802 51.0089 26.5122 50.6129 26.1522V26.4762H49.4609C50.4149 26.9982 51.4769 27.8082 52.0169 28.4382L50.5409 29.6982C50.0189 29.0142 48.8489 28.0962 47.8589 27.5022L49.0829 26.4762H45.5189V22.5882H50.6129V25.5402C51.2249 25.1442 51.7829 24.6762 52.3049 24.1542C51.7109 22.8582 51.2429 21.2742 50.9549 19.5282H45.0329ZM50.7389 20.3562V21.7242H45.4469V20.3562H50.7389ZM43.3589 32.5962L41.5949 31.4082C42.6569 30.5802 43.4309 29.3022 43.7909 27.9702L45.6989 28.6542C45.2849 30.1482 44.5829 31.6422 43.3589 32.5962ZM49.2989 30.8322H51.7469C52.4309 30.8322 52.5569 30.6522 52.6469 29.2302C53.0429 29.5542 53.9609 29.8602 54.5189 29.9862C54.2849 32.2002 53.6909 32.7402 51.9449 32.7402H49.0649C46.7429 32.7402 46.2029 32.1642 46.2029 30.3102V27.9882H48.3269V30.2922C48.3269 30.7782 48.4709 30.8322 49.2989 30.8322ZM53.7449 28.6002L55.5449 27.7002C56.7149 28.7622 57.9569 30.2742 58.4249 31.4442L56.4809 32.4162C56.0849 31.3182 54.9149 29.7342 53.7449 28.6002Z" fill="#4899EE"/>
<path d="M62.3129 29.2302H65.1749V25.7022H62.3129V29.2302ZM65.1749 23.8482V20.9322H62.3129V23.8482H65.1749ZM70.8989 18.9342H75.9569C75.9569 18.9342 75.9569 19.6542 75.9389 19.9062C75.7049 27.9522 75.5069 30.8142 74.7689 31.7682C74.2649 32.4342 73.7609 32.6322 73.0409 32.7582C72.3569 32.8482 71.2769 32.8302 70.2149 32.7942C70.1789 32.2002 69.8909 31.3002 69.5129 30.7062C70.6649 30.8142 71.7269 30.8142 72.1949 30.8142C72.5549 30.8142 72.7529 30.7422 72.9869 30.5082C73.5089 29.9322 73.7429 27.2322 73.9409 20.8782H70.0889C69.6209 21.9582 69.0629 22.9482 68.5049 23.7222C68.2169 23.4522 67.6049 23.0382 67.1189 22.7142V31.1202H62.3129V32.4342H60.3689V19.0602H62.4029C62.6369 18.1602 62.8529 17.0082 62.9249 16.1622L65.2649 16.4862C64.9589 17.3862 64.6349 18.2862 64.3289 19.0602H67.1189V21.9762C68.1629 20.4642 69.0269 18.2862 69.5489 16.1802L71.6009 16.6482C71.4029 17.4222 71.1689 18.1782 70.8989 18.9342ZM72.9689 27.1422L71.1509 28.2582C70.6469 27.1782 69.5309 25.4142 68.6489 24.1002L70.3229 23.1462C71.2229 24.3882 72.4109 26.0982 72.9689 27.1422Z" fill="#4899EE"/>
<path d="M85.4969 16.9182C85.3529 17.4942 85.1189 18.4122 84.8489 19.3842C85.7309 19.2222 86.5769 19.0242 87.2789 18.8082L87.3509 20.8962C86.5229 21.1122 85.4069 21.3462 84.2009 21.5262C83.3369 24.0462 81.8069 27.1962 80.3489 29.2302L78.1709 28.1142C79.5929 26.3502 81.0509 23.7042 81.8429 21.7602C81.5189 21.7782 81.2129 21.7782 80.9069 21.7782C80.1689 21.7782 79.4309 21.7602 78.6569 21.7062L78.4949 19.6182C79.2689 19.7082 80.2229 19.7442 80.8889 19.7442C81.4289 19.7442 81.9689 19.7262 82.5269 19.6722C82.7789 18.6822 82.9769 17.6022 83.0129 16.6662L85.4969 16.9182ZM84.5609 29.3742C84.5609 30.0402 85.1189 30.4902 86.1089 30.4902C87.3509 30.4902 87.7289 29.8062 87.7289 28.8162C87.7289 28.7082 87.7289 28.6002 87.7289 28.4562C87.2609 28.3482 86.7749 28.2762 86.2709 28.2762C85.2269 28.2762 84.5609 28.7442 84.5609 29.3742ZM89.7089 22.5162C89.6549 23.2722 89.6909 24.0282 89.7089 24.8202C89.7269 25.3422 89.7809 26.2062 89.8169 27.1062C91.3649 27.6822 92.6249 28.5822 93.5429 29.4102L92.3369 31.3362C91.7069 30.7602 90.8969 30.0042 89.9069 29.4102C89.9069 29.4642 89.9069 29.5362 89.9069 29.5902C89.9069 31.2642 88.9889 32.5602 86.4329 32.5602C84.2009 32.5602 82.4369 31.5702 82.4369 29.5902C82.4369 27.8262 83.9129 26.4762 86.4149 26.4762C86.8469 26.4762 87.2429 26.5122 87.6569 26.5482C87.5849 25.2162 87.4949 23.6142 87.4589 22.5162H89.7089ZM92.8049 23.4702C91.7609 22.6422 89.7089 21.4722 88.4849 20.9142L89.6369 19.1322C90.9329 19.6902 93.1649 20.9142 94.0829 21.5802L92.8049 23.4702Z" fill="#4899EE"/>
<path d="M109.455 29.8962V20.4282H111.525V32.9562H109.455V31.9122H98.5829V32.9742H96.4949V20.4282H98.5829V29.8962H109.455ZM106.431 23.9382V22.4262H104.865V23.9382H106.431ZM106.431 27.0882V25.5582H104.865V27.0882H106.431ZM101.463 25.5582V27.0882H103.029V25.5582H101.463ZM101.463 22.4262V23.9382H103.029V22.4262H101.463ZM95.9549 17.2422H112.065V19.2402H105.009V20.6802H108.285V28.8342H99.7169V20.6802H102.867V19.2402H95.9549V17.2422Z" fill="#4899EE"/>
<path d="M127.131 30.0942V22.8042H125.187V30.0942H127.131ZM116.745 22.8042V30.0942H118.599V22.8042H116.745ZM123.261 24.0462V22.8042H120.507V24.0462H123.261ZM120.507 28.7622V30.0942H123.261V28.7622H120.507ZM123.261 27.0882V25.7202H120.507V27.0882H123.261ZM130.137 19.2042H122.955C122.793 19.7622 122.613 20.3022 122.469 20.8242H129.309V32.9742H127.131V32.0562H116.745V32.9742H114.675V20.8242H120.219C120.327 20.3022 120.435 19.7442 120.507 19.2042H113.937V17.1882H130.137V19.2042Z" fill="#4899EE"/>
<path d="M132.243 19.0602C132.963 19.0422 133.665 19.0062 134.007 18.9702C135.519 18.8442 138.489 18.5742 141.783 18.3042C143.637 18.1422 145.599 18.0342 146.877 17.9802L146.895 20.2842C145.923 20.3022 144.375 20.3022 143.421 20.5362C141.243 21.1122 139.605 23.4342 139.605 25.5762C139.605 28.5462 142.377 29.6082 145.437 29.7702L144.591 32.2362C140.811 31.9842 137.247 29.9682 137.247 26.0622C137.247 23.4702 138.705 21.4182 139.929 20.5002C138.237 20.6802 134.565 21.0762 132.477 21.5262L132.243 19.0602ZM144.321 22.0482C144.771 22.6962 145.419 23.7942 145.761 24.4962L144.393 25.1082C143.943 24.1182 143.565 23.4162 142.989 22.6062L144.321 22.0482ZM146.337 21.2202C146.787 21.8502 147.471 22.9122 147.849 23.6142L146.499 24.2622C146.013 23.2902 145.599 22.6242 145.023 21.8322L146.337 21.2202Z" fill="#4899EE"/>
<path d="M155.787 16.7202V18.3402H150.495V16.7202H155.787ZM156.435 19.1322V20.8242H149.595V19.1322H156.435ZM155.841 24.1002V25.7022H150.441V24.1002H155.841ZM154.041 28.2762H152.187V30.3462H154.041V28.2762ZM155.859 26.5842V32.0202H152.187V32.7222H150.387V26.5842H155.859ZM159.135 28.5102V30.1482H161.187V28.5102H159.135ZM161.187 23.1642V21.5802H159.135V23.1642H161.187ZM161.187 26.5842V25.0722H159.135V26.5842H161.187ZM166.425 30.1482V32.1282H159.135V32.9742H157.137V23.4702C156.921 23.7582 156.687 24.0282 156.453 24.2802C156.273 24.0102 156.021 23.6322 155.751 23.2722H150.441V21.6342H155.841V21.7962C157.065 20.1582 158.091 17.9082 158.613 16.1442L160.737 16.7202C160.395 17.6742 159.963 18.6822 159.477 19.6722H161.259C161.745 18.6822 162.231 17.4042 162.465 16.3962L164.697 16.9002C164.283 17.8362 163.797 18.8262 163.347 19.6722H166.083V21.5802H163.185V23.1642H165.723V25.0722H163.185V26.5842H165.723V28.5102H163.185V30.1482H166.425Z" fill="#4899EE"/>
<path d="M168.243 19.0602C168.963 19.0422 169.665 19.0062 170.007 18.9702C171.519 18.8442 174.489 18.5742 177.783 18.3042C179.637 18.1422 181.599 18.0342 182.877 17.9802L182.895 20.2842C181.923 20.3022 180.375 20.3022 179.421 20.5362C177.243 21.1122 175.605 23.4342 175.605 25.5762C175.605 28.5462 178.377 29.6082 181.437 29.7702L180.591 32.2362C176.811 31.9842 173.247 29.9682 173.247 26.0622C173.247 23.4702 174.705 21.4182 175.929 20.5002C174.237 20.6802 170.565 21.0762 168.477 21.5262L168.243 19.0602ZM180.321 22.0482C180.771 22.6962 181.419 23.7942 181.761 24.4962L180.393 25.1082C179.943 24.1182 179.565 23.4162 178.989 22.6062L180.321 22.0482ZM182.337 21.2202C182.787 21.8502 183.471 22.9122 183.849 23.6142L182.499 24.2622C182.013 23.2902 181.599 22.6242 181.023 21.8322L182.337 21.2202Z" fill="#4899EE"/>
<path d="M193.443 16.9902C193.281 17.6382 193.209 18.1242 193.137 18.5922C193.083 18.8982 193.011 19.3842 192.939 19.9782C194.235 19.9602 195.387 19.8522 196.233 19.7262L196.161 21.8682C195.081 21.9762 194.091 22.0482 192.651 22.0482C192.543 22.8402 192.435 23.6862 192.345 24.4962C192.381 24.4962 192.435 24.4962 192.471 24.4962C193.587 24.4962 194.919 24.4242 196.089 24.2802L196.035 26.4222C195.027 26.5122 193.983 26.5842 192.849 26.5842C192.615 26.5842 192.363 26.5842 192.129 26.5842C192.093 27.1242 192.057 27.5742 192.057 27.8982C192.057 29.3922 192.975 30.1842 194.739 30.1842C197.259 30.1842 198.627 29.0322 198.627 27.5562C198.627 26.3322 197.961 25.1802 196.773 24.0642L199.311 23.5242C200.499 25.0362 201.057 26.3142 201.057 27.8442C201.057 30.5622 198.609 32.5062 194.667 32.5062C191.841 32.5062 189.843 31.2822 189.843 28.2762C189.843 27.8442 189.897 27.1962 189.969 26.4582C188.655 26.3322 187.467 26.1342 186.513 25.8642L186.639 23.6862C187.809 24.0822 189.015 24.2802 190.185 24.4062C190.293 23.5962 190.401 22.7502 190.491 21.9402C189.249 21.8142 187.971 21.5982 186.909 21.2922L187.035 19.2222C188.079 19.5642 189.429 19.7982 190.743 19.9062C190.797 19.3482 190.851 18.8622 190.887 18.4482C190.941 17.6022 190.941 17.2422 190.905 16.8462L193.443 16.9902Z" fill="#4899EE"/>
<path d="M209.607 22.0842H206.781V22.6782H209.607V22.0842ZM206.781 24.4422H209.607V23.8302H206.781V24.4422ZM211.533 25.6662H206.781V32.9562H204.837V20.8422H211.533V25.6662ZM214.521 24.4422H217.437V23.8302H214.521V24.4422ZM217.437 22.0842H214.521V22.6782H217.437V22.0842ZM210.525 30.2202H213.513V29.4462H210.525V30.2202ZM213.513 27.5382H210.525V28.2942H213.513V27.5382ZM219.435 20.8422V30.8142C219.435 31.8042 219.237 32.3262 218.589 32.6142C217.959 32.9382 217.005 32.9742 215.673 32.9562C215.637 32.5062 215.421 31.8942 215.223 31.3902H210.525V32.0202H208.599V26.3502H215.403V31.1022C216.123 31.1382 216.843 31.1202 217.077 31.1202C217.347 31.1202 217.437 31.0482 217.437 30.7962V25.6662H212.595V20.8422H219.435ZM215.097 17.4222H220.173V19.0422H217.203C217.527 19.4562 217.815 19.8882 217.977 20.2302L216.051 20.7702C215.871 20.2842 215.421 19.6182 214.989 19.0422H214.053C213.603 19.6542 213.099 20.1762 212.631 20.5902C212.181 20.2842 211.263 19.7802 210.759 19.5822C210.975 19.4202 211.191 19.2402 211.407 19.0422H209.013C209.265 19.4562 209.481 19.8882 209.607 20.2122L207.735 20.7342C207.591 20.2662 207.267 19.6002 206.925 19.0422H206.727C206.259 19.7082 205.755 20.3022 205.269 20.7702C204.855 20.4282 204.009 19.8522 203.523 19.6182C204.621 18.7182 205.629 17.3502 206.169 16.0182L208.167 16.5582C208.041 16.8462 207.897 17.1342 207.753 17.4222H211.749V18.7002C212.487 17.9262 213.099 16.9722 213.477 16.0182L215.529 16.5042C215.403 16.8102 215.259 17.1162 215.097 17.4222Z" fill="#4899EE"/>
<path d="M225.573 25.1082H228.867V23.8842H225.573V25.1082ZM228.867 22.2462V21.0402H225.573V22.2462H228.867ZM234.483 22.2462V21.0402H231.063V22.2462H234.483ZM234.483 25.1082V23.8842H231.063V25.1082H234.483ZM238.137 28.0422V30.0222H231.063V32.9562H228.867V30.0222H221.919V28.0422H228.867V26.8722H223.503V19.2942H225.015C224.637 18.6102 224.043 17.7462 223.521 17.0802L225.357 16.2342C226.005 16.9902 226.815 18.0342 227.175 18.7542L226.059 19.2942H229.245C228.975 18.5562 228.435 17.5842 227.895 16.8102L229.821 16.0902C230.433 16.9002 231.099 18.0162 231.405 18.7722L230.109 19.2942H232.863C233.475 18.3942 234.195 17.1342 234.555 16.1622L236.949 16.8462C236.409 17.7102 235.815 18.5742 235.275 19.2942H236.697V26.8722H231.063V28.0422H238.137Z" fill="#4899EE"/>
<path d="M247.065 18.8262C249.279 19.1322 252.861 19.0422 254.805 18.8082V21.1302C252.591 21.3282 249.333 21.3462 247.065 21.1302V18.8262ZM248.505 26.5122C248.361 27.1062 248.289 27.5382 248.289 28.0242C248.289 28.8162 248.973 29.3022 250.809 29.3022C252.411 29.3022 253.743 29.1582 255.327 28.8342L255.363 31.2642C254.193 31.4802 252.753 31.6062 250.719 31.6062C247.623 31.6062 246.129 30.5082 246.129 28.6542C246.129 27.9522 246.237 27.2322 246.435 26.3142L248.505 26.5122ZM244.293 17.6202C244.149 17.9982 243.915 18.8982 243.843 19.2222C243.609 20.4282 242.979 24.0282 242.979 25.8282C242.979 26.1702 242.997 26.6382 243.051 26.9982C243.321 26.3862 243.609 25.7562 243.861 25.1622L244.977 26.0442C244.473 27.5382 243.879 29.5002 243.681 30.4542C243.627 30.7242 243.591 31.1202 243.591 31.3002C243.591 31.4982 243.609 31.7862 243.627 32.0382L241.539 32.1822C241.179 30.9402 240.837 28.7442 240.837 26.2962C240.837 23.5962 241.395 20.5542 241.593 19.1682C241.647 18.6642 241.755 17.9802 241.773 17.4042L244.293 17.6202Z" fill="#4899EE"/>
<path d="M270.267 19.5102V18.3222H266.991V19.5102H270.267ZM272.211 16.8282V21.0042H265.173V16.8282H272.211ZM263.121 25.5942L261.483 26.1882V30.5982C261.483 31.5342 261.339 32.0562 260.817 32.3802C260.313 32.7042 259.629 32.7762 258.603 32.7762C258.567 32.2362 258.333 31.4082 258.081 30.8682C258.585 30.8862 259.071 30.8862 259.233 30.8862C259.431 30.8862 259.485 30.8142 259.485 30.6162V26.8722C258.963 27.0522 258.459 27.2142 257.991 27.3762L257.487 25.3242C258.063 25.1802 258.729 24.9822 259.485 24.7662V21.5442H257.739V19.5642H259.485V16.1802H261.483V19.5642H262.977V21.5442H261.483V24.1362L262.779 23.7042L263.121 25.5942ZM266.631 24.4062V23.0742H265.137V24.4062H266.631ZM270.645 23.0742V24.4062H272.211V23.0742H270.645ZM274.227 28.6902H270.609C271.617 29.6442 273.111 30.4902 274.569 30.9582C274.137 31.3182 273.525 32.0742 273.219 32.5782C271.959 32.0382 270.681 31.1382 269.691 30.0762V33.0102H267.657V30.1302C266.433 31.2822 264.903 32.1822 263.301 32.7222C262.995 32.2362 262.419 31.4622 261.987 31.0662C263.733 30.6162 265.461 29.7342 266.631 28.6902H263.319V26.9622H267.657V25.8642H263.553V21.6342H268.305V25.7922H269.007V21.6342H273.921V25.8642H269.691V26.9622H274.227V28.6902Z" fill="#4899EE"/>
<path d="M279.537 16.2342L281.625 16.8822C281.157 18.1422 280.563 19.4202 279.897 20.6262V32.9562H277.737V23.9562C277.359 24.4062 276.981 24.8562 276.621 25.2522C276.423 24.7302 275.811 23.5062 275.433 22.9662C277.071 21.3462 278.637 18.7902 279.537 16.2342ZM292.443 21.1302H287.331V23.0202H291.993V24.9642H287.331V26.9982H292.227V28.9782H287.331V32.9742H285.135V21.1302H284.451C283.731 22.4622 282.903 23.6862 282.093 24.6222C281.751 24.2262 280.905 23.4702 280.455 23.1282C282.039 21.5082 283.461 18.9162 284.271 16.3422L286.341 16.8642C286.089 17.6202 285.801 18.3582 285.459 19.0962H292.443V21.1302Z" fill="#4899EE"/>
<path d="M294.243 19.0602C294.963 19.0422 295.665 19.0062 296.007 18.9702C297.519 18.8442 300.489 18.5742 303.783 18.3042C305.637 18.1422 307.599 18.0342 308.877 17.9802L308.895 20.2842C307.923 20.3022 306.375 20.3022 305.421 20.5362C303.243 21.1122 301.605 23.4342 301.605 25.5762C301.605 28.5462 304.377 29.6082 307.437 29.7702L306.591 32.2362C302.811 31.9842 299.247 29.9682 299.247 26.0622C299.247 23.4702 300.705 21.4182 301.929 20.5002C300.237 20.6802 296.565 21.0762 294.477 21.5262L294.243 19.0602ZM306.321 22.0482C306.771 22.6962 307.419 23.7942 307.761 24.4962L306.393 25.1082C305.943 24.1182 305.565 23.4162 304.989 22.6062L306.321 22.0482ZM308.337 21.2202C308.787 21.8502 309.471 22.9122 309.849 23.6142L308.499 24.2622C308.013 23.2902 307.599 22.6242 307.023 21.8322L308.337 21.2202Z" fill="#4899EE"/>
<path d="M313.629 22.2642C316.311 22.5162 318.741 22.5342 320.739 22.4082C320.649 22.1922 320.577 21.9762 320.505 21.7782C320.361 21.3642 320.253 21.0222 320.145 20.7162C318.453 20.8062 316.347 20.7702 314.079 20.5542L313.953 18.4842C316.095 18.7362 317.931 18.8082 319.587 18.7542C319.407 18.1782 319.227 17.6022 319.011 16.9722L321.423 16.7022C321.513 17.3502 321.621 17.9802 321.747 18.5922C322.989 18.4302 324.141 18.1782 325.293 17.8182L325.581 19.8882C324.591 20.1582 323.457 20.3922 322.269 20.5542C322.359 20.8422 322.449 21.1302 322.539 21.4002C322.629 21.6522 322.737 21.9222 322.845 22.2102C324.321 22.0302 325.401 21.7242 326.283 21.4902L326.643 23.6142C325.815 23.8302 324.843 24.0282 323.763 24.1722C324.069 24.7482 324.375 25.3062 324.699 25.7742C324.933 26.1162 325.185 26.3862 325.509 26.6922L324.411 28.3482C323.403 28.1502 321.459 27.9162 320.145 27.7722L320.325 26.0622C321.081 26.1342 322.053 26.2242 322.593 26.2782C322.215 25.6482 321.873 25.0182 321.585 24.4062C319.371 24.5502 316.473 24.5502 313.755 24.3882L313.629 22.2642ZM317.085 26.4402C316.653 27.0342 316.293 27.6642 316.293 28.4382C316.293 29.7702 317.553 30.3102 319.929 30.3102C321.639 30.3102 323.169 30.1662 324.447 29.9142L324.321 32.2002C323.061 32.4162 321.423 32.5422 319.947 32.5422C316.347 32.5422 314.115 31.4802 314.079 28.9062C314.043 27.7542 314.439 26.8722 314.853 26.0082L317.085 26.4402Z" fill="#4899EE"/>
<path d="M334.113 29.3742C334.113 30.0582 334.761 30.4722 336.003 30.4722C336.957 30.4722 337.587 30.2022 337.587 29.1582C337.587 28.9602 337.587 28.7082 337.569 28.3842C337.083 28.3122 336.597 28.2582 336.093 28.2582C334.815 28.2582 334.113 28.7622 334.113 29.3742ZM339.747 16.8462C339.693 17.2062 339.657 17.6562 339.639 18.1242C339.621 18.3042 339.621 18.5742 339.621 18.8622C341.097 18.7902 342.591 18.6462 344.175 18.3762L344.157 20.4462C342.969 20.5902 341.331 20.7522 339.585 20.8422C339.585 21.4722 339.585 22.1382 339.585 22.6962C341.403 22.6062 342.933 22.4622 344.391 22.2642L344.373 24.3882C342.753 24.5682 341.349 24.6942 339.621 24.7482C339.657 25.4322 339.693 26.1702 339.747 26.8902C342.015 27.5382 343.743 28.7442 344.787 29.6082L343.491 31.6242C342.519 30.7242 341.295 29.7702 339.855 29.1222C339.873 29.3742 339.873 29.5902 339.873 29.7882C339.873 31.3182 338.703 32.5062 336.327 32.5062C333.447 32.5062 331.935 31.4082 331.935 29.5002C331.935 27.6822 333.609 26.4042 336.381 26.4042C336.759 26.4042 337.137 26.4222 337.497 26.4582C337.461 25.9002 337.443 25.3242 337.425 24.7842C337.119 24.7842 336.813 24.7842 336.489 24.7842C335.445 24.7842 333.393 24.6942 332.205 24.5502L332.187 22.4262C333.357 22.6422 335.571 22.7682 336.525 22.7682C336.813 22.7682 337.101 22.7682 337.389 22.7682C337.389 22.1742 337.389 21.5262 337.407 20.9142C337.173 20.9142 336.957 20.9142 336.741 20.9142C335.607 20.9142 333.519 20.7522 332.331 20.5902L332.277 18.5382C333.573 18.7542 335.625 18.9342 336.723 18.9342C336.957 18.9342 337.191 18.9342 337.425 18.9342C337.425 18.5922 337.425 18.3042 337.425 18.0882C337.425 17.7462 337.389 17.1882 337.317 16.8462H339.747Z" fill="#4899EE"/>
<path d="M358.755 16.9002C358.719 17.1882 358.647 18.1602 358.629 18.4482C358.629 18.5922 358.629 18.7902 358.611 19.0062C360.429 19.0062 362.895 18.9702 363.831 18.9882L363.813 21.1122C362.733 21.0582 361.059 21.0222 358.611 21.0222C358.611 21.9402 358.629 22.9302 358.629 23.7222C359.061 24.4062 359.277 25.2522 359.277 26.1882C359.277 28.5282 357.909 31.5162 353.517 32.7402L351.591 30.8322C353.409 30.4542 354.993 29.8602 355.983 28.7802C355.731 28.8342 355.461 28.8702 355.173 28.8702C353.787 28.8702 352.077 27.7542 352.077 25.5582C352.077 23.5242 353.715 22.1922 355.677 22.1922C355.929 22.1922 356.163 22.2102 356.397 22.2462C356.397 21.8502 356.397 21.4362 356.379 21.0402C353.661 21.0762 350.853 21.1842 348.639 21.3102L348.585 19.1322C350.637 19.1322 353.913 19.0602 356.361 19.0242C356.343 18.7902 356.343 18.6102 356.325 18.4662C356.271 17.7282 356.199 17.1162 356.145 16.9002H358.755ZM354.237 25.5222C354.237 26.3502 354.903 26.8722 355.623 26.8722C356.379 26.8722 357.045 26.2962 356.793 24.7122C356.541 24.2982 356.109 24.0822 355.623 24.0822C354.921 24.0822 354.237 24.5682 354.237 25.5222Z" fill="#4899EE"/>
</svg>
