<svg width="337" height="125" viewBox="0 0 337 125" fill="none" xmlns="http://www.w3.org/2000/svg">
<rect x="23" y="21" width="291" height="63" fill="#FA676D"/>
<path d="M24 84V21H0L22.5 52.5L0 84H24Z" fill="#FA676D"/>
<path d="M313 84V21H337L314.5 52.5L337 84H313Z" fill="#FA676D"/>
<rect x="89.5" y="0.5" width="159" height="31" rx="15.5" fill="white" stroke="#FA676D"/>
<path d="M109.204 10.03L111.206 10.618C110.954 11.1313 110.651 11.6353 110.296 12.13C109.951 12.6153 109.577 13.068 109.176 13.488C108.784 13.8987 108.392 14.258 108 14.566C107.879 14.4353 107.715 14.286 107.51 14.118C107.305 13.95 107.095 13.7867 106.88 13.628C106.675 13.4693 106.493 13.3387 106.334 13.236C106.922 12.872 107.473 12.4053 107.986 11.836C108.509 11.2573 108.915 10.6553 109.204 10.03ZM109.302 11.43H118.948V13.208H108.868L109.302 11.43ZM106.712 14.664H119.452V16.47H106.712V14.664ZM106.95 17.912H119.242V19.718H106.95V17.912ZM111.052 12.074H112.732V18.878H111.052V12.074ZM108.574 12.074H110.366V18.878H108.574V12.074ZM113.432 12.074H115.112V18.878H113.432V12.074ZM115.84 12.074H117.702V18.878H115.84V12.074ZM110.604 20.404L112.494 20.18C112.587 20.6093 112.667 21.0807 112.732 21.594C112.807 22.098 112.849 22.5273 112.858 22.882L110.856 23.176C110.856 22.9427 110.847 22.6673 110.828 22.35C110.809 22.0327 110.781 21.706 110.744 21.37C110.707 21.0247 110.66 20.7027 110.604 20.404ZM113.348 20.46L115.266 20.138C115.378 20.418 115.485 20.7213 115.588 21.048C115.7 21.3653 115.793 21.678 115.868 21.986C115.952 22.2847 116.013 22.5553 116.05 22.798L114.006 23.19C113.969 22.8353 113.885 22.4013 113.754 21.888C113.633 21.3747 113.497 20.8987 113.348 20.46ZM116.092 20.39L118.052 19.788C118.257 20.0773 118.467 20.3947 118.682 20.74C118.906 21.076 119.116 21.412 119.312 21.748C119.508 22.0747 119.662 22.3733 119.774 22.644L117.674 23.33C117.581 23.0687 117.445 22.77 117.268 22.434C117.1 22.098 116.909 21.7527 116.694 21.398C116.489 21.034 116.288 20.698 116.092 20.39ZM108.042 19.844L110.03 20.32C109.881 20.8613 109.671 21.4073 109.4 21.958C109.139 22.4993 108.845 22.9613 108.518 23.344L106.544 22.56C106.843 22.2613 107.127 21.8647 107.398 21.37C107.678 20.866 107.893 20.3573 108.042 19.844Z" fill="#FA676D"/>
<path d="M122.574 10.114H124.45V23.288H122.574V10.114ZM120.53 14.678H126.396V16.568H120.53V14.678ZM122.196 15.686L123.288 16.246C123.176 16.7127 123.045 17.2073 122.896 17.73C122.747 18.2433 122.579 18.7567 122.392 19.27C122.215 19.7833 122.019 20.2687 121.804 20.726C121.599 21.1833 121.379 21.5847 121.146 21.93C121.09 21.7153 121.011 21.482 120.908 21.23C120.805 20.9687 120.693 20.712 120.572 20.46C120.46 20.208 120.353 19.9887 120.25 19.802C120.521 19.466 120.782 19.0553 121.034 18.57C121.286 18.0847 121.515 17.59 121.72 17.086C121.925 16.5727 122.084 16.106 122.196 15.686ZM124.422 16.596C124.506 16.6613 124.618 16.7687 124.758 16.918C124.898 17.058 125.052 17.2167 125.22 17.394C125.397 17.5713 125.565 17.7533 125.724 17.94C125.892 18.1173 126.041 18.2807 126.172 18.43C126.303 18.57 126.396 18.6773 126.452 18.752L125.234 20.334C125.141 20.1287 125.024 19.8953 124.884 19.634C124.744 19.3633 124.59 19.0927 124.422 18.822C124.263 18.542 124.105 18.276 123.946 18.024C123.787 17.772 123.643 17.5573 123.512 17.38L124.422 16.596ZM120.446 11.206L121.846 10.842C121.967 11.1873 122.07 11.5607 122.154 11.962C122.247 12.3633 122.322 12.7553 122.378 13.138C122.443 13.5113 122.485 13.852 122.504 14.16L121.006 14.566C121.006 14.258 120.978 13.9127 120.922 13.53C120.875 13.138 120.81 12.7413 120.726 12.34C120.642 11.9293 120.549 11.5513 120.446 11.206ZM125.108 10.758L126.802 11.108C126.681 11.5 126.555 11.9013 126.424 12.312C126.303 12.7227 126.177 13.1147 126.046 13.488C125.925 13.8613 125.808 14.1927 125.696 14.482L124.422 14.132C124.515 13.824 124.604 13.474 124.688 13.082C124.781 12.6807 124.865 12.2793 124.94 11.878C125.015 11.4673 125.071 11.094 125.108 10.758ZM130.33 10.016H132.234V23.316H130.33V10.016ZM126.354 18.696L133.55 17.408L133.844 19.298L126.662 20.6L126.354 18.696ZM126.998 12.032L127.978 10.66C128.239 10.8093 128.51 10.982 128.79 11.178C129.079 11.374 129.35 11.5747 129.602 11.78C129.863 11.976 130.069 12.1627 130.218 12.34L129.168 13.866C129.028 13.6793 128.837 13.4787 128.594 13.264C128.351 13.0493 128.09 12.8347 127.81 12.62C127.53 12.396 127.259 12.2 126.998 12.032ZM126.41 15.56L127.362 14.104C127.633 14.244 127.917 14.412 128.216 14.608C128.515 14.7947 128.799 14.986 129.07 15.182C129.341 15.378 129.56 15.5647 129.728 15.742L128.706 17.366C128.557 17.1887 128.351 16.9927 128.09 16.778C127.829 16.5633 127.549 16.3487 127.25 16.134C126.961 15.9193 126.681 15.728 126.41 15.56Z" fill="#FA676D"/>
<path d="M138.282 20.6C138.282 20.3947 138.282 20.0867 138.282 19.676C138.282 19.256 138.282 18.78 138.282 18.248C138.282 17.716 138.282 17.1653 138.282 16.596C138.282 16.0173 138.282 15.462 138.282 14.93C138.282 14.398 138.282 13.9267 138.282 13.516C138.282 13.1053 138.282 12.802 138.282 12.606C138.282 12.326 138.268 12.018 138.24 11.682C138.212 11.346 138.17 11.0473 138.114 10.786H140.76C140.732 11.0473 140.699 11.332 140.662 11.64C140.634 11.948 140.62 12.27 140.62 12.606C140.62 12.802 140.62 13.1053 140.62 13.516C140.62 13.9267 140.62 14.398 140.62 14.93C140.62 15.462 140.62 16.0127 140.62 16.582C140.62 17.1513 140.62 17.7067 140.62 18.248C140.62 18.78 140.62 19.256 140.62 19.676C140.62 20.0867 140.62 20.3947 140.62 20.6C140.62 20.7213 140.625 20.9127 140.634 21.174C140.653 21.426 140.676 21.692 140.704 21.972C140.732 22.252 140.755 22.4993 140.774 22.714H138.114C138.161 22.4153 138.198 22.0607 138.226 21.65C138.263 21.2393 138.282 20.8893 138.282 20.6ZM140.116 14.384C140.583 14.5053 141.11 14.664 141.698 14.86C142.286 15.0467 142.879 15.2473 143.476 15.462C144.073 15.6767 144.629 15.8867 145.142 16.092C145.665 16.2973 146.085 16.4793 146.402 16.638L145.436 19.004C145.044 18.7987 144.615 18.598 144.148 18.402C143.691 18.1967 143.224 18.0007 142.748 17.814C142.281 17.618 141.819 17.4407 141.362 17.282C140.914 17.114 140.499 16.9647 140.116 16.834V14.384Z" fill="#FA676D"/>
<path d="M151.134 11.08C151.33 11.108 151.577 11.1313 151.876 11.15C152.184 11.1593 152.459 11.164 152.702 11.164C152.889 11.164 153.164 11.164 153.528 11.164C153.901 11.164 154.307 11.164 154.746 11.164C155.194 11.164 155.637 11.164 156.076 11.164C156.515 11.164 156.907 11.164 157.252 11.164C157.597 11.164 157.849 11.164 158.008 11.164C158.232 11.164 158.512 11.1593 158.848 11.15C159.184 11.1313 159.455 11.108 159.66 11.08V13.264C159.464 13.2453 159.203 13.2313 158.876 13.222C158.549 13.2127 158.251 13.208 157.98 13.208C157.831 13.208 157.579 13.208 157.224 13.208C156.879 13.208 156.482 13.208 156.034 13.208C155.595 13.208 155.152 13.208 154.704 13.208C154.265 13.208 153.864 13.208 153.5 13.208C153.145 13.208 152.879 13.208 152.702 13.208C152.469 13.208 152.203 13.2127 151.904 13.222C151.605 13.2313 151.349 13.2453 151.134 13.264V11.08ZM160.934 15.364C160.878 15.4667 160.817 15.5833 160.752 15.714C160.696 15.8447 160.654 15.952 160.626 16.036C160.393 16.708 160.117 17.3707 159.8 18.024C159.483 18.668 159.063 19.2793 158.54 19.858C157.849 20.6327 157.065 21.2767 156.188 21.79C155.32 22.3033 154.438 22.6907 153.542 22.952L151.848 21.034C152.94 20.8007 153.887 20.4693 154.69 20.04C155.502 19.6107 156.16 19.144 156.664 18.64C157.009 18.2947 157.28 17.9493 157.476 17.604C157.681 17.2587 157.845 16.9273 157.966 16.61C157.863 16.61 157.695 16.61 157.462 16.61C157.238 16.61 156.967 16.61 156.65 16.61C156.333 16.61 155.992 16.61 155.628 16.61C155.264 16.61 154.886 16.61 154.494 16.61C154.111 16.61 153.738 16.61 153.374 16.61C153.019 16.61 152.688 16.61 152.38 16.61C152.072 16.61 151.811 16.61 151.596 16.61C151.419 16.61 151.157 16.6147 150.812 16.624C150.467 16.6333 150.135 16.652 149.818 16.68V14.496C150.145 14.524 150.462 14.5473 150.77 14.566C151.087 14.5847 151.363 14.594 151.596 14.594C151.755 14.594 151.974 14.594 152.254 14.594C152.534 14.594 152.851 14.594 153.206 14.594C153.561 14.594 153.934 14.594 154.326 14.594C154.727 14.594 155.124 14.594 155.516 14.594C155.917 14.594 156.295 14.594 156.65 14.594C157.014 14.594 157.331 14.594 157.602 14.594C157.882 14.594 158.101 14.594 158.26 14.594C158.531 14.594 158.764 14.58 158.96 14.552C159.165 14.5147 159.324 14.4727 159.436 14.426L160.934 15.364Z" fill="#FA676D"/>
<path d="M162.754 16.344C164.033 16.0173 165.176 15.644 166.184 15.224C167.192 14.804 168.088 14.356 168.872 13.88C169.348 13.5907 169.838 13.2453 170.342 12.844C170.846 12.4427 171.322 12.032 171.77 11.612C172.218 11.1827 172.587 10.7907 172.876 10.436L174.71 12.186C174.271 12.6153 173.781 13.054 173.24 13.502C172.708 13.9407 172.153 14.3607 171.574 14.762C171.005 15.1633 170.445 15.5273 169.894 15.854C169.353 16.162 168.751 16.4793 168.088 16.806C167.425 17.1327 166.725 17.4407 165.988 17.73C165.26 18.0193 164.532 18.2713 163.804 18.486L162.754 16.344ZM168.536 14.972L170.972 14.44V20.698C170.972 20.922 170.977 21.1693 170.986 21.44C170.995 21.7013 171.009 21.9487 171.028 22.182C171.047 22.4153 171.075 22.5973 171.112 22.728H168.424C168.443 22.5973 168.461 22.4153 168.48 22.182C168.499 21.9487 168.513 21.7013 168.522 21.44C168.531 21.1693 168.536 20.922 168.536 20.698V14.972Z" fill="#FA676D"/>
<path d="M189.62 12.522C189.536 12.6247 189.429 12.7647 189.298 12.942C189.167 13.11 189.065 13.25 188.99 13.362C188.757 13.754 188.458 14.1927 188.094 14.678C187.739 15.154 187.352 15.616 186.932 16.064C186.521 16.512 186.106 16.89 185.686 17.198L183.936 15.798C184.197 15.63 184.449 15.448 184.692 15.252C184.935 15.0467 185.159 14.8367 185.364 14.622C185.569 14.4073 185.747 14.202 185.896 14.006C186.055 13.81 186.171 13.6373 186.246 13.488C186.134 13.488 185.943 13.488 185.672 13.488C185.411 13.488 185.093 13.488 184.72 13.488C184.347 13.488 183.945 13.488 183.516 13.488C183.087 13.488 182.657 13.488 182.228 13.488C181.799 13.488 181.388 13.488 180.996 13.488C180.613 13.488 180.273 13.488 179.974 13.488C179.685 13.488 179.47 13.488 179.33 13.488C179.022 13.488 178.737 13.4973 178.476 13.516C178.224 13.5347 177.916 13.5627 177.552 13.6V11.262C177.841 11.2993 178.131 11.3367 178.42 11.374C178.719 11.402 179.022 11.416 179.33 11.416C179.47 11.416 179.694 11.416 180.002 11.416C180.31 11.416 180.669 11.416 181.08 11.416C181.491 11.416 181.925 11.416 182.382 11.416C182.849 11.416 183.311 11.416 183.768 11.416C184.225 11.416 184.65 11.416 185.042 11.416C185.434 11.416 185.765 11.416 186.036 11.416C186.316 11.416 186.503 11.416 186.596 11.416C186.755 11.416 186.946 11.4113 187.17 11.402C187.394 11.3927 187.609 11.3787 187.814 11.36C188.029 11.332 188.183 11.304 188.276 11.276L189.62 12.522ZM183.852 14.426C183.852 15.0793 183.843 15.7233 183.824 16.358C183.805 16.9927 183.735 17.6087 183.614 18.206C183.502 18.8033 183.311 19.382 183.04 19.942C182.769 20.4927 182.387 21.02 181.892 21.524C181.407 22.028 180.767 22.4993 179.974 22.938L178 21.328C178.243 21.244 178.495 21.1367 178.756 21.006C179.027 20.8753 179.307 20.698 179.596 20.474C179.988 20.1753 180.305 19.872 180.548 19.564C180.8 19.256 180.991 18.9247 181.122 18.57C181.262 18.206 181.36 17.8 181.416 17.352C181.472 16.904 181.5 16.3953 181.5 15.826C181.5 15.5833 181.491 15.3547 181.472 15.14C181.463 14.916 181.435 14.678 181.388 14.426H183.852Z" fill="#FA676D"/>
<path d="M196.805 21.678C196.843 21.5287 196.871 21.3513 196.889 21.146C196.917 20.9407 196.931 20.7307 196.931 20.516C196.931 20.404 196.931 20.1987 196.931 19.9C196.931 19.592 196.931 19.228 196.931 18.808C196.931 18.3787 196.931 17.9167 196.931 17.422C196.931 16.9273 196.931 16.428 196.931 15.924C196.931 15.42 196.931 14.944 196.931 14.496C196.931 14.0387 196.931 13.6327 196.931 13.278C196.931 12.9233 196.931 12.6573 196.931 12.48C196.931 12.1347 196.908 11.8313 196.861 11.57C196.824 11.3087 196.805 11.178 196.805 11.178H199.325C199.325 11.178 199.307 11.3133 199.269 11.584C199.232 11.8453 199.213 12.1487 199.213 12.494C199.213 12.6713 199.213 12.9093 199.213 13.208C199.213 13.5067 199.213 13.8427 199.213 14.216C199.213 14.5893 199.213 14.9813 199.213 15.392C199.213 15.8027 199.213 16.2087 199.213 16.61C199.213 17.0113 199.213 17.394 199.213 17.758C199.213 18.122 199.213 18.444 199.213 18.724C199.213 19.004 199.213 19.2233 199.213 19.382C199.568 19.2327 199.927 19.0273 200.291 18.766C200.655 18.5047 201.01 18.2013 201.355 17.856C201.71 17.5013 202.032 17.1187 202.321 16.708L203.623 18.584C203.25 19.06 202.788 19.5407 202.237 20.026C201.696 20.5113 201.131 20.9593 200.543 21.37C199.965 21.7713 199.414 22.1073 198.891 22.378C198.723 22.4713 198.588 22.5553 198.485 22.63C198.383 22.714 198.294 22.784 198.219 22.84L196.805 21.678ZM190.281 21.398C190.916 20.9593 191.42 20.4367 191.793 19.83C192.176 19.2233 192.456 18.6447 192.633 18.094C192.736 17.8047 192.811 17.4407 192.857 17.002C192.913 16.5633 192.955 16.092 192.983 15.588C193.011 15.0747 193.025 14.5613 193.025 14.048C193.035 13.5347 193.039 13.0587 193.039 12.62C193.039 12.2933 193.025 12.018 192.997 11.794C192.969 11.57 192.932 11.3647 192.885 11.178H195.377C195.377 11.178 195.368 11.2527 195.349 11.402C195.331 11.542 195.312 11.7193 195.293 11.934C195.275 12.1487 195.265 12.368 195.265 12.592C195.265 13.0213 195.261 13.5113 195.251 14.062C195.242 14.6127 195.223 15.1727 195.195 15.742C195.167 16.3113 195.125 16.8527 195.069 17.366C195.023 17.87 194.953 18.2993 194.859 18.654C194.645 19.466 194.323 20.2173 193.893 20.908C193.473 21.5987 192.96 22.2193 192.353 22.77L190.281 21.398Z" fill="#FA676D"/>
<path d="M206.801 19.522H213.871V20.936H206.801V19.522ZM204.603 17.198H217.273V18.752H204.603V17.198ZM208.509 16.456L210.469 16.75C210.003 17.7393 209.363 18.5933 208.551 19.312C207.739 20.0307 206.638 20.6373 205.247 21.132C205.182 20.9827 205.084 20.8147 204.953 20.628C204.823 20.4413 204.683 20.264 204.533 20.096C204.384 19.9187 204.244 19.7833 204.113 19.69C204.953 19.4473 205.663 19.1627 206.241 18.836C206.829 18.5093 207.305 18.1453 207.669 17.744C208.033 17.3333 208.313 16.904 208.509 16.456ZM213.955 17.716C214.217 18.0053 214.548 18.276 214.949 18.528C215.351 18.78 215.794 19.004 216.279 19.2C216.774 19.396 217.283 19.5547 217.805 19.676C217.665 19.7973 217.511 19.956 217.343 20.152C217.185 20.3387 217.031 20.5347 216.881 20.74C216.741 20.936 216.625 21.118 216.531 21.286C215.971 21.0993 215.435 20.8567 214.921 20.558C214.408 20.2593 213.937 19.9187 213.507 19.536C213.087 19.144 212.719 18.7287 212.401 18.29L213.955 17.716ZM213.157 19.522H215.075C215.075 19.522 215.071 19.6013 215.061 19.76C215.061 19.9187 215.052 20.054 215.033 20.166C214.968 20.9033 214.889 21.4727 214.795 21.874C214.702 22.2753 214.571 22.5693 214.403 22.756C214.245 22.9053 214.072 23.0127 213.885 23.078C213.699 23.1527 213.498 23.1993 213.283 23.218C213.097 23.246 212.854 23.26 212.555 23.26C212.257 23.2693 211.935 23.2693 211.589 23.26C211.58 23.0173 211.529 22.7467 211.435 22.448C211.351 22.1493 211.244 21.8927 211.113 21.678C211.365 21.706 211.603 21.7247 211.827 21.734C212.061 21.7433 212.238 21.748 212.359 21.748C212.537 21.748 212.681 21.706 212.793 21.622C212.877 21.538 212.947 21.3513 213.003 21.062C213.069 20.7727 213.12 20.3293 213.157 19.732V19.522ZM209.657 18.934H211.589C211.524 19.5127 211.407 20.0353 211.239 20.502C211.081 20.9687 210.829 21.3887 210.483 21.762C210.147 22.126 209.671 22.4433 209.055 22.714C208.449 22.9847 207.66 23.2133 206.689 23.4C206.615 23.1667 206.479 22.896 206.283 22.588C206.097 22.28 205.915 22.0373 205.737 21.86C206.568 21.7387 207.231 21.594 207.725 21.426C208.22 21.2487 208.598 21.0433 208.859 20.81C209.121 20.5673 209.303 20.292 209.405 19.984C209.517 19.676 209.601 19.326 209.657 18.934ZM204.785 10.674H217.077V12.256H204.785V10.674ZM207.627 10.03H209.601V12.62H207.627V10.03ZM212.233 10.03H214.235V12.62H212.233V10.03ZM207.991 15.378V15.728H213.843V15.378H207.991ZM207.991 13.964V14.314H213.843V13.964H207.991ZM206.045 12.83H215.887V16.862H206.045V12.83Z" fill="#FA676D"/>
<path d="M218.561 18.668H231.301V20.264H218.561V18.668ZM221.445 13.404H229.831V14.692H221.445V13.404ZM221.445 15.084H229.831V16.372H221.445V15.084ZM221.011 11.472H230.601V13.026H221.011V11.472ZM224.343 12.48H226.289V17.338H224.343V12.48ZM223.881 17.898H225.911V23.316H223.881V17.898ZM223.797 19.354L225.309 20.096C224.945 20.4413 224.53 20.7773 224.063 21.104C223.606 21.4213 223.111 21.72 222.579 22C222.057 22.2707 221.515 22.5133 220.955 22.728C220.405 22.9427 219.859 23.1247 219.317 23.274C219.168 23.0313 218.967 22.742 218.715 22.406C218.473 22.0793 218.244 21.8133 218.029 21.608C218.571 21.5053 219.117 21.3793 219.667 21.23C220.218 21.0713 220.75 20.894 221.263 20.698C221.777 20.502 222.248 20.292 222.677 20.068C223.116 19.8347 223.489 19.5967 223.797 19.354ZM226.065 19.298C226.364 19.5407 226.719 19.7787 227.129 20.012C227.549 20.2453 228.007 20.4647 228.501 20.67C229.005 20.866 229.523 21.0433 230.055 21.202C230.597 21.3607 231.129 21.496 231.651 21.608C231.511 21.7387 231.362 21.8973 231.203 22.084C231.045 22.28 230.891 22.4807 230.741 22.686C230.601 22.8913 230.485 23.0733 230.391 23.232C229.859 23.0827 229.323 22.896 228.781 22.672C228.24 22.4573 227.713 22.2147 227.199 21.944C226.695 21.664 226.215 21.3653 225.757 21.048C225.3 20.7307 224.889 20.3993 224.525 20.054L226.065 19.298ZM225.057 10.03L227.353 10.296C227.12 10.7347 226.873 11.15 226.611 11.542C226.359 11.9247 226.131 12.2513 225.925 12.522L224.133 12.186C224.311 11.8687 224.483 11.514 224.651 11.122C224.829 10.7207 224.964 10.3567 225.057 10.03ZM221.515 10.002L223.601 10.422C223.265 10.982 222.897 11.528 222.495 12.06C222.103 12.592 221.665 13.11 221.179 13.614C220.703 14.1087 220.171 14.5847 219.583 15.042C219.481 14.8927 219.345 14.7293 219.177 14.552C219.009 14.3747 218.832 14.2067 218.645 14.048C218.468 13.88 218.305 13.7493 218.155 13.656C218.678 13.3013 219.149 12.9187 219.569 12.508C219.999 12.0973 220.377 11.6773 220.703 11.248C221.03 10.8187 221.301 10.4033 221.515 10.002ZM220.115 12.48H222.033V16.764H230.923V18.276H220.115V12.48Z" fill="#FA676D"/>
<path d="M52.8151 96.552H73.1351V100.744H52.8151V96.552ZM57.5511 106.248V108.488H67.9511V106.248H57.5511ZM53.3591 102.504H72.3991V112.232H53.3591V102.504ZM56.9431 112.392C57.8818 113.843 59.1298 115.08 60.6871 116.104C62.2658 117.128 64.1431 117.949 66.3191 118.568C68.5164 119.165 70.9911 119.581 73.7431 119.816C73.4231 120.136 73.0818 120.541 72.7191 121.032C72.3778 121.523 72.0578 122.024 71.7591 122.536C71.4604 123.048 71.2151 123.517 71.0231 123.944C68.1218 123.56 65.5404 122.941 63.2791 122.088C61.0391 121.235 59.0871 120.104 57.4231 118.696C55.7804 117.267 54.3618 115.539 53.1671 113.512L56.9431 112.392ZM60.4311 93.896H65.0391V108.744C65.0391 110.088 64.9431 111.389 64.7511 112.648C64.5591 113.907 64.2284 115.112 63.7591 116.264C63.3111 117.395 62.6818 118.451 61.8711 119.432C61.0604 120.392 60.0258 121.256 58.7671 122.024C57.5298 122.792 56.0364 123.443 54.2871 123.976C54.1164 123.635 53.8604 123.219 53.5191 122.728C53.1778 122.259 52.8151 121.779 52.4311 121.288C52.0684 120.819 51.7164 120.424 51.3751 120.104C52.9964 119.784 54.3511 119.347 55.4391 118.792C56.5271 118.237 57.4018 117.597 58.0631 116.872C58.7244 116.147 59.2258 115.357 59.5671 114.504C59.9084 113.629 60.1324 112.712 60.2391 111.752C60.3671 110.771 60.4311 109.757 60.4311 108.712V93.896ZM49.7751 93.544L54.0951 94.952C53.3698 96.7653 52.5058 98.6 51.5031 100.456C50.5004 102.291 49.4124 104.04 48.2391 105.704C47.0871 107.347 45.8924 108.776 44.6551 109.992C44.5271 109.608 44.3244 109.117 44.0471 108.52C43.7698 107.901 43.4711 107.283 43.1511 106.664C42.8311 106.045 42.5431 105.544 42.2871 105.16C43.2684 104.221 44.2284 103.133 45.1671 101.896C46.1058 100.659 46.9698 99.3253 47.7591 97.896C48.5484 96.4667 49.2204 95.016 49.7751 93.544ZM46.7991 102.76L51.2151 98.344V124.072H46.7991V102.76Z" fill="#FA676D"/>
<path d="M81.0071 95.72H100.047V100.136H81.0071V95.72ZM81.0071 103.048H100.175V107.368H81.0071V103.048ZM81.0071 110.536H100.335V114.92H81.0071V110.536ZM78.3191 95.72H82.9271V107.176C82.9271 108.477 82.8631 109.896 82.7351 111.432C82.6284 112.968 82.4151 114.515 82.0951 116.072C81.7751 117.629 81.3058 119.112 80.6871 120.52C80.0684 121.928 79.2578 123.165 78.2551 124.232C78.0204 123.933 77.6684 123.581 77.1991 123.176C76.7511 122.792 76.2818 122.419 75.7911 122.056C75.3218 121.693 74.9164 121.416 74.5751 121.224C75.4498 120.264 76.1324 119.208 76.6231 118.056C77.1351 116.904 77.5084 115.709 77.7431 114.472C77.9991 113.213 78.1591 111.965 78.2231 110.728C78.2871 109.469 78.3191 108.275 78.3191 107.144V95.72ZM98.4791 95.72H103.119V118.824C103.119 119.976 102.98 120.872 102.703 121.512C102.426 122.173 101.935 122.685 101.231 123.048C100.506 123.411 99.6311 123.635 98.6071 123.72C97.5831 123.827 96.3564 123.869 94.9271 123.848C94.8418 123.229 94.6498 122.483 94.3511 121.608C94.0524 120.733 93.7538 119.997 93.4551 119.4C93.9884 119.443 94.5431 119.475 95.1191 119.496C95.6951 119.496 96.2178 119.496 96.6871 119.496C97.1564 119.496 97.4871 119.496 97.6791 119.496C97.9778 119.496 98.1804 119.443 98.2871 119.336C98.4151 119.229 98.4791 119.037 98.4791 118.76V95.72ZM88.0791 97.512H92.7831V123.592H88.0791V97.512Z" fill="#FA676D"/>
<path d="M111.727 93.832H116.015V123.944H111.727V93.832ZM107.055 104.264H120.463V108.584H107.055V104.264ZM110.863 106.568L113.359 107.848C113.103 108.915 112.804 110.045 112.463 111.24C112.122 112.413 111.738 113.587 111.311 114.76C110.906 115.933 110.458 117.043 109.967 118.088C109.498 119.133 108.996 120.051 108.463 120.84C108.335 120.349 108.154 119.816 107.919 119.24C107.684 118.643 107.428 118.056 107.151 117.48C106.895 116.904 106.65 116.403 106.415 115.976C107.034 115.208 107.631 114.269 108.207 113.16C108.783 112.051 109.306 110.92 109.775 109.768C110.244 108.595 110.607 107.528 110.863 106.568ZM115.951 108.648C116.143 108.797 116.399 109.043 116.719 109.384C117.039 109.704 117.391 110.067 117.775 110.472C118.18 110.877 118.564 111.293 118.927 111.72C119.311 112.125 119.652 112.499 119.951 112.84C120.25 113.16 120.463 113.405 120.591 113.576L117.807 117.192C117.594 116.723 117.327 116.189 117.007 115.592C116.687 114.973 116.335 114.355 115.951 113.736C115.588 113.096 115.226 112.488 114.863 111.912C114.5 111.336 114.17 110.845 113.871 110.44L115.951 108.648ZM106.863 96.328L110.063 95.496C110.34 96.2853 110.575 97.1387 110.767 98.056C110.98 98.9733 111.151 99.8693 111.279 100.744C111.428 101.597 111.524 102.376 111.567 103.08L108.143 104.008C108.143 103.304 108.079 102.515 107.951 101.64C107.844 100.744 107.695 99.8373 107.503 98.92C107.311 97.9813 107.098 97.1173 106.863 96.328ZM117.519 95.304L121.391 96.104C121.114 97 120.826 97.9173 120.527 98.856C120.25 99.7947 119.962 100.691 119.663 101.544C119.386 102.397 119.119 103.155 118.863 103.816L115.951 103.016C116.164 102.312 116.367 101.512 116.559 100.616C116.772 99.6987 116.964 98.7813 117.135 97.864C117.306 96.9253 117.434 96.072 117.519 95.304ZM129.455 93.608H133.807V124.008H129.455V93.608ZM120.367 113.448L136.815 110.504L137.487 114.824L121.071 117.8L120.367 113.448ZM121.839 98.216L124.079 95.08C124.676 95.4213 125.295 95.816 125.935 96.264C126.596 96.712 127.215 97.1707 127.791 97.64C128.388 98.088 128.858 98.5147 129.199 98.92L126.799 102.408C126.479 101.981 126.042 101.523 125.487 101.032C124.932 100.541 124.335 100.051 123.695 99.56C123.055 99.048 122.436 98.6 121.839 98.216ZM120.495 106.28L122.671 102.952C123.29 103.272 123.94 103.656 124.623 104.104C125.306 104.531 125.956 104.968 126.575 105.416C127.194 105.864 127.695 106.291 128.079 106.696L125.743 110.408C125.402 110.003 124.932 109.555 124.335 109.064C123.738 108.573 123.098 108.083 122.415 107.592C121.754 107.101 121.114 106.664 120.495 106.28Z" fill="#FA676D"/>
<path d="M145.807 102.6H161.967V106.792H145.807V102.6ZM139.599 108.328H168.431V112.68H139.599V108.328ZM146.959 111.944H152.015C151.887 113.373 151.652 114.707 151.311 115.944C150.991 117.181 150.458 118.312 149.711 119.336C148.986 120.36 147.94 121.267 146.575 122.056C145.231 122.867 143.46 123.56 141.263 124.136C141.114 123.709 140.89 123.229 140.591 122.696C140.314 122.184 139.994 121.672 139.631 121.16C139.268 120.669 138.916 120.264 138.575 119.944C140.431 119.56 141.892 119.112 142.959 118.6C144.047 118.088 144.858 117.501 145.391 116.84C145.924 116.179 146.287 115.443 146.479 114.632C146.692 113.8 146.852 112.904 146.959 111.944ZM155.311 111.08H160.015V118.216C160.015 118.749 160.079 119.091 160.207 119.24C160.356 119.368 160.687 119.432 161.199 119.432C161.306 119.432 161.466 119.432 161.679 119.432C161.892 119.432 162.127 119.432 162.383 119.432C162.639 119.432 162.884 119.432 163.119 119.432C163.354 119.432 163.535 119.432 163.663 119.432C163.983 119.432 164.218 119.347 164.367 119.176C164.538 119.005 164.655 118.653 164.719 118.12C164.804 117.587 164.868 116.797 164.911 115.752C165.231 115.987 165.636 116.221 166.127 116.456C166.618 116.669 167.13 116.872 167.663 117.064C168.196 117.256 168.666 117.405 169.071 117.512C168.922 119.112 168.666 120.349 168.303 121.224C167.94 122.12 167.428 122.739 166.767 123.08C166.106 123.443 165.22 123.624 164.111 123.624C163.898 123.624 163.631 123.624 163.311 123.624C162.991 123.624 162.65 123.624 162.287 123.624C161.924 123.624 161.572 123.624 161.231 123.624C160.911 123.624 160.655 123.624 160.463 123.624C159.076 123.624 158.01 123.453 157.263 123.112C156.516 122.792 156.004 122.237 155.727 121.448C155.45 120.659 155.311 119.603 155.311 118.28V111.08ZM151.407 93.672H156.399V99.88H151.407V93.672ZM140.079 96.552H167.887V104.648H162.895V100.936H144.815V104.648H140.079V96.552Z" fill="#FA676D"/>
<path d="M185.871 98.024C185.21 98.9413 184.42 99.88 183.503 100.84C182.607 101.8 181.615 102.739 180.527 103.656C179.439 104.573 178.287 105.448 177.071 106.28C175.855 107.112 174.596 107.88 173.295 108.584C172.996 108.029 172.559 107.379 171.983 106.632C171.407 105.885 170.863 105.277 170.351 104.808C172.186 103.912 173.935 102.824 175.599 101.544C177.284 100.264 178.788 98.92 180.111 97.512C181.434 96.104 182.479 94.76 183.247 93.48H188.111C188.986 94.7387 189.946 95.9227 190.991 97.032C192.036 98.1413 193.135 99.1653 194.287 100.104C195.46 101.021 196.676 101.853 197.935 102.6C199.194 103.325 200.463 103.933 201.743 104.424C201.146 105.021 200.591 105.693 200.079 106.44C199.567 107.165 199.098 107.891 198.671 108.616C197.455 107.955 196.228 107.208 194.991 106.376C193.754 105.544 192.559 104.659 191.407 103.72C190.276 102.781 189.231 101.832 188.271 100.872C187.332 99.8907 186.532 98.9413 185.871 98.024ZM174.991 112.136H196.911V116.136H174.991V112.136ZM176.719 105.096H195.311V109.16H176.719V105.096ZM172.431 119.208H199.823V123.336H172.431V119.208ZM183.439 106.952H188.367V121.512H183.439V106.952Z" fill="#FA676D"/>
<path d="M209.167 93.64L213.743 94.984C213.167 96.1573 212.474 97.3093 211.663 98.44C210.874 99.5493 210.02 100.584 209.103 101.544C208.207 102.483 207.311 103.304 206.415 104.008C206.138 103.709 205.764 103.368 205.295 102.984C204.826 102.6 204.346 102.227 203.855 101.864C203.386 101.501 202.97 101.203 202.607 100.968C203.951 100.136 205.21 99.0693 206.383 97.768C207.578 96.4453 208.506 95.0693 209.167 93.64ZM209.391 96.84H231.439V100.904H208.399L209.391 96.84ZM203.471 104.232H232.591V108.36H203.471V104.232ZM204.015 111.656H232.111V115.784H204.015V111.656ZM213.391 98.312H217.231V113.864H213.391V98.312ZM207.727 98.312H211.823V113.864H207.727V98.312ZM218.831 98.312H222.671V113.864H218.831V98.312ZM224.335 98.312H228.591V113.864H224.335V98.312ZM212.367 117.352L216.687 116.84C216.9 117.821 217.082 118.899 217.231 120.072C217.402 121.224 217.498 122.205 217.519 123.016L212.943 123.688C212.943 123.155 212.922 122.525 212.879 121.8C212.836 121.075 212.772 120.328 212.687 119.56C212.602 118.771 212.495 118.035 212.367 117.352ZM218.639 117.48L223.023 116.744C223.279 117.384 223.524 118.077 223.759 118.824C224.015 119.549 224.228 120.264 224.399 120.968C224.591 121.651 224.73 122.269 224.815 122.824L220.143 123.72C220.058 122.909 219.866 121.917 219.567 120.744C219.29 119.571 218.98 118.483 218.639 117.48ZM224.911 117.32L229.391 115.944C229.86 116.605 230.34 117.331 230.831 118.12C231.343 118.888 231.823 119.656 232.271 120.424C232.719 121.171 233.071 121.853 233.327 122.472L228.527 124.04C228.314 123.443 228.004 122.76 227.599 121.992C227.215 121.224 226.778 120.435 226.287 119.624C225.818 118.792 225.359 118.024 224.911 117.32ZM206.511 116.072L211.055 117.16C210.714 118.397 210.234 119.645 209.615 120.904C209.018 122.141 208.346 123.197 207.599 124.072L203.087 122.28C203.77 121.597 204.42 120.691 205.039 119.56C205.679 118.408 206.17 117.245 206.511 116.072Z" fill="#FA676D"/>
<path d="M239.727 93.832H244.015V123.944H239.727V93.832ZM235.055 104.264H248.463V108.584H235.055V104.264ZM238.863 106.568L241.359 107.848C241.103 108.915 240.804 110.045 240.463 111.24C240.122 112.413 239.738 113.587 239.311 114.76C238.906 115.933 238.458 117.043 237.967 118.088C237.498 119.133 236.996 120.051 236.463 120.84C236.335 120.349 236.154 119.816 235.919 119.24C235.684 118.643 235.428 118.056 235.151 117.48C234.895 116.904 234.65 116.403 234.415 115.976C235.034 115.208 235.631 114.269 236.207 113.16C236.783 112.051 237.306 110.92 237.775 109.768C238.244 108.595 238.607 107.528 238.863 106.568ZM243.951 108.648C244.143 108.797 244.399 109.043 244.719 109.384C245.039 109.704 245.391 110.067 245.775 110.472C246.18 110.877 246.564 111.293 246.927 111.72C247.311 112.125 247.652 112.499 247.951 112.84C248.25 113.16 248.463 113.405 248.591 113.576L245.807 117.192C245.594 116.723 245.327 116.189 245.007 115.592C244.687 114.973 244.335 114.355 243.951 113.736C243.588 113.096 243.226 112.488 242.863 111.912C242.5 111.336 242.17 110.845 241.871 110.44L243.951 108.648ZM234.863 96.328L238.063 95.496C238.34 96.2853 238.575 97.1387 238.767 98.056C238.98 98.9733 239.151 99.8693 239.279 100.744C239.428 101.597 239.524 102.376 239.567 103.08L236.143 104.008C236.143 103.304 236.079 102.515 235.951 101.64C235.844 100.744 235.695 99.8373 235.503 98.92C235.311 97.9813 235.098 97.1173 234.863 96.328ZM245.519 95.304L249.391 96.104C249.114 97 248.826 97.9173 248.527 98.856C248.25 99.7947 247.962 100.691 247.663 101.544C247.386 102.397 247.119 103.155 246.863 103.816L243.951 103.016C244.164 102.312 244.367 101.512 244.559 100.616C244.772 99.6987 244.964 98.7813 245.135 97.864C245.306 96.9253 245.434 96.072 245.519 95.304ZM257.455 93.608H261.807V124.008H257.455V93.608ZM248.367 113.448L264.815 110.504L265.487 114.824L249.071 117.8L248.367 113.448ZM249.839 98.216L252.079 95.08C252.676 95.4213 253.295 95.816 253.935 96.264C254.596 96.712 255.215 97.1707 255.791 97.64C256.388 98.088 256.858 98.5147 257.199 98.92L254.799 102.408C254.479 101.981 254.042 101.523 253.487 101.032C252.932 100.541 252.335 100.051 251.695 99.56C251.055 99.048 250.436 98.6 249.839 98.216ZM248.495 106.28L250.671 102.952C251.29 103.272 251.94 103.656 252.623 104.104C253.306 104.531 253.956 104.968 254.575 105.416C255.194 105.864 255.695 106.291 256.079 106.696L253.743 110.408C253.402 110.003 252.932 109.555 252.335 109.064C251.738 108.573 251.098 108.083 250.415 107.592C249.754 107.101 249.114 106.664 248.495 106.28Z" fill="#FA676D"/>
<path d="M280.015 112.488L279.055 102.376L278.863 97.064H285.135L284.943 102.376L283.983 112.488H280.015ZM281.999 121.384C281.039 121.384 280.25 121.075 279.631 120.456C279.034 119.837 278.735 119.059 278.735 118.12C278.735 117.181 279.044 116.413 279.663 115.816C280.282 115.219 281.06 114.92 281.999 114.92C282.938 114.92 283.716 115.219 284.335 115.816C284.954 116.413 285.263 117.181 285.263 118.12C285.263 119.059 284.954 119.837 284.335 120.456C283.716 121.075 282.938 121.384 281.999 121.384Z" fill="#FA676D"/>
<path d="M59.5514 54.792H63.0794V60.696C63.0794 61.112 63.1194 61.376 63.1994 61.488C63.2954 61.584 63.5034 61.632 63.8234 61.632C63.9034 61.632 64.0074 61.632 64.1354 61.632C64.2794 61.632 64.4314 61.632 64.5914 61.632C64.7514 61.632 64.9034 61.632 65.0474 61.632C65.1914 61.632 65.3034 61.632 65.3834 61.632C65.5914 61.632 65.7514 61.56 65.8634 61.416C65.9754 61.272 66.0554 60.984 66.1034 60.552C66.1514 60.104 66.1914 59.432 66.2234 58.536C66.4634 58.712 66.7674 58.896 67.1354 59.088C67.5194 59.264 67.9114 59.424 68.3114 59.568C68.7274 59.712 69.0874 59.824 69.3914 59.904C69.2794 61.216 69.0874 62.24 68.8154 62.976C68.5594 63.696 68.1834 64.2 67.6874 64.488C67.1914 64.776 66.5354 64.92 65.7194 64.92C65.5754 64.92 65.3914 64.92 65.1674 64.92C64.9434 64.92 64.7114 64.92 64.4714 64.92C64.2474 64.92 64.0234 64.92 63.7994 64.92C63.5914 64.92 63.4154 64.92 63.2714 64.92C62.2634 64.92 61.4874 64.784 60.9434 64.512C60.4154 64.256 60.0474 63.816 59.8394 63.192C59.6474 62.584 59.5514 61.76 59.5514 60.72V54.792ZM47.5994 52.176H69.2234V55.536H47.5994V52.176ZM51.5594 45.456H67.2314V48.792H51.5594V45.456ZM53.0714 54.816H56.7434C56.6314 55.904 56.4554 56.96 56.2154 57.984C55.9754 58.992 55.5994 59.952 55.0874 60.864C54.5754 61.776 53.8634 62.616 52.9514 63.384C52.0394 64.152 50.8474 64.824 49.3754 65.4C49.2474 65.08 49.0554 64.728 48.7994 64.344C48.5594 63.96 48.2954 63.584 48.0074 63.216C47.7354 62.848 47.4634 62.544 47.1914 62.304C48.4554 61.888 49.4554 61.408 50.1914 60.864C50.9434 60.32 51.5114 59.72 51.8954 59.064C52.2794 58.408 52.5514 57.728 52.7114 57.024C52.8714 56.304 52.9914 55.568 53.0714 54.816ZM51.2474 42.696L54.7994 43.392C54.5434 44.352 54.2394 45.352 53.8874 46.392C53.5354 47.432 53.1354 48.432 52.6874 49.392C52.2554 50.352 51.7754 51.184 51.2474 51.888C50.9754 51.712 50.6474 51.528 50.2634 51.336C49.8954 51.128 49.5194 50.936 49.1354 50.76C48.7514 50.584 48.4154 50.448 48.1274 50.352C48.6394 49.696 49.0954 48.928 49.4954 48.048C49.9114 47.168 50.2634 46.264 50.5514 45.336C50.8554 44.392 51.0874 43.512 51.2474 42.696ZM56.6474 42.48H60.1994V53.184H56.6474V42.48Z" fill="white"/>
<path d="M72.6794 44.688H92.2394V47.352H72.6794V44.688ZM73.9514 48.024H90.9194V50.496H73.9514V48.024ZM78.5594 57.456H88.9514V59.304H78.5594V57.456ZM78.5594 59.832H88.9514V61.68H78.5594V59.832ZM78.5114 62.232H89.3354V64.656H78.5114V62.232ZM71.6234 51.12H93.1274V53.808H71.6234V51.12ZM80.5274 46.68H84.1274V53.28H80.5274V46.68ZM75.6554 43.368L78.7514 42.408C79.0554 42.744 79.3354 43.128 79.5914 43.56C79.8634 43.976 80.0554 44.36 80.1674 44.712L76.9514 45.864C76.8554 45.512 76.6794 45.104 76.4234 44.64C76.1834 44.16 75.9274 43.736 75.6554 43.368ZM85.7834 42.408L89.6234 43.32C89.2394 43.784 88.8794 44.208 88.5434 44.592C88.2234 44.976 87.9434 45.304 87.7034 45.576L84.7274 44.688C84.9194 44.336 85.1114 43.952 85.3034 43.536C85.5114 43.12 85.6714 42.744 85.7834 42.408ZM76.4954 52.44L79.9754 53.28C79.2874 55.248 78.3514 57.048 77.1674 58.68C75.9994 60.296 74.6874 61.624 73.2314 62.664C73.0554 62.424 72.8074 62.144 72.4874 61.824C72.1834 61.488 71.8634 61.16 71.5274 60.84C71.1914 60.504 70.8954 60.24 70.6394 60.048C71.9994 59.232 73.1834 58.16 74.1914 56.832C75.2154 55.504 75.9834 54.04 76.4954 52.44ZM76.5914 54.504H91.1834V65.256H87.5114V56.928H80.0714V65.256H76.5914V54.504Z" fill="white"/>
<path d="M96.2474 63V59.544H100.039V49.392H96.7514V46.752C97.7114 46.576 98.5274 46.36 99.1994 46.104C99.8874 45.848 100.543 45.52 101.167 45.12H104.311V59.544H107.527V63H96.2474Z" fill="white"/>
<path d="M116.32 63.336C115.072 63.336 113.968 62.984 113.008 62.28C112.064 61.576 111.32 60.528 110.776 59.136C110.248 57.744 109.984 56.024 109.984 53.976C109.984 51.928 110.248 50.224 110.776 48.864C111.32 47.504 112.064 46.488 113.008 45.816C113.968 45.144 115.072 44.808 116.32 44.808C117.584 44.808 118.688 45.152 119.632 45.84C120.576 46.512 121.312 47.528 121.84 48.888C122.368 50.232 122.632 51.928 122.632 53.976C122.632 56.024 122.368 57.744 121.84 59.136C121.312 60.528 120.576 61.576 119.632 62.28C118.688 62.984 117.584 63.336 116.32 63.336ZM116.32 60.024C116.752 60.024 117.136 59.864 117.472 59.544C117.824 59.208 118.096 58.608 118.288 57.744C118.496 56.864 118.6 55.608 118.6 53.976C118.6 52.344 118.496 51.104 118.288 50.256C118.096 49.408 117.824 48.832 117.472 48.528C117.136 48.224 116.752 48.072 116.32 48.072C115.904 48.072 115.52 48.224 115.168 48.528C114.816 48.832 114.536 49.408 114.328 50.256C114.12 51.104 114.016 52.344 114.016 53.976C114.016 55.608 114.12 56.864 114.328 57.744C114.536 58.608 114.816 59.208 115.168 59.544C115.52 59.864 115.904 60.024 116.32 60.024Z" fill="white"/>
<path d="M145.585 48.12C145.425 48.376 145.257 48.68 145.081 49.032C144.921 49.368 144.777 49.72 144.649 50.088C144.441 50.744 144.153 51.512 143.785 52.392C143.417 53.272 142.961 54.192 142.417 55.152C141.873 56.112 141.233 57.048 140.497 57.96C139.329 59.384 137.977 60.664 136.441 61.8C134.905 62.92 133.009 63.944 130.753 64.872L127.297 61.8C129.025 61.272 130.481 60.696 131.665 60.072C132.865 59.448 133.889 58.792 134.737 58.104C135.585 57.4 136.345 56.664 137.017 55.896C137.529 55.336 138.001 54.688 138.433 53.952C138.881 53.216 139.257 52.488 139.561 51.768C139.881 51.032 140.089 50.408 140.185 49.896H132.553L133.849 46.608C134.073 46.608 134.409 46.608 134.857 46.608C135.305 46.608 135.801 46.608 136.345 46.608C136.905 46.608 137.449 46.608 137.977 46.608C138.521 46.608 138.993 46.608 139.393 46.608C139.809 46.608 140.097 46.608 140.257 46.608C140.657 46.608 141.073 46.584 141.505 46.536C141.953 46.472 142.329 46.392 142.633 46.296L145.585 48.12ZM137.881 44.232C137.545 44.712 137.217 45.224 136.897 45.768C136.577 46.312 136.337 46.72 136.177 46.992C135.601 48 134.889 49.032 134.041 50.088C133.209 51.128 132.289 52.128 131.281 53.088C130.273 54.032 129.233 54.88 128.161 55.632L124.897 53.208C125.953 52.552 126.881 51.888 127.681 51.216C128.481 50.544 129.169 49.88 129.745 49.224C130.321 48.568 130.817 47.944 131.233 47.352C131.665 46.744 132.041 46.192 132.361 45.696C132.585 45.36 132.817 44.92 133.057 44.376C133.313 43.816 133.505 43.304 133.633 42.84L137.881 44.232Z" fill="white"/>
<path d="M167.257 44.136C167.241 44.488 167.217 44.88 167.185 45.312C167.169 45.728 167.161 46.2 167.161 46.728C167.161 47.192 167.161 47.752 167.161 48.408C167.161 49.048 167.161 49.688 167.161 50.328C167.161 50.968 167.161 51.512 167.161 51.96C167.161 53.16 167.089 54.224 166.945 55.152C166.817 56.08 166.625 56.904 166.369 57.624C166.113 58.344 165.801 58.984 165.433 59.544C165.081 60.104 164.673 60.624 164.209 61.104C163.681 61.664 163.065 62.176 162.361 62.64C161.673 63.088 160.977 63.472 160.273 63.792C159.569 64.112 158.921 64.368 158.329 64.56L155.281 61.344C156.529 61.072 157.625 60.704 158.569 60.24C159.529 59.76 160.369 59.152 161.089 58.416C161.489 57.984 161.817 57.552 162.073 57.12C162.329 56.672 162.521 56.192 162.649 55.68C162.793 55.152 162.889 54.568 162.937 53.928C163.001 53.272 163.033 52.528 163.033 51.696C163.033 51.232 163.033 50.688 163.033 50.064C163.033 49.44 163.033 48.824 163.033 48.216C163.033 47.608 163.033 47.112 163.033 46.728C163.033 46.2 163.017 45.728 162.985 45.312C162.953 44.88 162.913 44.488 162.865 44.136H167.257ZM156.145 44.352C156.129 44.656 156.105 44.944 156.073 45.216C156.057 45.472 156.049 45.816 156.049 46.248C156.049 46.456 156.049 46.768 156.049 47.184C156.049 47.584 156.049 48.048 156.049 48.576C156.049 49.104 156.049 49.656 156.049 50.232C156.049 50.792 156.049 51.344 156.049 51.888C156.049 52.432 156.049 52.928 156.049 53.376C156.049 53.808 156.049 54.152 156.049 54.408C156.049 54.712 156.057 55.08 156.073 55.512C156.105 55.944 156.129 56.32 156.145 56.64H151.921C151.937 56.4 151.961 56.056 151.993 55.608C152.025 55.16 152.041 54.752 152.041 54.384C152.041 54.128 152.041 53.784 152.041 53.352C152.041 52.904 152.041 52.408 152.041 51.864C152.041 51.32 152.041 50.768 152.041 50.208C152.041 49.632 152.041 49.088 152.041 48.576C152.041 48.048 152.041 47.584 152.041 47.184C152.041 46.768 152.041 46.456 152.041 46.248C152.041 46.024 152.033 45.728 152.017 45.36C152.001 44.992 151.977 44.656 151.945 44.352H156.145Z" fill="white"/>
<path d="M175.585 46.32C176.049 46.384 176.569 46.432 177.145 46.464C177.737 46.48 178.241 46.488 178.657 46.488C179.041 46.488 179.513 46.488 180.073 46.488C180.649 46.488 181.257 46.488 181.897 46.488C182.553 46.488 183.217 46.488 183.889 46.488C184.561 46.488 185.193 46.488 185.785 46.488C186.393 46.488 186.921 46.488 187.369 46.488C187.833 46.488 188.177 46.488 188.401 46.488C188.913 46.488 189.425 46.472 189.937 46.44C190.449 46.408 190.881 46.368 191.233 46.32V50.544C190.881 50.528 190.425 50.512 189.865 50.496C189.321 50.464 188.833 50.448 188.401 50.448C188.177 50.448 187.817 50.448 187.321 50.448C186.841 50.448 186.273 50.448 185.617 50.448C184.961 50.448 184.281 50.448 183.577 50.448C182.873 50.448 182.193 50.448 181.537 50.448C180.881 50.448 180.297 50.448 179.785 50.448C179.289 50.448 178.921 50.448 178.681 50.448C178.201 50.448 177.673 50.456 177.097 50.472C176.521 50.488 176.017 50.512 175.585 50.544V46.32ZM173.593 57.984C174.105 58.016 174.657 58.056 175.249 58.104C175.841 58.136 176.385 58.152 176.881 58.152C177.105 58.152 177.489 58.152 178.033 58.152C178.577 58.152 179.217 58.152 179.953 58.152C180.705 58.152 181.505 58.152 182.353 58.152C183.201 58.152 184.041 58.152 184.873 58.152C185.721 58.152 186.513 58.152 187.249 58.152C188.001 58.152 188.641 58.152 189.169 58.152C189.713 58.152 190.097 58.152 190.321 58.152C190.753 58.152 191.233 58.136 191.761 58.104C192.289 58.072 192.777 58.032 193.225 57.984V62.424C192.761 62.376 192.249 62.336 191.689 62.304C191.145 62.272 190.689 62.256 190.321 62.256C190.097 62.256 189.713 62.256 189.169 62.256C188.641 62.256 188.001 62.256 187.249 62.256C186.513 62.256 185.721 62.256 184.873 62.256C184.041 62.256 183.201 62.256 182.353 62.256C181.505 62.256 180.705 62.256 179.953 62.256C179.217 62.256 178.577 62.256 178.033 62.256C177.489 62.256 177.105 62.256 176.881 62.256C176.385 62.256 175.833 62.272 175.225 62.304C174.617 62.336 174.073 62.376 173.593 62.424V57.984Z" fill="white"/>
<path d="M208.033 48.504C208.161 48.76 208.313 49.128 208.489 49.608C208.681 50.088 208.881 50.6 209.089 51.144C209.297 51.672 209.481 52.176 209.641 52.656C209.817 53.136 209.953 53.52 210.049 53.808L206.569 55.008C206.489 54.704 206.369 54.32 206.209 53.856C206.049 53.392 205.873 52.904 205.681 52.392C205.489 51.864 205.297 51.36 205.105 50.88C204.913 50.384 204.737 49.968 204.577 49.632L208.033 48.504ZM216.985 50.472C216.825 50.936 216.689 51.328 216.577 51.648C216.481 51.968 216.393 52.272 216.313 52.56C216.009 53.712 215.593 54.88 215.065 56.064C214.553 57.232 213.897 58.336 213.097 59.376C211.977 60.832 210.697 62.072 209.257 63.096C207.833 64.136 206.401 64.936 204.961 65.496L201.913 62.376C202.761 62.152 203.681 61.808 204.673 61.344C205.665 60.88 206.625 60.312 207.553 59.64C208.497 58.968 209.297 58.216 209.953 57.384C210.481 56.712 210.953 55.928 211.369 55.032C211.785 54.136 212.121 53.184 212.377 52.176C212.649 51.152 212.817 50.144 212.881 49.152L216.985 50.472ZM202.465 49.8C202.641 50.136 202.833 50.544 203.041 51.024C203.249 51.504 203.457 52.008 203.665 52.536C203.873 53.064 204.073 53.576 204.265 54.072C204.457 54.552 204.609 54.968 204.721 55.32L201.169 56.64C201.073 56.32 200.929 55.904 200.737 55.392C200.561 54.88 200.361 54.344 200.137 53.784C199.929 53.224 199.721 52.704 199.513 52.224C199.305 51.728 199.121 51.336 198.961 51.048L202.465 49.8Z" fill="white"/>
<path d="M241.585 48.12C241.425 48.376 241.257 48.68 241.081 49.032C240.921 49.368 240.777 49.72 240.649 50.088C240.441 50.744 240.153 51.512 239.785 52.392C239.417 53.272 238.961 54.192 238.417 55.152C237.873 56.112 237.233 57.048 236.497 57.96C235.329 59.384 233.977 60.664 232.441 61.8C230.905 62.92 229.009 63.944 226.753 64.872L223.297 61.8C225.025 61.272 226.481 60.696 227.665 60.072C228.865 59.448 229.889 58.792 230.737 58.104C231.585 57.4 232.345 56.664 233.017 55.896C233.529 55.336 234.001 54.688 234.433 53.952C234.881 53.216 235.257 52.488 235.561 51.768C235.881 51.032 236.089 50.408 236.185 49.896H228.553L229.849 46.608C230.073 46.608 230.409 46.608 230.857 46.608C231.305 46.608 231.801 46.608 232.345 46.608C232.905 46.608 233.449 46.608 233.977 46.608C234.521 46.608 234.993 46.608 235.393 46.608C235.809 46.608 236.097 46.608 236.257 46.608C236.657 46.608 237.073 46.584 237.505 46.536C237.953 46.472 238.329 46.392 238.633 46.296L241.585 48.12ZM233.881 44.232C233.545 44.712 233.217 45.224 232.897 45.768C232.577 46.312 232.337 46.72 232.177 46.992C231.601 48 230.889 49.032 230.041 50.088C229.209 51.128 228.289 52.128 227.281 53.088C226.273 54.032 225.233 54.88 224.161 55.632L220.897 53.208C221.953 52.552 222.881 51.888 223.681 51.216C224.481 50.544 225.169 49.88 225.745 49.224C226.321 48.568 226.817 47.944 227.233 47.352C227.665 46.744 228.041 46.192 228.361 45.696C228.585 45.36 228.817 44.92 229.057 44.376C229.313 43.816 229.505 43.304 229.633 42.84L233.881 44.232Z" fill="white"/>
<path d="M256.009 47.88H263.905V50.688H256.009V47.88ZM251.665 61.512C252.385 61.416 253.209 61.296 254.137 61.152C255.081 61.008 256.073 60.856 257.113 60.696C258.169 60.52 259.217 60.344 260.257 60.168L260.521 63.192C259.209 63.496 257.881 63.792 256.537 64.08C255.193 64.384 253.953 64.656 252.817 64.896L251.665 61.512ZM254.041 43.56H257.425V62.472H254.041V43.56ZM256.009 43.56H265.465V55.104H256.009V52.128H262.009V46.536H256.009V43.56ZM261.217 53.112C261.489 54.504 261.865 55.8 262.345 57C262.825 58.184 263.457 59.232 264.241 60.144C265.025 61.04 266.001 61.744 267.169 62.256C266.929 62.48 266.657 62.76 266.353 63.096C266.065 63.448 265.793 63.808 265.537 64.176C265.281 64.56 265.073 64.904 264.913 65.208C263.601 64.504 262.521 63.592 261.673 62.472C260.825 61.336 260.137 60.024 259.609 58.536C259.097 57.032 258.673 55.376 258.337 53.568L261.217 53.112ZM263.953 55.056L266.689 56.928C266.033 57.568 265.361 58.2 264.673 58.824C263.985 59.432 263.361 59.944 262.801 60.36L260.641 58.728C260.993 58.408 261.369 58.04 261.769 57.624C262.185 57.208 262.585 56.776 262.969 56.328C263.353 55.88 263.681 55.456 263.953 55.056ZM245.281 43.512H251.185V46.608H248.521V65.304H245.281V43.512ZM250.249 43.512H250.849L251.329 43.392L253.705 44.736C253.513 45.456 253.297 46.224 253.057 47.04C252.833 47.84 252.601 48.632 252.361 49.416C252.137 50.2 251.913 50.904 251.689 51.528C252.377 52.424 252.809 53.28 252.985 54.096C253.177 54.896 253.273 55.632 253.273 56.304C253.273 57.184 253.177 57.888 252.985 58.416C252.793 58.944 252.489 59.36 252.073 59.664C251.865 59.824 251.633 59.952 251.377 60.048C251.137 60.128 250.881 60.192 250.609 60.24C250.401 60.272 250.153 60.296 249.865 60.312C249.593 60.312 249.313 60.312 249.025 60.312C249.009 59.864 248.937 59.344 248.809 58.752C248.697 58.16 248.521 57.648 248.281 57.216C248.457 57.232 248.609 57.24 248.737 57.24C248.881 57.24 249.009 57.24 249.121 57.24C249.249 57.24 249.361 57.224 249.457 57.192C249.569 57.16 249.673 57.112 249.769 57.048C249.897 56.952 249.985 56.808 250.033 56.616C250.097 56.408 250.129 56.144 250.129 55.824C250.129 55.312 250.033 54.712 249.841 54.024C249.665 53.336 249.281 52.624 248.689 51.888C248.833 51.36 248.977 50.752 249.121 50.064C249.281 49.376 249.433 48.688 249.577 48C249.721 47.296 249.849 46.648 249.961 46.056C250.089 45.448 250.185 44.96 250.249 44.592V43.512Z" fill="white"/>
<path d="M273.145 49.68H286.009V52.992H273.145V49.68ZM279.625 55.44H287.737V58.704H279.625V55.44ZM277.801 51.672H281.449V62.952L277.801 62.52V51.672ZM272.041 53.928L275.689 54.288C275.385 56.752 274.849 58.936 274.081 60.84C273.313 62.728 272.241 64.264 270.865 65.448C270.673 65.24 270.401 64.976 270.049 64.656C269.697 64.352 269.329 64.048 268.945 63.744C268.577 63.456 268.257 63.224 267.985 63.048C269.265 62.136 270.217 60.888 270.841 59.304C271.465 57.72 271.865 55.928 272.041 53.928ZM275.041 56.88C275.393 57.904 275.849 58.736 276.409 59.376C276.969 60 277.617 60.472 278.353 60.792C279.089 61.112 279.889 61.328 280.753 61.44C281.633 61.552 282.561 61.608 283.537 61.608C283.841 61.608 284.225 61.608 284.689 61.608C285.153 61.608 285.657 61.608 286.201 61.608C286.761 61.608 287.321 61.608 287.881 61.608C288.457 61.592 289.001 61.584 289.513 61.584C290.025 61.568 290.465 61.552 290.833 61.536C290.673 61.808 290.505 62.16 290.329 62.592C290.169 63.008 290.025 63.44 289.897 63.888C289.769 64.336 289.673 64.736 289.609 65.088H283.345C281.985 65.088 280.729 64.992 279.577 64.8C278.441 64.608 277.409 64.256 276.481 63.744C275.569 63.232 274.753 62.496 274.033 61.536C273.313 60.576 272.697 59.328 272.185 57.792L275.041 56.88ZM277.729 42.528H281.473V47.184H277.729V42.528ZM269.161 44.76H290.113V51.24H286.513V48.048H272.593V51.24H269.161V44.76Z" fill="white"/>
</svg>
