<svg width="479" height="63" fill="none" xmlns="http://www.w3.org/2000/svg"><path d="M6.002 3.92a.907.907 0 01-.9-.9c0-.492.408-.9.9-.9.492 0 .9.408.9.9 0 .492-.408.9-.9.9zm0 2.172l3.96-3.96.348.348-3.96 3.96 3.96 3.96-.348.348-3.96-3.96L2.03 10.76l-.348-.348L5.654 6.44l-3.96-3.96.348-.348 3.96 3.96zm-2.52.348c0 .492-.408.9-.9.9a.907.907 0 01-.9-.9c0-.492.408-.9.9-.9.492 0 .9.408.9.9zm5.04 0c0-.492.408-.9.9-.9.492 0 .9.408.9.9 0 .492-.408.9-.9.9a.907.907 0 01-.9-.9zm-2.52 2.52c.492 0 .9.408.9.9 0 .492-.408.9-.9.9a.907.907 0 01-.9-.9c0-.492.408-.9.9-.9zm17.172-6.072c-.084.12-.24.3-.324.432-.48.816-1.62 2.364-2.988 3.312l-.792-.636c1.104-.636 2.232-1.944 2.628-2.688h-6.84c-.444 0-.9.024-1.368.072V2.288c.42.06.924.108 1.368.108h6.888c.228 0 .66-.036.84-.072l.588.564zm-4.788 1.584c0 3.252-.288 5.448-3.348 6.972l-.888-.72c.336-.108.744-.3 1.08-.54 1.86-1.14 2.124-2.844 2.124-4.848 0-.288-.012-.552-.048-.864h1.08zm7.859-2.268c.852.564 2.388 1.812 3.06 2.484l-.756.756c-.6-.624-2.1-1.908-2.988-2.508l.684-.732zm-1.032 8.04a12.39 12.39 0 004.8-1.752c1.848-1.164 3.312-2.94 4.008-4.416l.576 1.02c-.816 1.5-2.22 3.132-4.032 4.272a13.153 13.153 0 01-4.716 1.86l-.636-.984zm15.252-8.52c-.096.276-.216.588-.3.84-.12.348-.264.78-.456 1.212h5.664c.3 0 .78-.012 1.128-.06v1.032a20.563 20.563 0 00-1.128-.036h-2.028c-.192 3.432-1.536 5.436-3.6 6.756l-1.02-.696c.336-.132.708-.336.972-.552 1.176-.888 2.472-2.46 2.64-5.508h-3.072c-.492.9-1.296 1.992-2.004 2.568l-.948-.564c.864-.624 1.728-1.848 2.136-2.58a8.11 8.11 0 00.684-1.68c.096-.312.156-.648.18-.96l1.152.228zm8.28 4.08c.36.024.996.06 1.668.06h6.576c.6 0 1.032-.036 1.296-.06V6.98c-.24-.012-.744-.06-1.284-.06h-6.588c-.66 0-1.296.024-1.668.06V5.804zm14.82 4.14V2.96c0-.336-.024-.876-.096-1.248h1.176c-.036.372-.084.888-.084 1.248v1.956c1.584.48 3.864 1.344 5.124 1.98l-.408 1.02c-1.308-.708-3.384-1.512-4.716-1.932.012 1.8.012 3.612.012 3.96 0 .372.024 1.02.072 1.416h-1.164c.06-.384.084-.972.084-1.416zM82.417 6.8c0 2.52-1.656 4.2-4.5 4.572l-.564-.888a9.064 9.064 0 001.032-.156c1.536-.348 3.048-1.488 3.048-3.564 0-1.812-1.164-3.312-3.204-3.48-.156 1.116-.384 2.34-.72 3.456-.732 2.472-1.68 3.732-2.796 3.732-1.068 0-2.136-1.224-2.136-3.204 0-2.604 2.316-4.884 5.244-4.884 2.808 0 4.596 1.98 4.596 4.416zm-8.904.384c0 1.512.696 2.184 1.236 2.184.564 0 1.2-.804 1.812-2.832.3-.996.54-2.136.672-3.24-2.304.288-3.72 2.256-3.72 3.888zm12.612-4.476c.864.096 1.968.144 3.168.144 1.152 0 2.376-.072 3.24-.168v.984c-.816.06-2.124.144-3.228.144-1.212 0-2.232-.048-3.18-.132v-.972zm.48 4.836c-.156.468-.24.912-.24 1.356 0 .924.924 1.548 2.844 1.548 1.656 0 3.204-.18 4.104-.468l.012 1.032c-.852.24-2.376.42-4.092.42-2.436 0-3.852-.804-3.852-2.316 0-.624.132-1.188.252-1.668l.972.096zm6.264-6.18c.3.432.732 1.176.984 1.656l-.648.3c-.24-.492-.648-1.224-.984-1.68l.648-.276zm1.32-.48c.324.444.78 1.2 1.02 1.644l-.66.288c-.252-.516-.648-1.2-.996-1.656l.636-.276zm11.316 2.112h-2.268c-.408 1.332-1.26 2.292-2.964 2.928a2.25 2.25 0 00-.456-.624c1.464-.504 2.196-1.272 2.568-2.304h-2.1v-.732h2.304c.084-.408.132-.84.156-1.308h.828c-.024.468-.084.9-.156 1.308h2.976s-.012.228-.036.348c-.156 1.764-.312 2.496-.588 2.772-.192.204-.396.276-.708.3-.264.012-.744.012-1.248-.012a1.978 1.978 0 00-.24-.768c.504.048.972.06 1.164.06.168 0 .264-.012.36-.108.18-.156.288-.66.408-1.86zM99.781 4.94h-1.416v6.96h-.84V4.94h-1.488v-.816h1.488V.968h.84v3.156h1.416v.816zm1.38 2.28h1.656s0 .24-.012.36c-.096 2.724-.192 3.684-.432 4.008-.156.204-.336.276-.588.3a6.88 6.88 0 01-.888.012c-.012-.216-.084-.528-.192-.708.336.024.6.024.744.024.132 0 .216-.024.288-.12.144-.204.24-.996.312-3.156h-.96c-.192 1.68-.66 3.06-1.74 3.996a2.443 2.443 0 00-.504-.552c.936-.78 1.32-1.992 1.476-3.444h-1.14v-.72h1.212c.024-.396.036-.816.048-1.236h.78c-.012.42-.036.84-.06 1.236zm3.924 0h1.776s0 .252-.012.36c-.084 2.724-.168 3.684-.42 4.008-.156.192-.336.276-.588.3-.228.024-.6.024-.984.012a2.437 2.437 0 00-.192-.732c.36.024.672.024.816.024.144 0 .228 0 .3-.108.144-.204.228-.984.3-3.144h-1.068c-.204 1.692-.672 3.048-1.824 3.96-.108-.168-.324-.432-.516-.564.996-.756 1.392-1.932 1.56-3.396h-1.092v-.72h1.164c.024-.396.036-.816.048-1.248h.792c-.012.432-.036.852-.06 1.248zm8.292-3.648h4.992s-.012.336-.024.468c-.264 4.92-.516 6.708-1.044 7.308-.276.336-.564.432-1.02.48-.42.036-1.188.012-1.92-.036a1.952 1.952 0 00-.3-.912 23.2 23.2 0 001.884.084c.252 0 .408-.036.552-.18.432-.408.696-2.1.924-6.324h-4.092c-.168 2.484-.96 5.388-4.44 7.512-.144-.216-.468-.564-.684-.708 3.252-1.932 4.02-4.56 4.2-6.804h-3.84v-.888h3.888V.98h.924v2.592zm8.82-.948a9.137 9.137 0 00-.096 1.164c-.012.756 0 1.848.084 2.844.192 2.004.78 3.336 1.632 3.336.612 0 1.176-1.248 1.488-2.448l.756.852c-.72 2.04-1.452 2.736-2.256 2.736-1.14 0-2.232-1.128-2.556-4.236-.108-1.044-.132-2.508-.132-3.204 0-.276-.012-.78-.084-1.068l1.164.024zm6.252.336c1.068 1.392 1.932 3.936 2.112 5.964l-.96.396c-.216-2.172-.936-4.632-2.088-6.036l.936-.324zm9.768 5.172a4.243 4.243 0 00-.168 1.08c0 .564.312 1.116 2.028 1.116.78 0 1.608-.084 2.34-.24l-.036.972c-.648.096-1.44.168-2.316.168-1.896 0-2.928-.576-2.928-1.764 0-.468.084-.912.18-1.416l.9.084zm-1.38-6.576c-.072.264-.168.72-.216.96-.048.252-.108.564-.18.888.78-.096 1.572-.24 2.304-.432v.948c-.78.18-1.656.312-2.496.408-.108.528-.24 1.08-.384 1.608-.432 1.704-1.248 4.176-1.872 5.496l-1.056-.36c.72-1.236 1.572-3.672 2.016-5.364.108-.396.216-.852.312-1.284a18.433 18.433 0 01-2.496-.012l-.036-.936a10.87 10.87 0 001.44.084c.396 0 .828-.024 1.296-.06.084-.42.144-.804.18-1.044.048-.336.06-.744.036-.996l1.152.096zm1.128 3.66c.636-.06 1.428-.108 2.196-.108.708 0 1.428.036 2.076.108l-.024.912a15.172 15.172 0 00-2.016-.144c-.756 0-1.488.036-2.232.12v-.888zM149.857 8.3a4.243 4.243 0 00-.168 1.08c0 .564.312 1.116 2.028 1.116.78 0 1.608-.084 2.34-.24l-.036.972c-.648.096-1.44.18-2.316.18-1.896 0-2.928-.588-2.928-1.776 0-.456.072-.912.18-1.416l.9.084zm-1.38-6.564a15.2 15.2 0 00-.216.948c-.048.264-.12.564-.18.888.78-.096 1.572-.24 2.304-.42v.936c-.78.18-1.656.312-2.496.408-.12.528-.24 1.08-.384 1.608-.432 1.704-1.248 4.188-1.872 5.496l-1.056-.36c.72-1.236 1.572-3.672 2.016-5.364.108-.396.216-.852.312-1.284-.396.024-.768.036-1.104.036-.528 0-.96-.024-1.392-.048l-.036-.936a10.87 10.87 0 001.44.084c.396 0 .828-.024 1.296-.06.084-.42.144-.804.18-1.044.048-.336.06-.744.036-.984l1.152.096zm1.128 3.648c.636-.06 1.428-.108 2.196-.108.708 0 1.428.036 2.076.108l-.024.912a15.172 15.172 0 00-2.016-.144c-.756 0-1.488.048-2.232.132v-.9zm2.976-3.288c.312.432.744 1.164.984 1.656l-.648.288a13.714 13.714 0 00-.972-1.668l.636-.276zm1.32-.492c.324.456.792 1.2 1.02 1.656l-.648.288c-.264-.528-.66-1.212-.996-1.668l.624-.276zm10.752.036a6.182 6.182 0 00-.036.708c-.012.264 0 1.068.012 1.812.708-.06 1.392-.144 1.956-.276v.984c-.552.084-1.224.156-1.944.204v.42c0 2.76 0 4.716-2.544 6.216l-.876-.684c.384-.156.876-.456 1.164-.744 1.284-1.128 1.356-2.484 1.356-4.788V5.12c-.516.024-1.032.036-1.524.036-.576 0-1.428-.036-1.944-.072v-.96c.516.084 1.284.132 1.932.132.492 0 1.008-.012 1.512-.036a37.674 37.674 0 00-.072-1.86c-.024-.276-.072-.528-.108-.72h1.116zm-6.072.18l-.204.78c-.384 1.74-.792 4.368-.336 6.336.168-.504.42-1.236.648-1.836l.516.312c-.288.84-.648 2.064-.78 2.652-.048.18-.072.408-.06.54.012.12.024.288.036.408l-.816.096c-.24-.732-.636-2.292-.636-3.804 0-1.944.312-3.792.456-4.788.048-.276.06-.588.06-.804l1.116.108zm13.332 7.92c0 .576.66.936 1.596.936.348 0 .672-.024.972-.072-.096-.948-.696-1.632-1.608-1.632-.54 0-.96.348-.96.768zm-1.536-7.584c.276.036.612.048.852.048.624 0 3.48-.096 4.116-.156.36-.024.528-.06.648-.096l.552.696c-.216.156-.456.312-.672.492-.6.456-2.232 1.848-3.168 2.628.552-.192 1.128-.252 1.668-.252 1.992 0 3.42 1.2 3.42 2.82 0 1.932-1.584 3.18-4.128 3.18-1.632 0-2.628-.708-2.628-1.704 0-.828.732-1.56 1.848-1.56 1.5 0 2.304.984 2.448 2.124.96-.372 1.5-1.068 1.5-2.052 0-1.176-1.128-2.064-2.688-2.064-2.004 0-3.072.852-4.596 2.4l-.684-.708c.996-.816 2.532-2.1 3.228-2.688.672-.552 2.172-1.812 2.784-2.352-.636.024-3.036.132-3.672.168a8.44 8.44 0 00-.792.072l-.036-.996zm20.472 1.716h-6.012a22.203 22.203 0 01-.18 1.968h4.776s-.012.288-.024.432c-.24 3.42-.48 4.74-.948 5.22-.276.288-.564.372-1.02.396-.42.024-1.2.012-2.004-.036a2.04 2.04 0 00-.312-.864c.852.084 1.704.084 2.004.084.276 0 .444-.012.564-.132.36-.312.588-1.488.792-4.26h-3.96c-.42 2.124-1.38 4.104-3.816 5.28a3.034 3.034 0 00-.636-.732c3.312-1.488 3.66-4.596 3.804-7.356h-3.684V3.02h4.836V.932h.9V3.02h4.92v.852zM6.002 20.92a.907.907 0 01-.9-.9c0-.492.408-.9.9-.9.492 0 .9.408.9.9 0 .492-.408.9-.9.9zm0 2.172l3.96-3.96.348.348-3.96 3.96 3.96 3.96-.348.348-3.96-3.96L2.03 27.76l-.348-.348 3.972-3.972-3.96-3.96.348-.348 3.96 3.96zm-2.52.348c0 .492-.408.9-.9.9a.907.907 0 01-.9-.9c0-.492.408-.9.9-.9.492 0 .9.408.9.9zm5.04 0c0-.492.408-.9.9-.9.492 0 .9.408.9.9 0 .492-.408.9-.9.9a.907.907 0 01-.9-.9zm-2.52 2.52c.492 0 .9.408.9.9 0 .492-.408.9-.9.9a.907.907 0 01-.9-.9c0-.492.408-.9.9-.9zm7.068 4.428v-8.976c0-1.788.852-3.12 2.676-3.12 1.26 0 2.448.744 2.448 2.304 0 .972-.48 1.728-1.308 2.232v.06c1.296.18 2.1 1.152 2.1 2.52 0 1.764-1.236 2.748-2.556 2.748-.816 0-1.656-.252-2.328-.996.036 1.104.048 2.136.072 3.228H13.07zm3.108-3.144c.948 0 1.716-.708 1.716-1.896 0-1.044-.6-1.836-1.836-1.836-.228 0-.456.024-.672.084l-.168-.84c1.38-.276 1.908-1.212 1.908-2.076 0-1.008-.636-1.512-1.368-1.512-.996 0-1.608.84-1.62 2.4a298.805 298.805 0 00-.036 4.656c.636.804 1.392 1.02 2.076 1.02zm5.494-5.184v.864c0 .288 0 .576-.012.864h2.46V28.9h-.816v-4.308h-1.668c-.084 1.56-.348 3.12-1.08 4.332a3.91 3.91 0 00-.624-.528c.828-1.512.936-3.66.936-5.472v-4.716h.804v3.048h1.308v-3.324h.816v3.324h1.044v.804h-3.168zm8.076.336h-2.592c.288 1.248.708 2.364 1.284 3.312.588-.912 1.044-2.028 1.308-3.312zm.42-.84l.54.18c-.3 1.956-.912 3.516-1.728 4.74.6.744 1.332 1.332 2.208 1.716a5.34 5.34 0 00-.612.732 6.384 6.384 0 01-2.136-1.74 7.255 7.255 0 01-2.076 1.728 3.248 3.248 0 00-.564-.72c.78-.384 1.5-.972 2.124-1.752-.696-1.116-1.188-2.496-1.524-4.044h-.168c-.024 1.992-.24 4.656-1.236 6.504-.168-.132-.528-.36-.732-.432 1.044-1.932 1.128-4.632 1.128-6.552v-3.42h5.424v.816h-4.584v2.28h3.78l.156-.036zm12.3 2.244c0 2.52-1.656 4.2-4.5 4.572l-.564-.888a9.064 9.064 0 001.032-.156c1.536-.348 3.048-1.488 3.048-3.564 0-1.812-1.164-3.312-3.204-3.48-.156 1.116-.384 2.34-.72 3.456-.732 2.472-1.68 3.732-2.796 3.732-1.068 0-2.136-1.224-2.136-3.204 0-2.604 2.316-4.884 5.244-4.884 2.808 0 4.596 1.98 4.596 4.416zm-8.904.384c0 1.512.696 2.184 1.236 2.184.564 0 1.2-.804 1.812-2.832.3-.996.54-2.136.672-3.24-2.304.288-3.72 2.256-3.72 3.888zm12.612-4.476c.864.096 1.968.144 3.168.144 1.152 0 2.376-.072 3.24-.168v.984c-.816.06-2.124.144-3.228.144-1.212 0-2.232-.048-3.18-.132v-.972zm.48 4.836c-.156.468-.24.912-.24 1.356 0 .924.924 1.548 2.844 1.548 1.656 0 3.204-.18 4.104-.468l.012 1.032c-.852.24-2.376.42-4.092.42-2.436 0-3.852-.804-3.852-2.316 0-.624.132-1.188.252-1.668l.972.096zm6.264-6.18c.3.432.732 1.176.984 1.656l-.648.3c-.24-.492-.648-1.224-.984-1.68l.648-.276zm1.32-.48c.324.444.78 1.2 1.02 1.644l-.66.288c-.252-.516-.648-1.2-.996-1.656l.636-.276zm11.04 2.1v-.948h-3.972v.948h3.972zm0 1.584v-.96h-3.972v.96h3.972zm.852-3.204v3.888h-5.64v-3.888h5.64zm-6.516 4.824l.108.816c-.432.156-.876.288-1.32.444v3.36c0 .492-.108.72-.408.864-.276.144-.732.18-1.488.168a3.647 3.647 0 00-.264-.828c.516.012.996.012 1.128.012.144 0 .204-.048.204-.228v-3.084c-.492.168-.96.312-1.392.444l-.216-.864c.444-.108.996-.276 1.608-.468v-2.628H56.1v-.828h1.476V17.98h.828v2.388h1.32v.828h-1.32v2.364l1.212-.372zm4.104 2.808v1.884c.348.048.732.072 1.128.072.288 0 1.908 0 2.316-.012-.12.192-.228.564-.264.792h-2.088c-1.728 0-2.988-.324-3.768-2.004-.324.9-.804 1.632-1.428 2.196a5.086 5.086 0 00-.672-.54c1.068-.84 1.596-2.184 1.788-3.96l.816.096c-.06.444-.132.876-.228 1.272.336 1.02.876 1.572 1.56 1.86V23.86h-2.928v-.756h6.852v.756H63.72v1.404h2.484v.732H63.72zm7.104-8.004l.84.264a20.06 20.06 0 01-1.224 2.568V28.9h-.876v-6.732c-.372.54-.78 1.032-1.188 1.452a7.4 7.4 0 00-.504-.876c1.176-1.14 2.28-2.94 2.952-4.752zm2.556 7.86l.852.264a11.216 11.216 0 01-2.292 2.772c-.156-.156-.504-.444-.708-.552.816-.624 1.644-1.56 2.148-2.484zm2.712.432l.696-.396c.828.78 1.716 1.848 2.136 2.544l-.756.504c-.396-.744-1.284-1.86-2.076-2.652zm-2.088-4.908v2.928h2.34v-2.928h-2.34zm3.204 2.928h1.848v.876h-7.752v-.876h1.836v-2.928h-1.548v-.864h1.548V18.1h.864v2.412h2.34v-2.424h.864v2.424h1.704v.864h-1.704v2.928zm7.716 2.256c0 .612.6.948 1.464.948 1.008 0 1.308-.516 1.308-1.308 0-.12 0-.264-.012-.42a4.084 4.084 0 00-1.224-.192c-.9 0-1.536.384-1.536.972zm3.636-7.8c-.036.24-.06.48-.072.72a116.4 116.4 0 00-.036 1.452c.732-.06 1.44-.156 2.076-.276v.924c-.66.108-1.356.18-2.076.228.012 1.212.096 2.412.144 3.42.972.384 1.752.984 2.376 1.548l-.528.804c-.6-.564-1.2-1.044-1.812-1.392v.252c0 .984-.456 1.932-2.076 1.932-1.608 0-2.496-.636-2.496-1.716 0-1.008.9-1.812 2.472-1.812.396 0 .768.036 1.116.108-.036-.924-.108-2.1-.12-3.084a36.89 36.89 0 01-1.152.024c-.684 0-1.308-.036-2.016-.084v-.9a22.568 22.568 0 003.168.072v-1.488c0-.204-.024-.528-.048-.732h1.08zm-5.928.072a6.24 6.24 0 00-.204.816c-.24 1.116-.6 3.492-.6 4.836 0 .576.036 1.08.12 1.668a41.8 41.8 0 01.684-1.764l.492.384c-.288.84-.732 2.064-.852 2.652a2.15 2.15 0 00-.048.54c0 .12.012.288.024.42l-.84.06c-.24-.852-.456-2.172-.456-3.792 0-1.764.396-4.056.552-5.052.036-.276.072-.6.072-.852l1.056.084zm12.288 9.324c-1.62 0-2.808-.984-2.808-2.34 0-1.116.816-1.884 1.62-2.316v-.048c-.636-.432-1.188-1.068-1.188-1.98 0-1.308 1.044-2.184 2.412-2.184 1.5 0 2.412.936 2.412 2.268 0 .9-.66 1.668-1.176 2.064v.06c.756.456 1.488 1.056 1.488 2.196 0 1.284-1.104 2.28-2.76 2.28zm.6-4.812c.588-.528.912-1.092.912-1.728 0-.84-.54-1.512-1.488-1.512-.816 0-1.404.54-1.404 1.368 0 1.032.948 1.464 1.98 1.872zm-.576 3.996c1.008 0 1.692-.612 1.692-1.488 0-1.116-1.08-1.512-2.328-2.004-.696.444-1.2 1.08-1.2 1.872 0 .936.78 1.62 1.836 1.62zm6.56-3.012h5.616v-2.016h-5.484c0 .624-.036 1.308-.132 2.016zm5.616-4.86h-5.484v1.992h5.484v-1.992zm.924-.876v9.024c0 .624-.18.936-.624 1.08-.456.156-1.248.168-2.532.168a4.256 4.256 0 00-.372-.924c.996.036 1.956.024 2.232.024.276-.012.372-.096.372-.36v-2.4h-5.76c-.3 1.356-.9 2.712-2.064 3.732-.12-.192-.48-.516-.66-.648 1.908-1.68 2.1-4.116 2.1-6.024v-3.672h7.308zm8.616 5.556h3.444v-3.18h-3.444v3.18zm-4.356 0h3.432v-3.18h-3.432v3.18zm4.356-4.056h4.356v5.616h-.912v-.684h-3.444v3.888h-.924v-3.888h-3.432v.744h-.876v-5.676h4.308v-2.136h.924v2.136zm15.732 2.208v-1.164h-3.3V22.3h3.3zm0 1.812v-1.176h-3.3v1.176h3.3zm0 1.848v-1.188h-3.3v1.188h3.3zm-4.116-5.52h1.8c.096-.36.18-.768.228-1.128h-2.412v-.78h5.664v.78h-2.292c-.108.384-.24.78-.348 1.128h2.316v6.216h-4.956V20.44zm-4.92 2.76v-4.812h.744V23.2c0 2.172-.096 4.08-.9 5.676-.144-.144-.42-.408-.6-.516.672-1.464.756-3.216.756-5.16zm1.632 4.008V19.24h.66v7.968h-.66zm1.62 1.296V18.352h.732v10.152h-.732zm2.94-1.596l.744.444c-.6.588-1.56 1.224-2.364 1.584a4.179 4.179 0 00-.552-.588c.792-.336 1.716-.936 2.172-1.44zm1.668.468l.66-.444c.684.42 1.548 1.056 1.992 1.5l-.684.492c-.42-.444-1.272-1.104-1.968-1.548zm6.72-6.852l-.672.708c-.444-.516-1.392-1.296-2.16-1.836l.636-.636c.756.504 1.728 1.236 2.196 1.764zm-.42 3.132l.48.768c-.888.96-1.884 2.004-2.7 2.772l-.576-.732c.696-.648 1.776-1.752 2.796-2.808zm4.488-2.664v1.512c-.012 1.044.564 4.212 3.804 5.616-.156.204-.432.576-.576.792-2.496-1.152-3.528-3.624-3.696-4.74-.204 1.128-1.296 3.528-4.164 4.74a3.96 3.96 0 00-.552-.72c3.636-1.44 4.26-4.572 4.26-5.688v-1.512h-1.464c-.384.936-.84 1.776-1.332 2.436a5.317 5.317 0 00-.852-.504c1.008-1.176 1.74-3.024 2.148-4.932l.936.168c-.168.672-.348 1.32-.564 1.944h4.836l.18-.048.648.36a15.739 15.739 0 01-1.32 3.168c-.192-.084-.528-.276-.744-.36.3-.552.684-1.44.924-2.232h-2.472zm6.828-1.284c.864.096 1.968.144 3.168.144 1.152 0 2.376-.072 3.24-.168v.984c-.816.06-2.124.144-3.228.144-1.212 0-2.232-.048-3.18-.132v-.972zm.48 4.836c-.156.468-.24.912-.24 1.356 0 .924.924 1.548 2.844 1.548 1.656 0 3.204-.18 4.104-.468l.012 1.032c-.852.24-2.376.42-4.092.42-2.436 0-3.852-.804-3.852-2.316 0-.624.132-1.188.252-1.668l.972.096zm6.264-6.18c.3.432.732 1.176.984 1.656l-.648.3c-.24-.492-.648-1.224-.984-1.68l.648-.276zm1.32-.48c.324.444.78 1.2 1.02 1.644l-.66.288c-.252-.516-.648-1.2-.996-1.656l.636-.276zm3.168 1.728v.96h-.84v-1.716h4.548v-.888h.876v.888h4.632v1.716h-.852v-.96h-8.364zm6.072 1.98h-3.36c-.204.264-.408.528-.6.768a57.5 57.5 0 012.592.564c.66-.348 1.08-.792 1.368-1.332zM161.48 23.2l-.828-.264c.336-.372.72-.852 1.116-1.344h-2.676v-.732h3.24c.3-.384.576-.768.816-1.104l.828.24c-.192.276-.408.564-.636.864h6.072v.732h-2.304c-.3.636-.72 1.164-1.32 1.596 1.164.3 2.256.636 3.048.924l-.54.648c-.816-.336-2.064-.72-3.396-1.08-1.176.528-2.832.84-5.196 1.008a2.747 2.747 0 00-.288-.708c1.86-.12 3.228-.312 4.236-.612-.66-.168-1.32-.312-1.944-.444l-.228.276zm8.1 2.772h-4.188c1.092.924 2.844 1.704 4.452 2.052-.192.18-.444.516-.576.744-1.668-.456-3.492-1.404-4.632-2.556V28.9h-.876v-2.64c-1.116 1.116-2.88 2.052-4.524 2.496-.12-.216-.372-.564-.564-.72 1.596-.36 3.336-1.152 4.392-2.064H158.9v-.744h4.86v-.996h.876v.996h4.944v.744zm11.448-5.964v7.728c0 .576-.132.864-.54 1.008-.42.156-1.164.156-2.232.156a3.31 3.31 0 00-.3-.9c.84.036 1.656.036 1.908.024.216-.012.288-.084.288-.3v-6.84h-3.48a8.247 8.247 0 01-.216 1.56c1.188 1.044 2.652 2.448 3.384 3.336l-.732.576c-.612-.804-1.812-2.028-2.916-3.06-.444 1.152-1.308 2.268-2.916 3.216a3.717 3.717 0 00-.636-.672c2.64-1.404 3.072-3.384 3.144-4.956h-3.456v8.052h-.876v-8.928h4.344v-2.052h.888v2.052h4.344zm11.892 2.34l.708.336c-.636 1.044-1.416 2.184-2.148 2.916l-.72-.456c.444-.48.972-1.176 1.404-1.872h-3.408v4.524c0 .552-.144.804-.564.936-.42.132-1.116.144-2.16.144-.06-.252-.216-.612-.336-.864.828.036 1.632.024 1.872.012.216-.012.288-.06.288-.24v-4.512h-4.944v-.852h6.216a64.767 64.767 0 00-3.456-1.596l.456-.66c.66.264 1.44.588 2.172.912a13.919 13.919 0 002.28-1.644h-6.54v-.828h7.404l.204-.048.648.492c-.852.852-2.04 1.752-3.12 2.436.492.216.96.444 1.296.624l-.204.312h2.472l.18-.072zm3.204-2.172v1.752h-.876v-2.592h4.5v-1.368h.924v1.368h4.536v2.592h-.912v-1.752h-8.172zm4.548 5.1v2.448c.588.108 1.248.144 1.944.144.432 0 2.496 0 3.072-.012a2.63 2.63 0 00-.336.9h-2.784c-2.484 0-4.272-.432-5.364-2.46-.42 1.104-1.008 1.992-1.788 2.676a4.658 4.658 0 00-.732-.6c1.332-1.032 1.98-2.736 2.244-4.884l.912.084a15.147 15.147 0 01-.288 1.596c.456 1.26 1.224 1.944 2.208 2.316v-5.028h-2.976v-.84h6.948v.84h-3.06v1.992h3.552v.828h-3.552zM6.002 37.92a.907.907 0 01-.9-.9c0-.492.408-.9.9-.9.492 0 .9.408.9.9 0 .492-.408.9-.9.9zm0 2.172l3.96-3.96.348.348-3.96 3.96 3.96 3.96-.348.348-3.96-3.96L2.03 44.76l-.348-.348 3.972-3.972-3.96-3.96.348-.348 3.96 3.96zm-2.52.348c0 .492-.408.9-.9.9a.907.907 0 01-.9-.9c0-.492.408-.9.9-.9.492 0 .9.408.9.9zm5.04 0c0-.492.408-.9.9-.9.492 0 .9.408.9.9 0 .492-.408.9-.9.9a.907.907 0 01-.9-.9zm-2.52 2.52c.492 0 .9.408.9.9 0 .492-.408.9-.9.9a.907.907 0 01-.9-.9c0-.492.408-.9.9-.9zm8.172-6.48c.324.024.672.048 1.08.048h5.712c.384 0 .72-.024.984-.048v.96c-.288-.012-.564-.036-.984-.036h-3.12v2.544h4.044c.252 0 .732-.024.996-.048v.984c-.276-.036-.708-.036-.972-.036h-4.068v2.412c0 .6.42.96 1.524.96 1.14 0 2.124-.048 3.156-.168l-.06 1.008c-.936.072-2.088.12-3.228.12-1.812 0-2.388-.636-2.388-1.62v-2.712h-2.34c-.3 0-.792.024-1.128.048v-1.008c.324.024.816.06 1.128.06h2.34v-2.544h-1.596c-.408 0-.756.012-1.08.036v-.96zm11.964.708c.384.024.792.048 1.188.048h5.136c.432 0 .852-.012 1.188-.048v1.08a18.226 18.226 0 00-1.188-.036h-5.136c-.42 0-.816.024-1.188.036v-1.08zm-1.032 5.94c.408.024.828.06 1.26.06h7.188c.36 0 .744-.024 1.092-.06v1.152c-.36-.036-.768-.06-1.092-.06h-7.188c-.432 0-.852.036-1.26.06v-1.152zm17.328-7.548c-.204.312-.42.72-.54.936a4.024 4.024 0 01-.252.432h3.252c.324 0 .588-.048.792-.12l.792.48c-.108.168-.216.456-.288.648-.312 1.104-.96 2.508-1.872 3.732.504.372.984.744 1.368 1.056l-.708.828c-.36-.324-.816-.696-1.308-1.092-1.068 1.188-2.544 2.292-4.572 3.048l-.864-.744a10.527 10.527 0 004.644-2.892 48.308 48.308 0 00-2.544-1.728l.648-.66a35.289 35.289 0 012.532 1.62c.78-1.044 1.392-2.34 1.632-3.324H41.09c-.768 1.08-1.836 2.256-3.18 3.18l-.804-.624c2.064-1.284 3.288-3.084 3.852-4.176.12-.216.312-.636.384-.948l1.092.348zm6.792 4.224c.36.024.996.06 1.668.06h6.576c.6 0 1.032-.036 1.296-.06v1.176c-.24-.012-.744-.06-1.284-.06h-6.588c-.66 0-1.296.024-1.668.06v-1.176zm20.484-2.82v-.948h-3.972v.948h3.972zm0 1.584v-.96h-3.972v.96h3.972zm.852-3.204v3.888h-5.64v-3.888h5.64zm-6.516 4.824l.108.816c-.432.156-.876.288-1.32.444v3.36c0 .492-.108.72-.408.864-.276.144-.732.18-1.488.168a3.647 3.647 0 00-.264-.828c.516.012.996.012 1.128.012.144 0 .204-.048.204-.228v-3.084c-.492.168-.96.312-1.392.444l-.216-.864c.444-.108.996-.276 1.608-.468v-2.628H60.53v-.828h1.476V34.98h.828v2.388h1.32v.828h-1.32v2.364l1.212-.372zm4.104 2.808v1.884c.348.048.732.072 1.128.072.288 0 1.908 0 2.316-.012-.12.192-.228.564-.264.792h-2.088c-1.728 0-2.988-.324-3.768-2.004-.324.9-.804 1.632-1.428 2.196a5.086 5.086 0 00-.672-.54c1.068-.84 1.596-2.184 1.788-3.96l.816.096c-.06.444-.132.876-.228 1.272.336 1.02.876 1.572 1.56 1.86V40.86h-2.928v-.756h6.852v.756H68.15v1.404h2.484v.732H68.15zm7.104-8.004l.84.264a20.06 20.06 0 01-1.224 2.568V45.9h-.876v-6.732c-.372.54-.78 1.032-1.188 1.452a7.4 7.4 0 00-.504-.876c1.176-1.14 2.28-2.94 2.952-4.752zm2.556 7.86l.852.264a11.216 11.216 0 01-2.292 2.772c-.156-.156-.504-.444-.708-.552.816-.624 1.644-1.56 2.148-2.484zm2.712.432l.696-.396c.828.78 1.716 1.848 2.136 2.544l-.756.504c-.396-.744-1.284-1.86-2.076-2.652zm-2.088-4.908v2.928h2.34v-2.928h-2.34zm3.204 2.928h1.848v.876h-7.752v-.876h1.836v-2.928h-1.548v-.864h1.548V35.1h.864v2.412h2.34v-2.424h.864v2.424h1.704v.864h-1.704v2.928zm3.312-4.2c.456-.012.84-.036 1.068-.06.78-.084 3.048-.312 5.256-.492a90.48 90.48 0 013.24-.216v.96c-.684 0-1.74.012-2.352.192-1.704.552-2.748 2.376-2.748 3.804 0 2.34 2.184 3.084 4.14 3.156l-.348.996c-2.22-.084-4.752-1.272-4.752-3.948 0-1.872 1.14-3.396 2.244-4.056-1.284.144-4.344.432-5.64.708l-.108-1.044zm7.836 1.668c.276.396.732 1.14.984 1.668l-.612.288c-.276-.576-.624-1.2-.984-1.692l.612-.264zm1.308-.504c.288.396.768 1.128 1.044 1.656l-.624.3a11.122 11.122 0 00-1.008-1.68l.588-.276zm7.932-1.644c-.096-.36-.216-.732-.336-1.068l1.02-.132c.048.456.156.948.288 1.428a13.353 13.353 0 002.46-.54l.132.864c-.684.192-1.536.372-2.364.48.084.3.18.576.264.828.084.228.18.48.276.72.996-.12 1.836-.336 2.4-.516l.144.9c-.576.156-1.332.312-2.172.432.252.516.528 1.032.84 1.488.132.192.276.348.444.516l-.492.732c-.672-.18-1.8-.288-2.628-.384l.084-.732c.636.072 1.416.156 1.8.204-.36-.552-.672-1.14-.936-1.728-1.464.132-3.432.156-5.28.024l-.048-.9a26.9 26.9 0 004.98.06c-.084-.216-.168-.42-.24-.624-.12-.336-.228-.648-.324-.936-1.164.072-2.628.048-4.128-.084l-.06-.876c1.44.168 2.808.204 3.96.144-.036-.096-.06-.204-.084-.3zm-2.364 5.196c-.288.42-.504.828-.504 1.356 0 .996.888 1.488 2.772 1.488 1.116 0 1.992-.072 2.856-.252l-.036.96a18.25 18.25 0 01-2.808.204c-2.352 0-3.672-.696-3.684-2.232-.012-.684.204-1.188.468-1.716l.936.192zm13.752-6.348c-.108.432-.276 1.164-.468 1.86.624-.096 1.272-.24 1.884-.444l.024.9c-.636.18-1.392.336-2.184.444-.588 1.692-1.656 3.768-2.616 5.064l-.924-.48c.996-1.164 2.016-3.084 2.568-4.488-.36.024-.72.036-1.068.036-.444 0-.948-.012-1.404-.036l-.06-.9c.444.06.96.084 1.464.084.432 0 .888-.024 1.356-.06.18-.672.348-1.428.372-2.076l1.056.096zm-.66 8.328c0 .564.456.948 1.392.948.996 0 1.332-.528 1.332-1.188 0-.156 0-.336-.012-.54a4.16 4.16 0 00-1.236-.18c-.876 0-1.476.408-1.476.96zm3.492-4.62c-.024.492-.024.864-.012 1.296.012.444.06 1.224.084 1.968 1.032.372 1.872.96 2.496 1.488l-.516.816c-.516-.456-1.164-.996-1.944-1.38.012.192.012.36.012.504 0 .96-.612 1.74-2.1 1.74-1.32 0-2.4-.54-2.4-1.728 0-1.104 1.044-1.8 2.4-1.8.408 0 .804.036 1.176.12-.048-.984-.108-2.172-.132-3.024h.936zm2.4.324c-.648-.552-1.944-1.296-2.748-1.656l.492-.732c.864.384 2.232 1.164 2.796 1.596l-.54.792zm6.612-3.864c-.048.216-.096.48-.144.708-.072.348-.18 1.056-.312 1.716a19.483 19.483 0 011.356-.084c1.068 0 1.944.408 1.944 2.028 0 1.428-.192 3.336-.696 4.332-.384.804-.972 1.008-1.752 1.008a6.524 6.524 0 01-1.416-.18l-.156-.996c.504.156 1.14.24 1.476.24.444 0 .804-.096 1.044-.612.384-.816.576-2.376.576-3.672 0-1.104-.516-1.308-1.272-1.308-.288 0-.768.036-1.296.084-.444 1.728-1.26 4.44-2.52 6.468l-.984-.384c1.224-1.644 2.124-4.38 2.532-5.988-.636.06-1.212.132-1.524.168-.276.036-.768.096-1.08.144l-.096-1.044c.372.024.684.012 1.068 0 .396-.012 1.104-.072 1.824-.132.192-.864.312-1.8.312-2.616l1.116.12zm4.128 1.272c.744.972 1.788 3.18 2.196 4.296l-.936.444c-.348-1.236-1.284-3.348-2.136-4.344l.876-.396zm4.536 3.3c.36-.072.744-.18 1.128-.3.852-.264 2.82-.984 4.236-.984 1.704 0 2.928 1.02 2.928 2.664 0 2.304-2.22 3.48-5.46 3.684l-.384-.924c2.592-.084 4.872-.828 4.872-2.784 0-1.008-.804-1.776-2.028-1.776-1.488 0-4.116 1.104-4.884 1.404l-.408-.984zm16.776 1.92a4.243 4.243 0 00-.168 1.08c0 .564.312 1.116 2.028 1.116.78 0 1.608-.084 2.34-.24l-.036.972c-.648.096-1.44.168-2.316.168-1.896 0-2.928-.576-2.928-1.764 0-.468.084-.912.18-1.416l.9.084zm-1.38-6.576c-.072.264-.168.72-.216.96-.048.252-.108.564-.18.888.78-.096 1.572-.24 2.304-.432v.948c-.78.18-1.656.312-2.496.408-.108.528-.24 1.08-.384 1.608-.432 1.704-1.248 4.176-1.872 5.496l-1.056-.36c.72-1.236 1.572-3.672 2.016-5.364.108-.396.216-.852.312-1.284a18.433 18.433 0 01-2.496-.012l-.036-.936a10.87 10.87 0 001.44.084c.396 0 .828-.024 1.296-.06.084-.42.144-.804.18-1.044.048-.336.06-.744.036-.996l1.152.096zm1.128 3.66c.636-.06 1.428-.108 2.196-.108.708 0 1.428.036 2.076.108l-.024.912a15.172 15.172 0 00-2.016-.144c-.756 0-1.488.036-2.232.12v-.888zm10.488-3.804a7.698 7.698 0 00-.084.828c-.012.288-.036.756-.048 1.296.876-.108 1.788-.276 2.472-.48l.024.936a22.03 22.03 0 01-2.52.42 81.24 81.24 0 00-.024 1.62v.42c.912-.288 1.848-.444 2.64-.444 1.752 0 3.012.948 3.012 2.388 0 1.452-.912 2.376-2.556 2.772-.54.12-1.068.144-1.488.168l-.336-.972c.444.012.96.012 1.404-.084 1.056-.204 2.016-.768 2.016-1.872 0-1.02-.924-1.572-2.064-1.572-.9 0-1.752.168-2.616.468.024 1.02.048 2.088.048 2.604 0 1.116-.408 1.476-1.056 1.476-.936 0-2.496-.924-2.496-1.992 0-.996 1.248-2.04 2.628-2.628v-.684c0-.48 0-1.044.012-1.572-.336.024-.636.036-.888.036-.684 0-1.128-.012-1.536-.06l-.024-.912c.66.084 1.092.096 1.536.096.276 0 .588-.012.924-.036 0-.624.012-1.152.012-1.368 0-.24-.024-.648-.06-.852h1.068zm3.72 1.332c.852.456 2.16 1.272 2.748 1.752l-.492.768c-.588-.564-1.92-1.392-2.688-1.8l.432-.72zm-6.456 6.6c0 .552.84 1.02 1.308 1.02.276 0 .444-.192.444-.588 0-.432-.024-1.248-.036-2.124-.984.456-1.716 1.152-1.716 1.692zm11.628-6.48v1.416h-.852v-2.244h4.548v-1.068h.9v1.068h4.596v2.244h-.888v-1.416h-8.304zm1.68 5.388h5.34a13.434 13.434 0 01-2.82-1.128c-.792.444-1.644.816-2.52 1.128zm.084 2.484h4.848v-1.74h-4.848v1.74zm.66-6.072l-.036.048c.468.552 1.092 1.032 1.824 1.452.72-.444 1.344-.948 1.824-1.5h-3.612zm4.38-.744l.6.372c-.576.888-1.404 1.656-2.364 2.304 1.344.624 2.964 1.044 4.656 1.26a3.623 3.623 0 00-.564.852 17.581 17.581 0 01-1.62-.324v3.504h-.9v-.384h-4.848v.396h-.852v-3.396a21.58 21.58 0 01-1.824.48 2.974 2.974 0 00-.444-.78c1.608-.288 3.3-.828 4.74-1.572a7.978 7.978 0 01-1.62-1.404 10.17 10.17 0 01-1.872 1.176 2.742 2.742 0 00-.6-.636c1.644-.732 2.808-1.776 3.408-2.7l.96.18c-.168.24-.348.48-.552.708h3.54l.156-.036zm7.968 3.336l-.492.66c-.168-.384-.588-1.128-.948-1.728V45.9h-.816v-5.604c-.396 1.308-.912 2.568-1.464 3.348-.096-.228-.312-.564-.456-.768.744-.996 1.476-2.868 1.824-4.5h-1.584v-.828h1.68v-2.592h.816v2.592h1.368v.828h-1.368v.756c.336.444 1.236 1.8 1.44 2.124zm2.424 1.656l.24.732c-.96.564-1.98 1.152-2.796 1.608l-.42-.744c.756-.384 1.884-.996 2.976-1.596zm-2.112-1.608l.612-.396c.468.468.996 1.116 1.236 1.548l-.648.456c-.228-.444-.744-1.116-1.2-1.608zm4.74 1.668l-.384-.288c.6.9 1.404 1.608 2.376 2.004-.18.168-.444.492-.576.72-1.128-.564-2.016-1.572-2.664-2.808v2.316c0 .48-.096.72-.408.864-.312.144-.852.156-1.596.156-.036-.228-.132-.6-.252-.816.528.012 1.044.012 1.2 0 .156 0 .192-.048.192-.204v-4.488h-3.024v-.756h3.024v-.924h-2.424v-.696h2.424V37.2h-2.772v-.732h1.5c-.132-.372-.384-.852-.6-1.236l.696-.228c.288.42.6 1.008.72 1.38l-.216.084h2.088l-.108-.036c.24-.408.54-1.056.696-1.488l.876.252c-.252.444-.516.912-.744 1.272h1.584v.732h-2.856v.852h2.592v.696h-2.592v.924h3.024v.756h-3.024v.48c.18.564.432 1.08.72 1.56.48-.432 1.116-1.116 1.476-1.608l.684.48c-.492.588-1.14 1.2-1.632 1.632zm7.668-7.404c-.084.324-.12.576-.156.84-.036.312-.096.732-.168 1.236.924 0 1.74-.048 2.436-.156l-.024.9a24.4 24.4 0 01-2.436.108h-.084c-.084.708-.18 1.464-.264 2.172h.228c.816 0 1.656-.036 2.496-.156l-.024.912c-.792.084-1.536.12-2.352.12h-.432c-.048.48-.072.9-.072 1.188 0 1.164.648 1.884 2.016 1.884 1.824 0 2.988-.804 2.988-2.04 0-.804-.432-1.704-1.308-2.448l1.056-.216c.828.912 1.224 1.74 1.224 2.772 0 1.788-1.584 2.868-3.96 2.868-1.632 0-2.94-.708-2.94-2.676 0-.336.036-.816.096-1.38-.9-.072-1.776-.204-2.508-.432l.048-.924c.792.276 1.704.42 2.556.492.072-.708.168-1.464.264-2.172a16.55 16.55 0 01-2.58-.42l.048-.876c.756.24 1.74.384 2.628.444.06-.48.108-.912.132-1.26.036-.408.036-.624.012-.852l1.08.072zm9.597 10.104c-.768-.948-1.8-1.98-2.652-2.676l.78-.684c.864.696 1.944 1.788 2.688 2.664l-.816.696zm17.772-4.608l.156-.048.696.204a90.643 90.643 0 01-2.244 4.74l-.912-.252a77.938 77.938 0 001.848-3.804h-6.744v-.84h7.2zm-5.664-2.328h5.232v.816h-5.232v-.816zm2.076-3.804h.876c1.248 1.776 3.372 3.612 5.244 4.608-.228.204-.444.504-.6.768-1.848-1.116-3.948-2.964-5.04-4.5-.96 1.476-2.904 3.324-4.92 4.56-.108-.204-.36-.504-.564-.696 2.064-1.188 4.068-3.168 5.004-4.74zm13.956 6.816v-2.736h-2.904v2.736h2.904zm-3.756-3.54h4.632v4.332h-4.632v-4.332zm-1.728 6.216h8.1v-8.076h-8.1v8.076zm-.9-8.964h9.948v10.452h-.948v-.648h-8.1v.648h-.9V35.46zm19.476 9.42h1.524c.432 0 .504-.252.552-1.8.204.156.576.312.828.372-.096 1.812-.36 2.28-1.308 2.28h-1.704c-1.056 0-1.32-.3-1.32-1.272v-3.516h-2.268c-.24 2.34-.912 4.092-3.636 5.04a2.444 2.444 0 00-.564-.756c2.532-.78 3.072-2.316 3.276-4.284h-3.108v-.864h4.776v-2.4h-2.472c-.288.684-.648 1.32-1.044 1.824a4.887 4.887 0 00-.78-.42c.828-1.008 1.428-2.592 1.716-3.84l.9.18c-.12.456-.276.924-.444 1.404h2.124v-1.86h.888v1.86h3.936v.852h-3.936v2.4h4.8v.864h-3.276v3.516c0 .36.084.42.54.42zm14.568-9.192v.84h-5.856v-.84h5.856zm-7.86-.732l.852.336c-.78 1.056-2.004 2.22-3.072 2.976-.132-.192-.372-.54-.528-.708.996-.672 2.148-1.752 2.748-2.604zm.492 2.556l.828.312a15.092 15.092 0 01-1.32 1.812v6.312h-.888V40.62c-.456.468-.912.9-1.356 1.248a8.548 8.548 0 00-.624-.744c1.236-.876 2.532-2.256 3.36-3.612zm7.716 1.452v.852h-1.812v4.956c0 .552-.132.828-.528.972-.408.132-1.08.132-2.256.132a3.18 3.18 0 00-.288-.864 34.23 34.23 0 001.872.012c.228-.012.3-.06.3-.264v-4.944h-4.008v-.852h6.72zm8.376 4.116h-3.576c.324.516.624 1.176.756 1.632l-.552.168h2.892l-.384-.108c.3-.456.648-1.176.864-1.692zm-4.236-2.316v1.572h4.848v-1.572h-4.848zm4.524 2.316l.588.156c-.288.588-.612 1.2-.9 1.644h3.42v.756h-10.368v-.756h3.264c-.12-.468-.408-1.128-.696-1.62l.672-.18h-1.356v-3.06h6.588v3.06h-1.212zm2.424-6.612l.672.468c-.528.492-1.2 1.02-1.788 1.428.672.54 1.416.996 2.184 1.296-.204.18-.456.504-.588.732-1.02-.456-1.968-1.14-2.784-1.98v.636h-4.416v-.54a10.144 10.144 0 01-2.892 2.028c-.12-.18-.36-.492-.54-.648.816-.336 1.668-.888 2.412-1.56-.372-.384-1.008-.888-1.56-1.236l.492-.492c.564.336 1.224.816 1.596 1.224.48-.504.9-1.068 1.212-1.656h-2.976v-.756h3.408l.168-.036.564.3a8.201 8.201 0 01-1.668 2.604h4.068a11.17 11.17 0 01-2.028-3.048l.756-.24a8.63 8.63 0 00.84 1.476 16.56 16.56 0 001.548-1.404l.672.48a18.269 18.269 0 01-1.812 1.464c.252.312.528.612.816.888.588-.432 1.248-.996 1.644-1.428zm8.784 6.288l.264.672a45.201 45.201 0 01-2.28 1.668l-.264-.468c-1.512.336-3.072.66-4.248.924l-.18-.828a54.388 54.388 0 001.98-.36v-3.636h-1.872v-.78h1.872v-1.272h-1.236v-.54c-.156.156-.324.312-.492.468a3.084 3.084 0 00-.552-.564c1.08-.912 1.848-2.124 2.244-3.072h.804c.708.636 1.584 1.536 1.992 2.148l-.588.66a13.253 13.253 0 00-1.692-1.992 11.17 11.17 0 01-1.512 2.124h3.192v.768h-1.38v1.272h1.716v.78h-1.716v3.48l1.656-.336.036.372c.612-.372 1.44-.936 2.256-1.488zm-6.324-1.236l.612-.156c.252.72.444 1.644.48 2.256l-.66.168c-.024-.624-.204-1.548-.432-2.268zm3.396 2.052l-.588-.156c.168-.576.396-1.524.492-2.16l.696.18c-.192.732-.42 1.584-.6 2.136zm2.928-1.596l-.648.432c-.24-.456-.78-1.152-1.284-1.632l.6-.384c.516.468 1.08 1.128 1.332 1.584zm1.332-2.208v.276c.384 1.56 1.284 3.492 3.072 4.428-.18.144-.456.504-.588.72-1.2-.732-1.98-1.932-2.484-3.084v2.88c0 .42-.084.66-.372.792-.276.132-.732.132-1.38.132a3.464 3.464 0 00-.252-.78c.456.024.864.012.996.012s.168-.036.168-.18v-5.196h-2.676v-.78h4.572v-1.044h-3.708v-.72h3.708v-1.032h-3.948v-.756h4.764v3.552h.984v.78h-2.856zm1.224 2.508l-.552-.396c.444-.444 1.056-1.176 1.392-1.692l.696.432a14.805 14.805 0 01-1.536 1.656zm8.436-5.784c-.084-.252-.192-.624-.3-.936l1.02-.132c.096.564.312 1.356.552 2.052.864-.12 1.86-.312 2.676-.588l.108.936c-.732.216-1.68.384-2.484.492.372.924.9 1.848 1.344 2.472.168.228.348.432.528.636l-.492.672c-.576-.132-2.028-.264-2.892-.324l.072-.804c.672.06 1.56.132 1.992.18-.468-.684-1.044-1.74-1.452-2.736-1.428.132-3.156.12-5.04-.024l-.024-.96c1.764.216 3.432.24 4.74.144-.144-.444-.264-.804-.348-1.08zm-2.544 4.764c-.36.576-.564 1.092-.564 1.668 0 1.14 1.044 1.644 2.82 1.656 1.224.012 2.256-.108 3.096-.3l-.048.96c-.744.132-1.764.264-3.096.264-2.28-.012-3.72-.84-3.72-2.472 0-.66.24-1.284.576-1.992l.936.216zm17.136-5.508c-.036.204-.048.612-.06.864-.012.552-.012 1.152-.024 1.68.48-.036.936-.06 1.332-.084.312-.024.648-.048.936-.06v.936c-.192-.012-.648 0-.948 0-.36.012-.816.036-1.344.072-.024.876-.048 1.944-.168 2.508-.108.528-.372.684-.924.684-.432 0-1.26-.108-1.584-.168l.024-.828c.408.096.924.156 1.2.156.288 0 .42-.048.456-.324.06-.396.108-1.212.132-1.968-1.236.096-2.64.24-3.84.36a116.429 116.429 0 000 2.952c.036 1.296.06 1.752 2.136 1.752 1.296 0 2.784-.144 3.564-.288l-.036 1.02c-.804.084-2.268.192-3.48.192-2.772 0-3.036-.636-3.096-2.544-.012-.516-.012-1.788-.012-2.988-.528.06-.972.108-1.284.144-.372.048-.888.12-1.212.168l-.108-.984c.372 0 .816-.024 1.248-.072.3-.024.78-.072 1.356-.12.012-.804.012-1.464.012-1.668 0-.372-.024-.648-.072-1.02h1.044c-.024.276-.048.6-.048.972 0 .396 0 .984-.012 1.62 1.176-.108 2.568-.24 3.852-.348v-1.716c0-.264-.024-.696-.06-.9h1.02zm4.14 1.284c.456-.012.84-.036 1.068-.06.78-.084 3.048-.312 5.256-.492 1.308-.12 2.436-.18 3.24-.216v.96c-.684 0-1.74.012-2.352.192-1.704.552-2.748 2.376-2.748 3.792 0 2.352 2.184 3.096 4.14 3.168l-.348.996c-2.22-.084-4.752-1.272-4.752-3.948 0-1.872 1.14-3.396 2.244-4.056-1.284.144-4.344.432-5.64.708l-.108-1.044zm13.656-.408a9.137 9.137 0 00-.096 1.164c-.012.756 0 1.848.084 2.844.192 2.004.78 3.336 1.632 3.336.612 0 1.176-1.248 1.488-2.448l.756.852c-.72 2.04-1.452 2.736-2.256 2.736-1.14 0-2.232-1.128-2.556-4.236-.108-1.044-.132-2.508-.132-3.204 0-.276-.012-.78-.084-1.068l1.164.024zm6.252.336c1.068 1.392 1.932 3.936 2.112 5.964l-.96.396c-.216-2.172-.936-4.632-2.088-6.036l.936-.324zm9.768 5.172a4.243 4.243 0 00-.168 1.08c0 .564.312 1.116 2.028 1.116.78 0 1.608-.084 2.34-.24l-.036.972c-.648.096-1.44.168-2.316.168-1.896 0-2.928-.576-2.928-1.764 0-.468.084-.912.18-1.416l.9.084zm-1.38-6.576c-.072.264-.168.72-.216.96-.048.252-.108.564-.18.888.78-.096 1.572-.24 2.304-.432v.948c-.78.18-1.656.312-2.496.408-.108.528-.24 1.08-.384 1.608-.432 1.704-1.248 4.176-1.872 5.496l-1.056-.36c.72-1.236 1.572-3.672 2.016-5.364.108-.396.216-.852.312-1.284-.396.024-.768.036-1.104.036-.528 0-.96-.024-1.392-.048l-.036-.936a10.87 10.87 0 001.44.084c.396 0 .828-.024 1.296-.06.084-.42.144-.804.18-1.044.048-.336.06-.744.036-.996l1.152.096zm1.128 3.66c.636-.06 1.428-.108 2.196-.108.708 0 1.428.036 2.076.108l-.024.912a15.172 15.172 0 00-2.016-.144c-.756 0-1.488.036-2.232.12v-.888zm11.892 3.084a4.243 4.243 0 00-.168 1.08c0 .564.312 1.116 2.028 1.116.78 0 1.608-.084 2.34-.24l-.036.972c-.648.096-1.44.18-2.316.18-1.896 0-2.928-.588-2.928-1.776 0-.456.072-.912.18-1.416l.9.084zm-1.38-6.564a15.2 15.2 0 00-.216.948c-.048.264-.12.564-.18.888.78-.096 1.572-.24 2.304-.42v.936c-.78.18-1.656.312-2.496.408-.12.528-.24 1.08-.384 1.608-.432 1.704-1.248 4.188-1.872 5.496l-1.056-.36c.72-1.236 1.572-3.672 2.016-5.364.108-.396.216-.852.312-1.284-.396.024-.768.036-1.104.036-.528 0-.96-.024-1.392-.048l-.036-.936a10.87 10.87 0 001.44.084c.396 0 .828-.024 1.296-.06.084-.42.144-.804.18-1.044.048-.336.06-.744.036-.984l1.152.096zm1.128 3.648c.636-.06 1.428-.108 2.196-.108.708 0 1.428.036 2.076.108l-.024.912a15.172 15.172 0 00-2.016-.144c-.756 0-1.488.048-2.232.132v-.9zm2.976-3.288c.312.432.744 1.164.984 1.656l-.648.288a13.714 13.714 0 00-.972-1.668l.636-.276zm1.32-.492c.324.456.792 1.2 1.02 1.656l-.648.288c-.264-.528-.66-1.212-.996-1.668l.624-.276zm4.296 1.02a9.137 9.137 0 00-.096 1.164c-.012.756 0 1.848.084 2.844.192 2.004.78 3.336 1.632 3.336.612 0 1.176-1.248 1.488-2.448l.756.852c-.72 2.04-1.452 2.736-2.256 2.736-1.14 0-2.232-1.128-2.556-4.236-.108-1.044-.132-2.508-.132-3.204 0-.276-.012-.78-.084-1.068l1.164.024zm6.252.336c1.068 1.392 1.932 3.936 2.112 5.964l-.96.396c-.216-2.172-.936-4.632-2.088-6.036l.936-.324zm9.768 5.172a4.243 4.243 0 00-.168 1.08c0 .564.312 1.116 2.028 1.116.78 0 1.608-.084 2.34-.24l-.036.972c-.648.096-1.44.168-2.316.168-1.896 0-2.928-.576-2.928-1.764 0-.468.084-.912.18-1.416l.9.084zm-1.38-6.576c-.072.264-.168.72-.216.96-.048.252-.108.564-.18.888.78-.096 1.572-.24 2.304-.432v.948c-.78.18-1.656.312-2.496.408-.108.528-.24 1.08-.384 1.608-.432 1.704-1.248 4.176-1.872 5.496l-1.056-.36c.72-1.236 1.572-3.672 2.016-5.364.108-.396.216-.852.312-1.284-.396.024-.768.036-1.104.036-.528 0-.96-.024-1.392-.048l-.036-.936a10.87 10.87 0 001.44.084c.396 0 .828-.024 1.296-.06.084-.42.144-.804.18-1.044.048-.336.06-.744.036-.996l1.152.096zm1.128 3.66c.636-.06 1.428-.108 2.196-.108.708 0 1.428.036 2.076.108l-.024.912a15.172 15.172 0 00-2.016-.144c-.756 0-1.488.036-2.232.12v-.888zm10.488-3.804a7.698 7.698 0 00-.084.828c-.012.288-.036.756-.048 1.296.876-.108 1.788-.276 2.472-.48l.024.936a22.03 22.03 0 01-2.52.42 81.24 81.24 0 00-.024 1.62v.42c.912-.288 1.848-.444 2.64-.444 1.752 0 3.012.948 3.012 2.388 0 1.452-.912 2.376-2.556 2.772-.54.12-1.068.144-1.488.168l-.336-.972c.444.012.96.012 1.404-.084 1.056-.204 2.016-.768 2.016-1.872 0-1.02-.924-1.572-2.064-1.572-.9 0-1.752.168-2.616.468.024 1.02.048 2.088.048 2.604 0 1.116-.408 1.476-1.056 1.476-.936 0-2.496-.924-2.496-1.992 0-.996 1.248-2.04 2.628-2.628v-.684c0-.48 0-1.044.012-1.572-.336.024-.636.036-.888.036-.684 0-1.128-.012-1.536-.06l-.024-.912c.66.084 1.092.096 1.536.096.276 0 .588-.012.924-.036 0-.624.012-1.152.012-1.368 0-.24-.024-.648-.06-.852h1.068zm3.72 1.332c.852.456 2.16 1.272 2.748 1.752l-.492.768c-.588-.564-1.92-1.392-2.688-1.8l.432-.72zm-6.456 6.6c0 .552.84 1.02 1.308 1.02.276 0 .444-.192.444-.588 0-.432-.024-1.248-.036-2.124-.984.456-1.716 1.152-1.716 1.692zm11.628-6.48v1.416h-.852v-2.244h4.548v-1.068h.9v1.068h4.596v2.244h-.888v-1.416h-8.304zm1.68 5.388h5.34a13.434 13.434 0 01-2.82-1.128c-.792.444-1.644.816-2.52 1.128zm.084 2.484h4.848v-1.74h-4.848v1.74zm.66-6.072l-.036.048c.468.552 1.092 1.032 1.824 1.452.72-.444 1.344-.948 1.824-1.5h-3.612zm4.38-.744l.6.372c-.576.888-1.404 1.656-2.364 2.304 1.344.624 2.964 1.044 4.656 1.26a3.623 3.623 0 00-.564.852 17.581 17.581 0 01-1.62-.324v3.504h-.9v-.384h-4.848v.396h-.852v-3.396a21.58 21.58 0 01-1.824.48 2.974 2.974 0 00-.444-.78c1.608-.288 3.3-.828 4.74-1.572a7.978 7.978 0 01-1.62-1.404 10.17 10.17 0 01-1.872 1.176 2.742 2.742 0 00-.6-.636c1.644-.732 2.808-1.776 3.408-2.7l.96.18c-.168.24-.348.48-.552.708h3.54l.156-.036zm7.968 3.336l-.492.66c-.168-.384-.588-1.128-.948-1.728V45.9h-.816v-5.604c-.396 1.308-.912 2.568-1.464 3.348-.096-.228-.312-.564-.456-.768.744-.996 1.476-2.868 1.824-4.5h-1.584v-.828h1.68v-2.592h.816v2.592h1.368v.828h-1.368v.756c.336.444 1.236 1.8 1.44 2.124zm2.424 1.656l.24.732c-.96.564-1.98 1.152-2.796 1.608l-.42-.744c.756-.384 1.884-.996 2.976-1.596zm-2.112-1.608l.612-.396c.468.468.996 1.116 1.236 1.548l-.648.456c-.228-.444-.744-1.116-1.2-1.608zm4.74 1.668l-.384-.288c.6.9 1.404 1.608 2.376 2.004-.18.168-.444.492-.576.72-1.128-.564-2.016-1.572-2.664-2.808v2.316c0 .48-.096.72-.408.864-.312.144-.852.156-1.596.156-.036-.228-.132-.6-.252-.816.528.012 1.044.012 1.2 0 .156 0 .192-.048.192-.204v-4.488h-3.024v-.756h3.024v-.924h-2.424v-.696h2.424V37.2h-2.772v-.732h1.5c-.132-.372-.384-.852-.6-1.236l.696-.228c.288.42.6 1.008.72 1.38l-.216.084h2.088l-.108-.036c.24-.408.54-1.056.696-1.488l.876.252c-.252.444-.516.912-.744 1.272h1.584v.732h-2.856v.852h2.592v.696h-2.592v.924h3.024v.756h-3.024v.48c.18.564.432 1.08.72 1.56.48-.432 1.116-1.116 1.476-1.608l.684.48c-.492.588-1.14 1.2-1.632 1.632zm7.704.588c0 .612.6.948 1.464.948 1.008 0 1.308-.516 1.308-1.308 0-.12 0-.264-.012-.42a4.084 4.084 0 00-1.224-.192c-.9 0-1.536.384-1.536.972zm3.636-7.8c-.036.24-.06.48-.072.72a116.4 116.4 0 00-.036 1.452c.732-.06 1.44-.156 2.076-.276v.924c-.66.108-1.356.18-2.076.228.012 1.212.096 2.412.144 3.42.972.384 1.752.984 2.376 1.548l-.528.804c-.6-.564-1.2-1.044-1.812-1.392v.252c0 .984-.456 1.932-2.076 1.932-1.608 0-2.496-.636-2.496-1.716 0-1.008.9-1.812 2.472-1.812.396 0 .768.036 1.116.108-.036-.924-.108-2.1-.12-3.084a36.89 36.89 0 01-1.152.024c-.684 0-1.308-.036-2.016-.084v-.9a22.568 22.568 0 003.168.072v-1.488c0-.204-.024-.528-.048-.732h1.08zm-5.928.072a6.24 6.24 0 00-.204.816c-.24 1.116-.6 3.492-.6 4.836 0 .576.036 1.08.12 1.668a41.8 41.8 0 01.684-1.764l.492.384c-.288.84-.732 2.064-.852 2.652a2.15 2.15 0 00-.048.54c0 .12.012.288.024.42l-.84.06c-.24-.852-.456-2.172-.456-3.792 0-1.764.396-4.056.552-5.052.036-.276.072-.6.072-.852l1.056.084zm15.36 7.74v1.26h4.14v.756h-9.048v-.756h4.02v-1.26h-2.448v-.732h2.448v-1.008h.888v1.008h2.508v.732h-2.508zm-2.58-3.732v.852h4.356v-.852h-4.356zm4.356-2.976h-4.356v.804h4.356v-.804zm-4.356 1.476v.828h4.356v-.828h-4.356zm7.572 3.108h-2.544c.672.792 1.692 1.488 2.7 1.848-.204.168-.456.48-.588.684-1.164-.48-2.328-1.476-3.048-2.532h-3.756c-.756 1.116-1.968 2.148-3.132 2.688a3.116 3.116 0 00-.576-.684 6.968 6.968 0 002.712-2.004h-2.592v-.756h2.376v-3.828h-1.824v-.744h1.824v-1.152h.876v1.152h4.356v-1.152h.9v1.152h1.8v.744h-1.8v3.828h2.316v.756zm11.796-3.084h-4.2c.996 2.052 2.724 3.96 4.608 4.872-.216.18-.528.528-.66.78-1.812-.996-3.42-2.82-4.5-4.896v3.672h2.28v.888h-2.28v2.232h-.924V43.68h-2.34v-.888h2.34V39.12c-1.104 2.076-2.724 3.888-4.488 4.908a3.604 3.604 0 00-.636-.72c1.824-.948 3.564-2.892 4.572-4.944h-4.164v-.888h4.716v-2.508h.924v2.508h4.752v.888zm4.14-3.432l.84.264c-.336.84-.768 1.692-1.236 2.496v8.28h-.852v-6.996c-.42.588-.876 1.116-1.32 1.56-.084-.204-.336-.672-.504-.864 1.212-1.14 2.376-2.928 3.072-4.74zm1.692 5.88h2.124c.012-.18.012-.36.012-.54v-1.236h-2.136v1.776zm5.22-1.776h-2.208v1.236c0 .18 0 .36-.012.54h2.22v-1.776zm.852 2.532h-3.12c-.096.828-.312 1.608-.792 2.304 1.2.66 2.712 1.068 4.416 1.272-.192.192-.408.54-.528.804-1.692-.252-3.192-.72-4.416-1.452-.6.588-1.464 1.092-2.712 1.464a3.335 3.335 0 00-.54-.744c1.176-.3 1.968-.708 2.532-1.212a6.426 6.426 0 01-1.74-1.944l.744-.24c.36.624.876 1.152 1.512 1.596.384-.552.564-1.188.648-1.848h-2.904V38.28h2.964v-1.176h-3.312v-.816h3.312v-1.272h.876v1.272h3.456v.816h-3.456v1.176h3.06v3.288zm7.392-.156h3.228V39.42h-3.228v1.992zm-3.804 0h2.916V39.42h-2.868v.708c0 .396-.012.84-.048 1.284zm2.916-4.752h-2.868v1.92h2.868v-1.92zm4.116 1.92v-1.92h-3.228v1.92h3.228zm.876-2.772v8.904c0 .576-.156.84-.54.996-.408.144-1.104.156-2.232.144-.036-.24-.18-.624-.3-.864.84.036 1.656.024 1.872.024.24-.012.324-.084.324-.312v-2.436h-3.228v3.54h-.888v-3.54h-3c-.18 1.332-.588 2.7-1.5 3.72-.132-.18-.492-.48-.684-.588 1.32-1.488 1.44-3.6 1.44-5.268v-4.32h8.736zM8.534 54.272l-.456.684c-.384-.456-1.2-1.104-1.884-1.548l.456-.6c.672.408 1.5 1.02 1.884 1.464zm-.516 2.868l-.444.72c-.42-.444-1.272-1.056-1.992-1.44l.42-.624c.708.372 1.596.912 2.016 1.344zM4.55 52.676l.768.192c-.288.9-.66 2.028-.984 2.7l-.576-.192c.276-.708.612-1.896.792-2.7zm-2.496 2.676l-.708.192c-.06-.72-.336-1.824-.648-2.664l.648-.156c.348.828.624 1.908.708 2.628zm1.308 1.452v.168c.336.372 1.536 1.956 1.8 2.364l-.588.696c-.216-.444-.78-1.368-1.212-2.04v4.92h-.828V57.98C2.09 59.264 1.478 60.596.878 61.4a5.38 5.38 0 00-.456-.864c.696-.84 1.452-2.388 1.872-3.732H.614v-.84h1.92v-3.96h.828v3.96h1.956v.84H3.362zm8.184 2.46l-1.548.276v3.372h-.84v-3.216l-3.72.672-.144-.828 3.864-.684v-6.888h.84V58.7l1.416-.252.132.816zm9.768-7.02l.936.336c-.48.924-1.116 2.016-1.608 2.712l-.78-.312c.492-.708 1.128-1.884 1.452-2.736zm-5.28 2.688l-.852.36c-.24-.708-.816-1.848-1.38-2.688l.804-.324c.576.828 1.188 1.932 1.428 2.652zm7.308 3.696v.876h-4.92v3.384h-.912v-3.384h-4.824v-.876h4.824v-1.932h-4.056v-.876h4.056v-3.852h.912v3.852h4.224v.876h-4.224v1.932h4.92zm4.128.684h2.688v-2.376H27.47v2.376zm7.932 0v.864h-4.344v2.748h-.9v-2.748h-5.544v-.864h1.968v-3.216h3.576v-1.824h-2.916c-.54.924-1.176 1.74-1.824 2.364-.168-.144-.54-.444-.768-.564 1.128-.984 2.136-2.532 2.7-4.14l.9.216c-.168.42-.36.852-.552 1.26h7.152v.864h-3.792v1.824h3.516v.84h-3.516v2.376h4.344zm5.196-6.144h-2.592v.996h2.592v-.996zm-2.592 2.712h2.592v-1.056h-2.592v1.056zm3.444.684h-3.444v6.36h-.888V52.472h4.332v4.092zm1.932 1.596h-2.82v1.104h2.82V58.16zm-2.82 2.94h2.82v-1.164h-2.82V61.1zm3.648.708h-3.648v.6h-.804v-4.944h4.452v4.344zm-.84-5.916h2.688v-1.068H43.37v1.068zm2.688-2.724H43.37v.996h2.688v-.996zm.9-.696v9.264c0 .564-.132.864-.528 1.02-.384.144-1.02.156-2.016.156a3.287 3.287 0 00-.312-.912c.732.036 1.464.024 1.68.012.204 0 .276-.072.276-.288v-5.148h-3.54v-4.104h4.44zm9.852 3.684v-2.028h-1.404v2.028h1.404zm0 2.844v-2.052h-1.404V59h1.404zm-5.652-2.052V59h1.332v-2.052h-1.332zm3.48 0h-1.392V59h1.392v-2.052zm-1.392-.792h1.392v-2.028h-1.392v2.028zm-2.088-2.028v2.028h1.332v-2.028h-1.332zm-.804 2.028v-1.548c-.348.396-.72.768-1.08 1.068-.168-.168-.516-.468-.732-.588 1.032-.756 1.992-1.92 2.556-3.132l.852.252c-.18.384-.396.768-.636 1.128h7.572v.792H57.65v2.028h1.68v.792h-1.68V59h1.512v.804H48.878V59h1.476v-2.052h-1.668v-.792h1.668zm-.912 6.768l-.84-.348c.624-.492 1.188-1.404 1.488-2.268l.828.204c-.288.9-.828 1.848-1.476 2.412zm2.724-2.316l.816-.084c.144.708.276 1.62.288 2.16l-.852.12a14.509 14.509 0 00-.252-2.196zm2.424.012l.828-.156c.324.684.648 1.608.768 2.172l-.864.18c-.12-.564-.432-1.488-.732-2.196zm2.436-.084l.816-.276c.6.72 1.308 1.704 1.632 2.352l-.888.324c-.288-.636-.972-1.656-1.56-2.4zm11.508-6.264l-.456.684c-.384-.456-1.2-1.104-1.884-1.548l.456-.6c.672.408 1.5 1.02 1.884 1.464zm-.516 2.868l-.444.72c-.42-.444-1.272-1.056-1.992-1.44l.42-.624c.708.372 1.596.912 2.016 1.344zm-3.468-4.464l.768.192c-.288.9-.66 2.028-.984 2.7l-.576-.192c.276-.708.612-1.896.792-2.7zm-2.496 2.676l-.708.192c-.06-.72-.336-1.824-.648-2.664l.648-.156c.348.828.624 1.908.708 2.628zm1.308 1.452v.168c.336.372 1.536 1.956 1.8 2.364l-.588.696c-.216-.444-.78-1.368-1.212-2.04v4.92h-.828V57.98c-.444 1.284-1.056 2.616-1.656 3.42a5.38 5.38 0 00-.456-.864c.696-.84 1.452-2.388 1.872-3.732h-1.68v-.84h1.92v-3.96h.828v3.96h1.956v.84h-1.956zm8.184 2.46l-1.548.276v3.372h-.84v-3.216l-3.72.672-.144-.828 3.864-.684v-6.888h.84V58.7l1.416-.252.132.816zm1.404-5.16c.456-.012.84-.036 1.068-.06.78-.084 3.048-.312 5.256-.492a90.48 90.48 0 013.24-.216v.96c-.684 0-1.74.012-2.352.192-1.704.552-2.748 2.376-2.748 3.804 0 2.34 2.184 3.084 4.14 3.156l-.348.996c-2.22-.084-4.752-1.272-4.752-3.948 0-1.872 1.14-3.396 2.244-4.056-1.284.144-4.344.432-5.64.708l-.108-1.044zm7.836 1.668c.276.396.732 1.14.984 1.668l-.612.288c-.276-.576-.624-1.2-.984-1.692l.612-.264zm1.308-.504c.288.396.768 1.128 1.044 1.656l-.624.3a11.122 11.122 0 00-1.008-1.68l.588-.276zm12.072.528h-2.184v.996h2.184v-.996zm-2.184 2.7h2.184v-1.044h-2.184v1.044zm-.78 2.652V56.06c-.276.36-.564.684-.888.972a5.617 5.617 0 00-.6-.588c.732-.6 1.308-1.416 1.728-2.376h-1.44V53.3h1.74c.144-.432.264-.876.36-1.344l.804.144c-.096.42-.192.816-.324 1.2h2.88v.768h-3.156a8.38 8.38 0 01-.492 1.044h3.156v5.232c0 .372-.072.576-.336.684-.252.132-.66.132-1.26.132-.024-.192-.132-.48-.216-.684.396.012.744.012.852.012.12-.012.156-.048.156-.144v-1.188h-2.184v1.992h-.78zm-1.188-6.516l-.732.384c-.168-.588-.684-1.512-1.188-2.172l.696-.324c.504.648 1.032 1.524 1.224 2.112zm-2.544-2.196l.576.336A77.183 77.183 0 0187.038 56c.732 1.008.9 1.896.9 2.652 0 .624-.132 1.152-.432 1.38-.156.12-.336.192-.564.216-.18.024-.42.024-.66.024a2.184 2.184 0 00-.192-.792c.216.024.408.036.552.024a.543.543 0 00.312-.108c.156-.12.204-.468.204-.852 0-.66-.156-1.488-.876-2.46.3-.876.588-1.98.792-2.808h-1.296v9.636h-.78v-10.44h2.352l.12-.036zm2.292 4.296v3.756c.396.852 1.14 1.404 2.22 1.452.876.036 2.628.012 3.6-.06a4.178 4.178 0 00-.24.804c-.9.06-2.496.072-3.396.024-1.212-.06-2.028-.612-2.544-1.512-.48.552-.972 1.08-1.5 1.644l-.468-.768c.48-.42 1.044-.972 1.56-1.524v-3.072h-1.092v-.744h1.86zm9.756-3.18h-1.74v2.664h1.74v-2.664zm-1.74 6.216h1.74v-2.772h-1.74v2.772zm2.58-7.02v7.824h-2.58v.972h-.816v-8.796h3.396zm.984 6.72l.72-.408c.612.6 1.284 1.452 1.56 2.04l-.756.48c-.276-.588-.912-1.476-1.524-2.112zm6.192-2.976h-1.524v1.356h1.392v.792h-1.392v3.216c0 .504-.132.768-.492.9-.372.132-.972.144-1.944.144-.036-.24-.156-.6-.288-.828.744.024 1.404.024 1.596.012.204-.012.264-.06.264-.24V58.64h-4.536v-.792h4.536v-1.356h-4.596V55.7h3.012v-1.524h-2.496v-.792h2.496v-1.428h.876v1.428h2.58v.792h-2.58V55.7h3.096v.792zm3.072-2.784c.864.096 1.968.144 3.168.144 1.152 0 2.376-.072 3.24-.168v.984c-.816.06-2.124.144-3.228.144-1.212 0-2.232-.048-3.18-.132v-.972zm.48 4.836c-.156.468-.24.912-.24 1.356 0 .924.924 1.548 2.844 1.548 1.656 0 3.204-.18 4.104-.468l.012 1.032c-.852.24-2.376.42-4.092.42-2.436 0-3.852-.804-3.852-2.316 0-.624.132-1.188.252-1.668l.972.096zm6.264-6.18c.3.432.732 1.176.984 1.656l-.648.3c-.24-.492-.648-1.224-.984-1.68l.648-.276zm1.32-.48c.324.444.78 1.2 1.02 1.644l-.66.288c-.252-.516-.648-1.2-.996-1.656l.636-.276zm3.168 1.728v.96h-.84v-1.716h4.548v-.888h.876v.888h4.632v1.716h-.852v-.96h-8.364zm6.072 1.98h-3.36c-.204.264-.408.528-.6.768a57.5 57.5 0 012.592.564c.66-.348 1.08-.792 1.368-1.332zm-4.656 1.608l-.828-.264c.336-.372.72-.852 1.116-1.344h-2.676v-.732h3.24c.3-.384.576-.768.816-1.104l.828.24c-.192.276-.408.564-.636.864h6.072v.732h-2.304c-.3.636-.72 1.164-1.32 1.596 1.164.3 2.256.636 3.048.924l-.54.648c-.816-.336-2.064-.72-3.396-1.08-1.176.528-2.832.84-5.196 1.008a2.747 2.747 0 00-.288-.708c1.86-.12 3.228-.312 4.236-.612-.66-.168-1.32-.312-1.944-.444l-.228.276zm8.1 2.772h-4.188c1.092.924 2.844 1.704 4.452 2.052-.192.18-.444.516-.576.744-1.668-.456-3.492-1.404-4.632-2.556V62.9h-.876v-2.64c-1.116 1.116-2.88 2.052-4.524 2.496-.12-.216-.372-.564-.564-.72 1.596-.36 3.336-1.152 4.392-2.064h-4.164v-.744h4.86v-.996h.876v.996h4.944v.744zm11.448-5.964v7.728c0 .576-.132.864-.54 1.008-.42.156-1.164.156-2.232.156a3.31 3.31 0 00-.3-.9c.84.036 1.656.036 1.908.024.216-.012.288-.084.288-.3v-6.84h-3.48a8.247 8.247 0 01-.216 1.56c1.188 1.044 2.652 2.448 3.384 3.336l-.732.576c-.612-.804-1.812-2.028-2.916-3.06-.444 1.152-1.308 2.268-2.916 3.216a3.717 3.717 0 00-.636-.672c2.64-1.404 3.072-3.384 3.144-4.956h-3.456v8.052h-.876v-8.928h4.344v-2.052h.888v2.052h4.344zm7.488-.516c-.084-.252-.192-.624-.3-.936l1.02-.132c.096.564.312 1.356.552 2.052.864-.12 1.86-.312 2.676-.588l.108.936c-.732.216-1.68.384-2.484.492.372.924.9 1.848 1.344 2.472.168.228.348.432.528.636l-.492.672c-.576-.132-2.028-.264-2.892-.324l.072-.804c.672.06 1.56.132 1.992.18-.468-.684-1.044-1.74-1.452-2.736-1.428.132-3.156.12-5.04-.024l-.024-.96c1.764.216 3.432.24 4.74.144-.144-.444-.264-.804-.348-1.08zm-2.544 4.764c-.36.576-.564 1.092-.564 1.668 0 1.14 1.044 1.644 2.82 1.656 1.224.012 2.256-.108 3.096-.3l-.048.96c-.744.132-1.764.264-3.096.264-2.28-.012-3.72-.84-3.72-2.472 0-.66.24-1.284.576-1.992l.936.216zm17.136-5.508c-.036.204-.048.612-.06.864-.012.552-.012 1.152-.024 1.68.48-.036.936-.06 1.332-.084.312-.024.648-.048.936-.06v.936c-.192-.012-.648 0-.948 0-.36.012-.816.036-1.344.072-.024.876-.048 1.944-.168 2.508-.108.528-.372.684-.924.684-.432 0-1.26-.108-1.584-.168l.024-.828c.408.096.924.156 1.2.156.288 0 .42-.048.456-.324.06-.396.108-1.212.132-1.968-1.236.096-2.64.24-3.84.36a116.429 116.429 0 000 2.952c.036 1.296.06 1.752 2.136 1.752 1.296 0 2.784-.144 3.564-.288l-.036 1.02c-.804.084-2.268.192-3.48.192-2.772 0-3.036-.636-3.096-2.544-.012-.516-.012-1.788-.012-2.988-.528.06-.972.108-1.284.144-.372.048-.888.12-1.212.168l-.108-.984c.372 0 .816-.024 1.248-.072.3-.024.78-.072 1.356-.12.012-.804.012-1.464.012-1.668 0-.372-.024-.648-.072-1.02h1.044c-.024.276-.048.6-.048.972 0 .396 0 .984-.012 1.62 1.176-.108 2.568-.24 3.852-.348v-1.716c0-.264-.024-.696-.06-.9h1.02zm4.14 1.284c.456-.012.84-.036 1.068-.06.78-.084 3.048-.312 5.256-.492 1.308-.12 2.436-.18 3.24-.216v.96c-.684 0-1.74.012-2.352.192-1.704.552-2.748 2.376-2.748 3.792 0 2.352 2.184 3.096 4.14 3.168l-.348.996c-2.22-.084-4.752-1.272-4.752-3.948 0-1.872 1.14-3.396 2.244-4.056-1.284.144-4.344.432-5.64.708l-.108-1.044zm13.656-.408a9.137 9.137 0 00-.096 1.164c-.012.756 0 1.848.084 2.844.192 2.004.78 3.336 1.632 3.336.612 0 1.176-1.248 1.488-2.448l.756.852c-.72 2.04-1.452 2.736-2.256 2.736-1.14 0-2.232-1.128-2.556-4.236-.108-1.044-.132-2.508-.132-3.204 0-.276-.012-.78-.084-1.068l1.164.024zm6.252.336c1.068 1.392 1.932 3.936 2.112 5.964l-.96.396c-.216-2.172-.936-4.632-2.088-6.036l.936-.324zm9.768 5.172a4.243 4.243 0 00-.168 1.08c0 .564.312 1.116 2.028 1.116.78 0 1.608-.084 2.34-.24l-.036.972c-.648.096-1.44.168-2.316.168-1.896 0-2.928-.576-2.928-1.764 0-.468.084-.912.18-1.416l.9.084zm-1.38-6.576c-.072.264-.168.72-.216.96-.048.252-.108.564-.18.888.78-.096 1.572-.24 2.304-.432v.948c-.78.18-1.656.312-2.496.408-.108.528-.24 1.08-.384 1.608-.432 1.704-1.248 4.176-1.872 5.496l-1.056-.36c.72-1.236 1.572-3.672 2.016-5.364.108-.396.216-.852.312-1.284a18.433 18.433 0 01-2.496-.012l-.036-.936a10.87 10.87 0 001.44.084c.396 0 .828-.024 1.296-.06.084-.42.144-.804.18-1.044.048-.336.06-.744.036-.996l1.152.096zm1.128 3.66c.636-.06 1.428-.108 2.196-.108.708 0 1.428.036 2.076.108l-.024.912a15.172 15.172 0 00-2.016-.144c-.756 0-1.488.036-2.232.12v-.888zm11.892 3.084a4.243 4.243 0 00-.168 1.08c0 .564.312 1.116 2.028 1.116.78 0 1.608-.084 2.34-.24l-.036.972c-.648.096-1.44.18-2.316.18-1.896 0-2.928-.588-2.928-1.776 0-.456.072-.912.18-1.416l.9.084zm-1.38-6.564a15.2 15.2 0 00-.216.948c-.048.264-.12.564-.18.888.78-.096 1.572-.24 2.304-.42v.936c-.78.18-1.656.312-2.496.408-.12.528-.24 1.08-.384 1.608-.432 1.704-1.248 4.188-1.872 5.496l-1.056-.36c.72-1.236 1.572-3.672 2.016-5.364.108-.396.216-.852.312-1.284-.396.024-.768.036-1.104.036-.528 0-.96-.024-1.392-.048l-.036-.936a10.87 10.87 0 001.44.084c.396 0 .828-.024 1.296-.06.084-.42.144-.804.18-1.044.048-.336.06-.744.036-.984l1.152.096zm1.128 3.648c.636-.06 1.428-.108 2.196-.108.708 0 1.428.036 2.076.108l-.024.912a15.172 15.172 0 00-2.016-.144c-.756 0-1.488.048-2.232.132v-.9zm2.976-3.288c.312.432.744 1.164.984 1.656l-.648.288a13.714 13.714 0 00-.972-1.668l.636-.276zm1.32-.492c.324.456.792 1.2 1.02 1.656l-.648.288c-.264-.528-.66-1.212-.996-1.668l.624-.276zm7.644 1.02c-.096-.36-.216-.732-.336-1.068l1.02-.132c.048.456.156.948.288 1.428a13.353 13.353 0 002.46-.54l.132.864c-.684.192-1.536.372-2.364.48.084.3.18.576.264.828.084.228.18.48.276.72.996-.12 1.836-.336 2.4-.516l.144.9c-.576.156-1.332.312-2.172.432.252.516.528 1.032.84 1.488.132.192.276.348.444.516l-.492.732c-.672-.18-1.8-.288-2.628-.384l.084-.732c.636.072 1.416.156 1.8.204-.36-.552-.672-1.14-.936-1.728-1.464.132-3.432.156-5.28.024l-.048-.9a26.9 26.9 0 004.98.06c-.084-.216-.168-.42-.24-.624-.12-.336-.228-.648-.324-.936-1.164.072-2.628.048-4.128-.084l-.06-.876c1.44.168 2.808.204 3.96.144-.036-.096-.06-.204-.084-.3zm-2.364 5.196c-.288.42-.504.828-.504 1.356 0 .996.888 1.488 2.772 1.488 1.116 0 1.992-.072 2.856-.252l-.036.96a18.25 18.25 0 01-2.808.204c-2.352 0-3.672-.696-3.684-2.232-.012-.684.204-1.188.468-1.716l.936.192zm11.412 1.92c0 .552.48.972 1.668.972.684 0 1.272-.216 1.272-1.044 0-.204-.012-.492-.012-.804a5.322 5.322 0 00-1.164-.12c-1.14 0-1.764.444-1.764.996zm3.804-8.268c-.036.216-.06.456-.072.804 0 .156-.012.42-.012.732a29.837 29.837 0 003.252-.324l-.012.876c-.948.108-2.088.216-3.24.276v1.68a29.86 29.86 0 003.348-.324l-.012.9a34.16 34.16 0 01-3.324.276c.024.624.06 1.272.084 1.848 1.596.432 2.82 1.308 3.504 1.872l-.552.852c-.708-.648-1.704-1.38-2.904-1.812.012.3.024.552.024.744 0 .828-.552 1.68-2.112 1.68-1.728 0-2.664-.612-2.664-1.764 0-1.092 1.044-1.836 2.772-1.836.348 0 .684.024 1.008.072-.012-.54-.036-1.116-.048-1.632h-.684c-.816 0-2.136-.072-3-.168l-.012-.9c.864.144 2.232.228 3.024.228h.648v-1.68h-.528c-.84 0-2.316-.12-3.072-.204l-.012-.888c.78.144 2.268.264 3.072.264h.552v-.852c0-.204-.024-.552-.048-.72h1.02zm12.648.024c-.024.132-.048.6-.06.756 0 .18-.012.456-.012.78h.18c1.464 0 2.94.012 3.516.012l-.012.888c-.672-.036-1.764-.06-3.516-.06h-.168c0 .684.012 1.428.024 1.98.252.408.384.936.384 1.536 0 1.62-.792 3.42-3.588 4.26l-.804-.792c1.596-.36 2.7-1.032 3.18-2.124-.288.216-.636.324-1.044.324-1.008 0-1.968-.696-1.968-2.004 0-1.188.972-2.088 2.112-2.088.3 0 .564.048.804.132 0-.36 0-.792-.012-1.212a88.575 88.575 0 00-5.364.204l-.024-.924c1.332-.024 3.588-.096 5.376-.12 0-.336-.012-.624-.024-.792-.012-.312-.06-.66-.072-.756h1.092zm-2.988 5.544c0 .744.552 1.188 1.224 1.188.708 0 1.164-.564 1.056-1.704-.192-.528-.6-.756-1.068-.756-.624 0-1.212.492-1.212 1.272zm8.597 1.032c1.02 0 1.836.816 1.836 1.824 0 1.02-.816 1.836-1.836 1.836a1.83 1.83 0 010-3.66zm0 3.048a1.219 1.219 0 100-2.436c-.66 0-1.212.552-1.212 1.212 0 .684.552 1.224 1.212 1.224z" fill="#000"/></svg>