<svg width="508" height="168" viewBox="0 0 508 168" fill="none" xmlns="http://www.w3.org/2000/svg">
<path d="M54.5354 33.256C53.8314 34.472 52.9354 36.2 52.4234 37.8C50.6954 43.56 47.0474 52.072 41.2234 59.176C35.1434 66.6 27.4634 72.488 15.4314 77.224L7.87939 70.504C20.9354 66.536 28.0394 60.968 33.6714 54.632C38.0234 49.64 41.7354 41.96 42.7594 37.224H21.1914L24.1354 29.928C26.9514 29.928 40.3914 29.928 42.3754 29.928C44.3594 29.928 46.5354 29.672 47.9434 29.16L54.5354 33.256ZM33.6714 23.08C32.1354 25.32 30.4714 28.264 29.7674 29.608C25.4154 37.352 17.7994 46.376 8.58339 52.648L1.41539 47.336C12.6154 40.488 18.2474 32.232 21.3834 26.728C22.3434 25.192 23.6874 22.248 24.2634 20.008L33.6714 23.08Z" fill="#4899EE"/>
<path d="M112.327 23.336C112.199 25.128 112.135 27.176 112.135 29.8C112.135 33.064 112.135 39.272 112.135 42.408C112.135 56.232 109.447 62.12 104.647 67.368C100.423 72.04 93.8314 75.112 89.1594 76.648L82.4394 69.544C88.8394 68.072 93.9594 65.64 97.8634 61.48C102.215 56.68 103.111 51.88 103.111 41.896C103.111 38.696 103.111 32.552 103.111 29.8C103.111 27.176 102.919 25.128 102.663 23.336H112.327ZM82.6954 23.912C82.5674 25.384 82.4394 26.792 82.4394 28.776C82.4394 31.592 82.4394 46.824 82.4394 50.408C82.4394 52.008 82.5674 54.504 82.6954 55.976H73.3514C73.4794 54.824 73.6714 52.328 73.6714 50.344C73.6714 46.696 73.6714 31.592 73.6714 28.776C73.6714 27.624 73.6074 25.384 73.4154 23.912H82.6954Z" fill="#4899EE"/>
<path d="M135.815 29.544C138.183 29.8 141.127 29.928 143.367 29.928C148.743 29.928 166.343 29.928 169.863 29.928C172.423 29.928 175.111 29.8 176.967 29.544V38.824C175.111 38.76 172.103 38.632 169.863 38.632C166.471 38.632 146.951 38.632 143.367 38.632C140.935 38.632 137.991 38.76 135.815 38.824V29.544ZM130.439 60.904C132.935 61.032 135.943 61.288 138.503 61.288C142.535 61.288 171.207 61.288 175.239 61.288C177.351 61.288 180.103 61.096 182.279 60.904V70.696C179.975 70.44 177.095 70.248 175.239 70.248C171.207 70.248 142.535 70.248 138.503 70.248C135.943 70.248 132.871 70.44 130.439 70.696V60.904Z" fill="#4899EE"/>
<path d="M221.255 35.048C222.471 37.736 225.607 46.12 226.503 49.064L218.887 51.688C218.055 48.616 215.239 40.872 213.703 37.544L221.255 35.048ZM244.871 39.656C244.167 41.768 243.783 43.112 243.399 44.392C241.735 50.856 238.983 57.512 234.631 63.08C228.679 70.824 220.743 76.136 213.255 79.016L206.535 72.168C213.511 70.248 222.471 65.384 227.719 58.728C232.071 53.352 235.207 44.84 235.911 36.776L244.871 39.656ZM206.407 38.376C208.007 41.64 211.143 49.448 212.359 53.032L204.551 55.912C203.527 52.52 200.263 43.944 198.727 41.192L206.407 38.376Z" fill="#4899EE"/>
<path d="M310.535 33.256C309.831 34.472 308.935 36.2 308.423 37.8C306.695 43.56 303.047 52.072 297.223 59.176C291.143 66.6 283.463 72.488 271.431 77.224L263.879 70.504C276.935 66.536 284.039 60.968 289.671 54.632C294.023 49.64 297.735 41.96 298.759 37.224H277.191L280.135 29.928C282.951 29.928 296.391 29.928 298.375 29.928C300.359 29.928 302.535 29.672 303.943 29.16L310.535 33.256ZM289.671 23.08C288.135 25.32 286.471 28.264 285.767 29.608C281.415 37.352 273.799 46.376 264.583 52.648L257.415 47.336C268.615 40.488 274.247 32.232 277.383 26.728C278.343 25.192 279.687 22.248 280.263 20.008L289.671 23.08Z" fill="#4899EE"/>
<path d="M321.415 29.16C323.911 29.096 326.471 28.968 327.687 28.84C332.999 28.328 343.559 27.432 355.271 26.408C361.927 25.896 368.903 25.448 373.447 25.256L373.511 33.512C370.055 33.512 364.551 33.576 361.095 34.344C353.415 36.392 347.591 44.712 347.591 52.328C347.591 62.824 357.447 66.664 368.263 67.176L365.255 75.944C351.879 75.112 339.207 67.88 339.207 53.992C339.207 44.84 344.391 37.544 348.679 34.28C342.727 34.92 329.607 36.328 322.247 37.928L321.415 29.16ZM364.359 39.784C365.895 42.024 368.199 45.928 369.415 48.488L364.615 50.6C362.951 47.144 361.607 44.584 359.623 41.768L364.359 39.784ZM371.463 36.84C373.127 39.08 375.559 42.856 376.903 45.352L372.103 47.656C370.375 44.2 368.903 41.768 366.855 38.952L371.463 36.84Z" fill="#4899EE"/>
<path d="M418.823 29.16C417.927 35.688 416.647 43.176 414.407 50.728C410.567 63.656 405.063 71.592 398.087 71.592C390.919 71.592 385.031 63.72 385.031 52.904C385.031 38.184 397.895 25.512 414.471 25.512C430.279 25.512 440.327 36.52 440.327 50.536C440.327 63.976 432.071 73.512 415.943 76.008L411.079 68.456C413.575 68.136 415.367 67.816 417.095 67.432C425.223 65.448 431.623 59.624 431.623 50.216C431.623 40.168 425.351 33 414.279 33C400.711 33 393.287 44.072 393.287 52.136C393.287 58.6 395.847 61.736 398.279 61.736C401.031 61.736 403.463 57.64 406.151 49C408.007 42.984 409.415 35.624 410.055 28.904L418.823 29.16Z" fill="#4899EE"/>
<path d="M10.4394 145.256H46.7914V149.8H10.4394V145.256ZM10.5034 137.256H51.2074V157.8H10.5034V152.616H43.5914V142.376H10.5034V137.256ZM24.6474 140.072H32.0074V157.992C32.0074 160.36 32.7114 160.744 36.6154 160.744C38.4074 160.744 46.4714 160.744 48.7754 160.744C51.9754 160.744 52.6154 159.72 52.9994 154.28C54.5994 155.368 57.4794 156.328 59.4634 156.712C58.5674 164.52 56.3914 166.568 49.4154 166.568C47.3674 166.568 37.8314 166.568 35.9114 166.568C27.0794 166.568 24.6474 164.712 24.6474 157.992V140.072ZM6.66339 137.256H14.0234V160.616H6.66339V137.256ZM5.12739 108.968H52.6154V114.6H5.12739V108.968ZM10.0554 124.264H22.7274V128.424H10.0554V124.264ZM8.83939 130.664H22.7274V134.824H8.83939V130.664ZM34.9514 130.664H48.9674V134.824H34.9514V130.664ZM34.9514 124.264H47.4954V128.424H34.9514V124.264ZM25.0314 111.208H32.5194V135.528H25.0314V111.208ZM0.775391 116.968H57.2874V130.088H50.1834V122.088H7.55939V130.088H0.775391V116.968Z" fill="#4899EE"/>
<path d="M91.2074 140.904H120.711V166.504H113.031V147.816H98.4394V166.824H91.2074V140.904ZM116.231 107.304L121.607 113.704C112.903 116.264 101.127 117.736 91.0154 118.44C90.7594 116.584 89.7354 113.704 88.8394 111.976C98.5674 111.144 109.447 109.48 116.231 107.304ZM101.639 113.32H109.511V144.36H101.639V113.32ZM87.8154 125.224H123.335V132.456H87.8154V125.224ZM96.0714 156.776H116.679V163.688H96.0714V156.776ZM65.9914 126.76H85.3194V132.52H65.9914V126.76ZM66.3754 108.648H85.3194V114.472H66.3754V108.648ZM65.9914 135.72H85.3194V141.48H65.9914V135.72ZM62.8554 117.544H87.3674V123.56H62.8554V117.544ZM69.7674 144.744H85.6394V164.2H69.7674V158.184H79.0474V150.824H69.7674V144.744ZM65.7994 144.744H72.2634V166.76H65.7994V144.744Z" fill="#4899EE"/>
<path d="M128.583 145.832H185.671V152.104H128.583V145.832ZM128.711 117.096H185.415V123.432H128.711V117.096ZM131.335 128.552H182.983V134.568H131.335V128.552ZM134.535 137.384H179.975V142.952H134.535V137.384ZM153.095 131.624H160.711V166.76H153.095V131.624ZM147.527 106.6H154.695V120.104H147.527V106.6ZM159.367 106.6H166.663V119.656H159.367V106.6ZM151.687 148.648L157.703 151.336C151.623 157.992 141.383 163.432 131.527 165.992C130.503 164.136 128.263 161.192 126.599 159.592C136.263 157.736 146.439 153.512 151.687 148.648ZM162.247 148.456C167.431 153.512 177.415 157.48 187.399 159.144C185.671 160.744 183.367 163.944 182.215 166.056C172.103 163.496 162.311 158.056 156.295 150.824L162.247 148.456ZM174.087 107.112L182.151 109.032C180.103 112.552 177.927 116.008 176.263 118.376L170.055 116.456C171.527 113.832 173.191 109.928 174.087 107.112ZM165.639 120.872L173.767 122.728C172.039 125.8 170.375 128.616 169.031 130.664L162.503 128.808C163.655 126.504 164.999 123.24 165.639 120.872ZM133.319 109.16L139.911 106.92C141.767 109.672 143.879 113.512 144.775 116.008L137.799 118.504C137.095 116.008 135.047 112.104 133.319 109.16ZM141.447 123.496L148.871 122.344C149.959 124.136 151.175 126.632 151.687 128.36L143.879 129.704C143.495 128.04 142.407 125.352 141.447 123.496Z" fill="#4899EE"/>
<path d="M192.391 109.544H213.383V116.008H192.391V109.544ZM217.991 142.504H244.039V148.904H217.991V142.504ZM191.495 129.128H215.303V135.848H191.495V129.128ZM201.927 131.88H209.223V158.504C209.223 161.96 208.647 164.008 206.407 165.224C204.231 166.376 201.351 166.504 197.319 166.504C197.127 164.456 196.103 161.256 195.143 159.208C197.511 159.336 200.135 159.336 200.903 159.336C201.671 159.272 201.927 159.08 201.927 158.376V131.88ZM241.543 142.504H249.287C249.287 142.504 249.223 144.424 249.095 145.448C248.007 156.52 246.919 161.512 245.063 163.496C243.655 165.032 242.247 165.544 240.391 165.8C238.791 165.992 236.103 166.056 233.159 165.928C233.031 163.816 232.263 160.808 231.111 158.888C233.415 159.08 235.527 159.144 236.551 159.144C237.511 159.144 238.087 159.08 238.663 158.44C239.815 157.352 240.775 153.32 241.543 143.528V142.504ZM227.975 136.808H235.591C234.567 149.928 231.879 160.808 216.711 166.824C215.879 164.968 213.895 162.28 212.295 160.872C225.543 156.008 227.079 147.24 227.975 136.808ZM193.863 122.92L198.663 117.992C203.847 119.848 210.887 123.176 214.535 125.736L209.351 131.24C206.087 128.68 199.175 125.032 193.863 122.92ZM213.447 129.128H214.471L215.495 128.808L220.103 130.344C219.079 136.168 217.415 142.76 215.687 147.112L210.567 144.68C211.719 140.968 212.871 135.016 213.447 130.216V129.128ZM239.111 116.264L247.111 117.48C242.759 129.384 233.223 135.528 220.679 139.112C219.783 137.384 217.415 134.248 215.879 132.712C227.655 130.344 236.167 125.416 239.111 116.264ZM226.311 106.6L233.479 108.584C230.279 115.496 225.095 122.152 220.295 126.312C218.823 125.096 215.815 122.984 214.023 122.024C219.015 118.376 223.751 112.552 226.311 106.6ZM227.207 117.928C231.623 125.224 240.583 130.536 251.783 132.648C250.119 134.184 247.943 137.192 246.919 139.176C235.079 136.168 226.183 129.512 220.807 119.976L227.207 117.928ZM201.223 131.432L206.151 133.352C203.719 141.864 199.431 151.528 193.991 156.456C193.287 154.28 191.623 151.08 190.407 149.032C195.079 145.064 199.239 137.832 201.223 131.432ZM226.119 113.128H250.055V119.464H223.047L226.119 113.128ZM211.527 109.544H213.191L214.343 109.288L219.271 112.36C216.391 117.032 211.335 122.152 206.727 125.352C205.383 124.2 203.207 122.6 201.735 121.704C205.703 118.888 209.799 114.152 211.527 110.888V109.544Z" fill="#4899EE"/>
<path d="M290.823 117.16C289.927 123.688 288.647 131.176 286.407 138.728C282.567 151.656 277.063 159.592 270.087 159.592C262.919 159.592 257.031 151.72 257.031 140.904C257.031 126.184 269.895 113.512 286.471 113.512C302.279 113.512 312.327 124.52 312.327 138.536C312.327 151.976 304.071 161.512 287.943 164.008L283.079 156.456C285.575 156.136 287.367 155.816 289.095 155.432C297.223 153.448 303.623 147.624 303.623 138.216C303.623 128.168 297.351 121 286.279 121C272.711 121 265.287 132.072 265.287 140.136C265.287 146.6 267.847 149.736 270.279 149.736C273.031 149.736 275.463 145.64 278.151 137C280.007 130.984 281.415 123.624 282.055 116.904L290.823 117.16Z" fill="#4899EE"/>
<path d="M331.399 128.936H366.215V136.04H331.399V128.936ZM331.399 142.632H366.215V149.736H331.399V142.632ZM331.399 156.392H366.215V163.496H331.399V156.392ZM326.151 114.984H372.679V166.568H364.487V122.344H333.959V166.696H326.151V114.984ZM344.327 106.6L353.607 107.56C352.071 111.848 350.215 116.072 348.807 118.888L341.767 117.608C342.791 114.408 343.879 109.928 344.327 106.6Z" fill="#4899EE"/>
<path d="M384.711 148.072H414.599V153.512H384.711V148.072ZM383.239 117.608H415.239V123.176H383.239V117.608ZM395.975 113.064H402.887V158.952H395.975V113.064ZM382.919 158.248C390.855 157.672 403.079 156.776 414.599 155.752L414.663 161.576C403.783 162.728 392.135 163.88 383.815 164.648L382.919 158.248ZM391.047 137.832V140.776H407.943V137.832H391.047ZM391.047 130.472V133.352H407.943V130.472H391.047ZM384.903 125.672H414.279V145.576H384.903V125.672ZM411.143 106.984L414.535 112.744C406.343 114.408 394.695 115.368 385.095 115.56C384.839 114.024 384.135 111.592 383.431 110.12C392.967 109.672 404.103 108.52 411.143 106.984ZM415.239 121.128H437.383V128.168H415.239V121.128ZM434.311 121.128H441.671C441.671 121.128 441.607 123.624 441.607 124.52C441.031 150.888 440.519 160.232 438.407 163.112C436.999 165.288 435.527 165.992 433.415 166.376C431.431 166.76 428.423 166.76 425.415 166.632C425.223 164.52 424.391 161.384 423.175 159.336C425.927 159.592 428.359 159.592 429.639 159.592C430.599 159.592 431.239 159.4 431.815 158.504C433.287 156.584 433.799 147.56 434.311 122.792V121.128ZM421.383 107.752H428.743C428.679 135.08 428.615 155.624 413.831 167.272C412.743 165.416 410.247 162.792 408.519 161.512C422.023 151.208 421.319 133.288 421.383 107.752Z" fill="#4899EE"/>
<path d="M475.527 108.328H483.335V154.408C483.335 158.248 483.783 158.888 486.919 158.888C488.327 158.888 494.727 158.888 496.263 158.888C499.399 158.888 499.911 156.648 500.359 147.624C502.215 148.968 505.351 150.376 507.527 150.824C506.567 161.896 504.519 165.992 496.967 165.992C495.111 165.992 487.687 165.992 485.959 165.992C477.895 165.992 475.527 163.432 475.527 154.344V108.328ZM499.527 119.016L505.159 125.736C497.927 130.856 488.775 135.656 480.455 139.56C479.943 137.768 478.471 135.08 477.383 133.416C485.319 129.64 493.831 123.88 499.527 119.016ZM463.175 107.496L470.727 110.056C465.927 121.448 458.055 133.288 449.991 140.712C449.223 138.728 446.983 134.504 445.575 132.584C452.487 126.632 459.207 117.16 463.175 107.496ZM456.391 125.544L463.943 117.992L464.071 118.12V166.632H456.391V125.544Z" fill="#4899EE"/>
<circle cx="32" cy="5" r="5" fill="#4899EE"/>
<circle cx="93" cy="5" r="5" fill="#4899EE"/>
<circle cx="156" cy="5" r="5" fill="#4899EE"/>
<circle cx="219" cy="5" r="5" fill="#4899EE"/>
<circle cx="287" cy="5" r="5" fill="#4899EE"/>
</svg>
