<svg width="347" height="78" fill="none" xmlns="http://www.w3.org/2000/svg"><rect y="10" width="347" height="68" rx="34" fill="#4899EE"/><path d="M115.071 45.82v-2.304h-1.368v2.304h1.368zm0 4.194v-2.286h-1.368v2.286h1.368zm-7.561-2.286v2.286h1.296v-2.286h-1.296zm4.41 0h-1.331v2.286h1.331v-2.286zm-1.331-1.908h1.331v-2.304h-1.331v2.304zm-3.079-2.304v2.304h1.296v-2.304h-1.296zm-1.889 2.304v-1.296c-.36.342-.703.666-1.062.936-.396-.378-1.26-1.062-1.747-1.404 1.513-.99 2.935-2.628 3.727-4.302l2.088.612a9.582 9.582 0 01-.703 1.26h10.801v1.89h-1.692v2.304h2.34v1.908h-2.34v2.286h2.088v1.908h-15.642v-1.908h2.142v-2.286h-2.413V45.82h2.413zm-.559 10.764l-2.033-.828c.792-.756 1.602-2.142 2.016-3.456l2.07.504c-.396 1.368-1.17 2.844-2.053 3.78zm3.204-3.654l1.981-.234c.216 1.098.432 2.52.45 3.366l-2.088.306c0-.864-.145-2.34-.343-3.438zm3.565.036l2.016-.342c.432 1.062.882 2.466 1.044 3.348l-2.143.414c-.107-.864-.521-2.322-.917-3.42zm3.564-.09l2.052-.648c.81 1.098 1.818 2.61 2.268 3.6l-2.196.738c-.378-.954-1.332-2.538-2.124-3.69zm17.82-9.972l-1.098 1.602c-.558-.702-1.801-1.674-2.791-2.34l1.027-1.44c1.008.594 2.286 1.512 2.862 2.178zm-4.716 3.78l1.008-1.53c1.044.558 2.375 1.422 3.024 2.07l-1.08 1.71c-.595-.666-1.908-1.62-2.952-2.25zm-1.621-5.94l1.8.396c-.468 1.44-.989 3.15-1.439 4.194l-1.35-.378c.36-1.134.792-2.952.989-4.212zm-3.492 4.212l-1.601.432c-.036-1.116-.396-2.862-.81-4.158l1.494-.396c.468 1.296.827 3.006.917 4.122zm4.915 5.922l-1.315 1.656a24.225 24.225 0 00-1.295-2.34v6.318h-1.98v-6.354c-.576 1.674-1.297 3.348-2.071 4.428-.18-.648-.647-1.62-.971-2.214.9-1.098 1.817-3.024 2.376-4.662h-2.052v-1.998h2.718v-5.886h1.98v5.886h2.663v1.998h-2.663v.126c.521.522 2.232 2.538 2.61 3.042zm9.522.414l-2.161.396v4.86h-2.016v-4.5l-5.021.9-.324-1.998 5.345-.954v-10.26h2.016v9.9l1.837-.342.324 1.998zm1.691-8.64a27.139 27.139 0 001.764-.09c1.513-.126 4.482-.396 7.777-.666 1.854-.162 3.816-.27 5.094-.324l.018 2.304c-.973.018-2.521.018-3.474.252-2.179.576-3.817 2.898-3.817 5.04 0 2.97 2.772 4.032 5.832 4.194l-.846 2.466c-3.78-.252-7.343-2.268-7.343-6.174 0-2.592 1.458-4.644 2.682-5.562-1.693.18-5.364.576-7.452 1.026l-.235-2.466zm12.078 2.988a22.35 22.35 0 011.441 2.448l-1.368.612c-.45-.99-.828-1.692-1.404-2.502l1.331-.558zm2.017-.828c.45.63 1.134 1.692 1.512 2.394l-1.35.648c-.486-.972-.9-1.638-1.476-2.43l1.314-.612zm9.252-4.5v1.62h-5.131v-1.62h5.131zm.521 2.412v1.692h-6.515v-1.692h6.515zm-2.231 9.144h-1.764v2.07h1.764v-2.07zm1.781-1.692v5.436h-3.545v.702h-1.764v-6.138h5.309zm-5.256-.882v-1.602h5.292v1.602h-5.292zm0-2.43v-1.638h5.292v1.638h-5.292zm9.451 6.084l1.818-.324.144 1.764c-1.854.414-3.817.828-5.365 1.152l-.432-1.962c.541-.072 1.17-.18 1.854-.288v-4.41h-1.512v-1.836h4.897v1.836h-1.404v4.068zm6.353-7.848h-2.645c.126 5.148.54 8.766 1.224 8.82.234 0 .378-.828.449-2.178.324.468 1.171 1.062 1.495 1.278-.468 2.934-1.369 3.564-2.035 3.546-2.232-.054-2.898-4.302-3.114-11.466h-5.201v-1.944h5.147c-.017-1.08-.035-2.196-.035-3.384h2.051v.9l1.441-.738c.575.666 1.242 1.584 1.548 2.196l-1.548.864c-.271-.612-.883-1.566-1.441-2.268a57.89 57.89 0 000 2.43h2.664V45.1zm7.471-4.374a28.315 28.315 0 00-.235 2.394c-.071 1.944-.215 5.976-.215 8.208 0 1.818 1.079 2.412 2.483 2.412 2.97 0 4.861-1.71 6.157-3.672l1.638 1.98c-1.152 1.728-3.709 4.14-7.813 4.14-2.952 0-4.86-1.296-4.86-4.374 0-2.412.18-7.146.18-8.694 0-.846-.071-1.71-.234-2.43l2.899.036zm12.055 1.89c.72-.018 1.422-.054 1.782-.09 1.494-.126 4.464-.396 7.758-.684 1.854-.144 3.834-.27 5.094-.306l.018 2.304c-.972.018-2.52.018-3.474.234-2.178.576-3.798 2.916-3.798 5.058 0 2.952 2.772 4.032 5.814 4.194l-.846 2.466c-3.762-.252-7.326-2.286-7.326-6.174 0-2.592 1.458-4.644 2.664-5.562-1.692.18-5.364.576-7.452 1.026l-.234-2.466zm20.574-1.242c.486.054 1.098.09 1.494.09 1.026 0 2.934-.09 3.78-.162.45-.018.918-.126 1.224-.252l1.44 1.116c-.252.27-.468.504-.612.756-.468.774-1.152 2.34-1.8 3.87 1.404.216 2.736.648 3.906 1.152.018-.216.036-.414.054-.612.054-.702.054-1.422 0-1.962l2.358.27c-.072 1.206-.162 2.322-.342 3.33.756.432 1.404.846 1.926 1.206l-1.044 2.502c-.468-.432-.99-.846-1.548-1.26-.792 2.034-2.16 3.618-4.572 4.878l-1.908-1.566c2.718-1.17 3.978-2.88 4.572-4.518-1.278-.702-2.718-1.242-4.266-1.458-.648 1.53-1.404 3.33-2.034 4.32-.72 1.08-1.584 1.584-2.808 1.584-1.584 0-2.772-1.098-2.772-2.916 0-2.79 2.538-4.914 6.156-5.076.504-1.188 1.026-2.412 1.44-3.258-.72.036-2.268.09-3.096.144-.36.018-.99.072-1.458.144l-.09-2.322zm-.846 10.026c0 .594.342.9.756.9.36 0 .612-.18.936-.63.468-.666.954-1.8 1.458-2.934-2.016.306-3.15 1.53-3.15 2.664zm22.014 1.476c0 .666.738 1.116 1.818 1.116.378 0 .72-.018 1.044-.054-.108-1.17-.774-1.926-1.746-1.926-.684 0-1.116.414-1.116.864zm-3.06-11.592c.504.072 1.134.09 1.638.09.954 0 4.806-.072 5.832-.162.738-.072 1.152-.126 1.368-.198l1.17 1.602c-.414.27-.846.522-1.26.828-.972.684-2.862 2.268-3.996 3.168a7.032 7.032 0 011.71-.198c3.06 0 5.382 1.908 5.382 4.536 0 2.844-2.16 5.094-6.516 5.094-2.502 0-4.392-1.152-4.392-2.952 0-1.458 1.314-2.808 3.222-2.808 2.232 0 3.582 1.368 3.834 3.078.99-.522 1.494-1.35 1.494-2.448 0-1.62-1.62-2.718-3.744-2.718-2.754 0-4.554 1.458-6.48 3.654l-1.638-1.692c1.278-1.026 3.456-2.862 4.518-3.744 1.008-.828 2.88-2.34 3.762-3.114-.918.018-3.402.126-4.356.18-.486.036-1.062.09-1.476.144l-.072-2.34z" fill="#fff"/><path d="M112.5 12c0-6.351 5.149-11.5 11.5-11.5h99c6.351 0 11.5 5.149 11.5 11.5s-5.149 11.5-11.5 11.5h-99c-6.351 0-11.5-5.149-11.5-11.5z" fill="#fff" stroke="#4899EE"/><path d="M148.896 10.784h-1.884v.396h1.884v-.396zm-1.884 1.572h1.884v-.408h-1.884v.408zm3.168.816h-3.168v4.86h-1.296V9.956h4.464v3.216zm1.992-.816h1.944v-.408h-1.944v.408zm1.944-1.572h-1.944v.396h1.944v-.396zm-4.608 5.424h1.992v-.516h-1.992v.516zm1.992-1.788h-1.992v.504h1.992v-.504zm3.948-4.464v6.648c0 .66-.132 1.008-.564 1.2-.42.216-1.056.24-1.944.228-.024-.3-.168-.708-.3-1.044h-3.132v.42h-1.284v-3.78h4.536v3.168c.48.024.96.012 1.116.012.18 0 .24-.048.24-.216v-3.42h-3.228V9.956h4.56zm-2.892-2.28h3.384v1.08h-1.98c.216.276.408.564.516.792l-1.284.36c-.12-.324-.42-.768-.708-1.152h-.624c-.3.408-.636.756-.948 1.032-.3-.204-.912-.54-1.248-.672.144-.108.288-.228.432-.36H148.5c.168.276.312.564.396.78l-1.248.348c-.096-.312-.312-.756-.54-1.128h-.132c-.312.444-.648.84-.972 1.152-.276-.228-.84-.612-1.164-.768a6.376 6.376 0 001.764-2.4l1.332.36c-.084.192-.18.384-.276.576h2.664v.852c.492-.516.9-1.152 1.152-1.788l1.368.324c-.084.204-.18.408-.288.612zm6.984 5.124h2.196v-.816h-2.196v.816zm2.196-1.908v-.804h-2.196v.804h2.196zm3.744 0v-.804h-2.28v.804h2.28zm0 1.908v-.816h-2.28v.816h2.28zm2.436 1.956v1.32H163.2v1.956h-1.464v-1.956h-4.632v-1.32h4.632v-.78h-3.576V8.924h1.008a12.26 12.26 0 00-.996-1.476l1.224-.564c.432.504.972 1.2 1.212 1.68l-.744.36h2.124c-.18-.492-.54-1.14-.9-1.656l1.284-.48c.408.54.852 1.284 1.056 1.788l-.864.348h1.836c.408-.6.888-1.44 1.128-2.088l1.596.456c-.36.576-.756 1.152-1.116 1.632h.948v5.052H163.2v.78h4.716zm3.864 2.412c-1.404 0-2.352-.528-2.976-1.236l.828-1.116c.528.516 1.176.912 1.98.912.9 0 1.512-.444 1.512-1.248 0-.864-.516-1.416-2.448-1.416v-1.26c1.632 0 2.16-.564 2.16-1.356 0-.696-.432-1.104-1.188-1.104-.636 0-1.152.288-1.68.78l-.9-1.08c.768-.672 1.62-1.092 2.664-1.092 1.716 0 2.88.852 2.88 2.364 0 .96-.54 1.656-1.476 2.028v.06c.996.276 1.764 1.02 1.764 2.184 0 1.632-1.428 2.58-3.12 2.58zm7.318 0c-1.812 0-3.012-1.584-3.012-4.644 0-3.072 1.2-4.572 3.012-4.572s3 1.512 3 4.572-1.188 4.644-3 4.644zm0-1.38c.768 0 1.332-.768 1.332-3.264 0-2.484-.564-3.204-1.332-3.204-.768 0-1.344.72-1.344 3.204 0 2.496.576 3.264 1.344 3.264zm15.251-3.6l-1.32.456c-.132-.948-.588-2.4-1.128-3.468l1.224-.408c.576 1.068 1.056 2.472 1.224 3.42zm-2.748-5.34v6.156c0 .66-.12 1.044-.528 1.284-.396.228-.912.276-1.668.276-.048-.408-.252-1.02-.444-1.404.42.012.864.012 1.02.012.132 0 .192-.048.192-.18V6.848h1.428zM188.385 8.9l1.368.228c-.264 1.488-.744 2.976-1.356 3.9a8.445 8.445 0 00-1.224-.66c.624-.828 1.02-2.148 1.212-3.468zm-.6 4.548l-.816 1.116c-.144-.312-.432-.78-.72-1.212v4.68h-1.38v-4.308c-.384.924-.84 1.776-1.308 2.376-.132-.408-.432-.996-.66-1.356.672-.78 1.332-2.052 1.776-3.216h-1.524v-1.332h1.716V8.804c-.504.096-.996.18-1.464.24a4.946 4.946 0 00-.396-1.092c1.32-.228 2.796-.576 3.72-.996l.948 1.092c-.432.168-.912.324-1.428.456v1.692h1.284v1.332h-1.284v.348c.324.264 1.308 1.308 1.536 1.572zm4.584-.684l1.392.336c-.864 2.868-2.628 4.188-5.724 4.944-.132-.432-.468-.984-.768-1.332 2.76-.48 4.356-1.548 5.1-3.948zm3.9 1.212l-.252-4.428-.06-1.668h1.776l-.06 1.668-.252 4.428h-1.152zm.576 3.192c-.624 0-1.092-.504-1.092-1.152 0-.66.468-1.152 1.092-1.152.624 0 1.104.492 1.104 1.152 0 .648-.48 1.152-1.104 1.152zm3.865-3.192l-.252-4.428-.06-1.668h1.776l-.06 1.668-.252 4.428h-1.152zm.576 3.192c-.624 0-1.092-.504-1.092-1.152 0-.66.468-1.152 1.092-1.152.624 0 1.104.492 1.104 1.152 0 .648-.48 1.152-1.104 1.152z" fill="#4899EE"/><path d="M325 38l5.5 5.5L325 49" stroke="#fff" stroke-width="1.5" stroke-linecap="round"/></svg>