<svg width="361" height="202" fill="none" xmlns="http://www.w3.org/2000/svg"><path d="M345.711 105.104c-.168.728-.336 1.624-.476 2.324-.28 1.26-.616 2.996-.924 4.424-.924 3.948-3.164 11.928-6.104 16.66l-3.668-1.456c3.332-4.48 5.432-11.872 6.216-15.4.532-2.52.84-4.9.812-7l4.144.448zm9.66 2.8c1.708 2.436 4.06 7.644 4.928 10.304l-3.556 1.652c-.728-3.108-2.716-8.036-4.732-10.528l3.36-1.428zm-21 2.94c1.008.056 1.96.028 2.996 0 2.24-.056 7.56-.672 9.632-.672 2.968 0 5.068 1.316 5.068 5.376 0 3.304-.42 7.84-1.596 10.248-.924 1.96-2.492 2.576-4.592 2.576-1.092 0-2.408-.168-3.36-.392l-.616-3.696c1.092.308 2.688.588 3.416.588.952 0 1.68-.28 2.1-1.204.784-1.568 1.148-4.984 1.148-7.728 0-2.24-.952-2.576-2.716-2.576-1.652 0-6.496.616-8.036.812-.812.112-2.268.308-3.108.448l-.336-3.78zm20.496-6.804c.7 1.008 1.68 2.8 2.212 3.836l-2.24.952c-.588-1.148-1.456-2.8-2.212-3.892l2.24-.896zm3.304-1.288c.728 1.064 1.764 2.856 2.268 3.836l-2.24.952c-.56-1.176-1.484-2.8-2.24-3.864l2.212-.924zm-278.71 76.924v9.108c1.188-1.872 2.052-4.464 2.484-7.02-.252.108-.504.252-.756.36-.324-.72-1.044-1.728-1.728-2.448zm-5.544 8.892h2.052v-2.988h-2.052v2.988zm-4.86-2.988v.612c0 .756 0 1.548-.036 2.376h2.052v-2.988h-2.016zm3.78-11.484h-2.88c-.396.9-.792 1.8-1.224 2.628h3.096c.36-.792.684-1.728 1.008-2.628zm1.08 5.76v2.7h2.052v-2.7h-2.052zm-4.86 0v2.7h2.016v-2.7h-2.016zm27.828 11.52v3.672h-6.12v5.94h-4.068v-5.94h-6.66v-3.672h6.66v-3.24h-2.988c-.432 1.044-.9 1.98-1.44 2.772-.612-.432-1.908-1.116-2.808-1.512v7.596c0 1.692-.288 2.772-1.368 3.384-1.116.612-2.592.72-4.788.72-.108-1.044-.684-2.664-1.224-3.636 1.44.072 2.844.072 3.276.072.432 0 .612-.144.612-.612v-5.184h-7.164c-.36 3.384-1.188 6.876-2.844 9.468-.612-.576-2.16-1.548-2.952-1.908 2.412-3.708 2.592-9.072 2.592-13.104v-5.328c-.72-.72-2.052-1.8-2.808-2.304 2.448-2.628 4.356-6.84 5.328-11.052l3.78.792a29.896 29.896 0 01-.756 2.556h3.276l.54-.18 2.448 1.512a40.404 40.404 0 01-1.98 4.536h4.032v2.196c2.988-1.368 4.068-3.456 4.572-6.084h-4.032v-3.492h15.984s-.036.9-.072 1.368c-.18 5.724-.504 8.208-1.26 9.144-.612.756-1.296 1.044-2.196 1.188-.792.108-2.196.144-3.636.108-.072-1.116-.432-2.556-.972-3.456 1.116.108 2.088.144 2.592.144.432 0 .72-.072.972-.396.324-.396.504-1.62.648-4.608h-4.176c-.612 3.744-1.98 6.732-5.652 8.748l3.204.648c-.144.756-.288 1.548-.504 2.304h1.764v-3.24h4.068v3.24h5.4v3.6h-5.4v3.24h6.12zm13.14-20.16l-2.484 3.528c-1.296-1.26-4.104-2.916-6.372-3.888l2.34-3.168c2.196.828 5.076 2.34 6.516 3.528zm-1.98 9.576l-2.448 3.564c-1.368-1.224-4.212-2.808-6.48-3.78l2.268-3.204c2.232.792 5.22 2.196 6.66 3.42zm-1.584 5.688l3.276 2.664c-1.8 3.816-3.888 7.956-5.904 11.484l-3.744-2.664c1.8-2.736 4.356-7.272 6.372-11.484zm14.976-9.432v2.988c0 1.188-.036 2.34-.108 3.528h4.572v-6.516h-4.464zm11.34 10.548h-8.784c1.728 4.428 4.788 8.064 9.18 9.864-1.008.864-2.34 2.556-2.988 3.744-4.68-2.304-7.74-6.3-9.792-11.52-1.188 4.428-3.816 8.532-9.324 11.556-.756-.9-2.412-2.376-3.564-3.024 5.472-2.88 7.884-6.588 8.928-10.62h-7.02v-4.032h7.668a58.9 58.9 0 00.108-3.564v-2.952h-6.012v-4.032h6.012v-5.472h4.248v5.472h8.64v10.548h2.7v4.032zm10.584-15.336c-.252 1.296-.432 3.384-.432 4.392-.036 2.34 0 5.04.216 7.632.504 5.184 1.584 8.748 3.852 8.748 1.692 0 3.132-4.212 3.816-7.092l3.6 4.392c-2.376 6.264-4.644 8.46-7.524 8.46-3.96 0-7.38-3.564-8.388-13.212-.36-3.312-.396-7.524-.396-9.72 0-1.008-.072-2.556-.288-3.672l5.544.072zm18 .828c3.42 4.14 6.156 13.14 6.552 18.648l-4.716 1.836c-.576-5.796-2.484-14.544-6.408-19.008l4.572-1.476zm29.772 16.128c-.288 1.008-.504 2.196-.504 2.988 0 1.584 1.08 2.772 4.932 2.772 2.412 0 4.896-.288 7.488-.756l-.18 4.608c-2.016.252-4.464.504-7.344.504-6.048 0-9.324-2.088-9.324-5.724 0-1.656.36-3.384.648-4.824l4.284.432zm-4.068-19.944c-.288.972-.612 2.592-.756 3.384-.072.396-.18.864-.288 1.368a68.08 68.08 0 006.012-1.152v4.5c-2.16.504-4.608.9-7.02 1.188a86.3 86.3 0 01-1.08 4.608c-1.296 5.04-3.708 12.384-5.724 16.668l-5.004-1.692c2.16-3.6 4.896-11.16 6.228-16.2.252-.972.54-1.98.756-3.024-.828.036-1.62.072-2.376.072a71.98 71.98 0 01-4.356-.144l-.108-4.5c1.836.216 3.06.288 4.536.288 1.044 0 2.124-.036 3.24-.108.144-.792.252-1.476.324-2.052.144-1.332.216-2.808.108-3.636l5.508.432zm2.124 10.872c2.016-.18 4.608-.36 6.912-.36 2.052 0 4.212.108 6.336.324l-.108 4.32c-1.8-.216-3.996-.432-6.192-.432-2.448 0-4.68.108-6.948.36v-4.212zm30.168-10.692a56.61 56.61 0 00-.468 4.788c-.144 3.888-.432 11.952-.432 16.416 0 3.636 2.16 4.824 4.968 4.824 5.94 0 9.72-3.42 12.312-7.344l3.276 3.96c-2.304 3.456-7.416 8.28-15.624 8.28-5.904 0-9.72-2.592-9.72-8.748 0-4.824.36-14.292.36-17.388 0-1.692-.144-3.42-.468-4.86l5.796.072zm32.868 24.48c0 1.368 1.296 2.196 3.78 2.196 1.908 0 3.168-.54 3.168-2.628 0-.396 0-.9-.036-1.548-.972-.144-1.944-.252-2.952-.252-2.556 0-3.96 1.008-3.96 2.232zm11.268-25.056c-.108.72-.18 1.62-.216 2.556-.036.36-.036.9-.036 1.476a75.45 75.45 0 009.108-.972l-.036 4.14c-2.376.288-5.652.612-9.144.792v3.708c3.636-.18 6.696-.468 9.612-.864l-.036 4.248c-3.24.36-6.048.612-9.504.72.072 1.368.144 2.844.252 4.284 4.536 1.296 7.992 3.708 10.08 5.436l-2.592 4.032c-1.944-1.8-4.392-3.708-7.272-5.004.036.504.036.936.036 1.332 0 3.06-2.34 5.436-7.092 5.436-5.76 0-8.784-2.196-8.784-6.012 0-3.636 3.348-6.192 8.892-6.192.756 0 1.512.036 2.232.108-.072-1.116-.108-2.268-.144-3.348h-1.872c-2.088 0-6.192-.18-8.568-.468l-.036-4.248c2.34.432 6.768.684 8.676.684h1.728c0-1.188 0-2.484.036-3.708h-1.332c-2.268 0-6.444-.324-8.82-.648l-.108-4.104c2.592.432 6.696.792 8.892.792h1.404v-1.692c0-.684-.072-1.8-.216-2.484h4.86zm38.016.108c-.072.576-.216 2.52-.252 3.096 0 .288 0 .684-.036 1.116 3.636 0 8.568-.072 10.44-.036l-.036 4.248c-2.16-.108-5.508-.18-10.404-.18 0 1.836.036 3.816.036 5.4.864 1.368 1.296 3.06 1.296 4.932 0 4.68-2.736 10.656-11.52 13.104l-3.852-3.816c3.636-.756 6.804-1.944 8.784-4.104a7.697 7.697 0 01-1.62.18c-2.772 0-6.192-2.232-6.192-6.624 0-4.068 3.276-6.732 7.2-6.732.504 0 .972.036 1.44.108 0-.792 0-1.62-.036-2.412-5.436.072-11.052.288-15.48.54l-.108-4.356c4.104 0 10.656-.144 15.552-.216-.036-.468-.036-.828-.072-1.116-.108-1.476-.252-2.7-.36-3.132h5.22zm-9.036 17.244c0 1.656 1.332 2.7 2.772 2.7 1.512 0 2.844-1.152 2.34-4.32-.504-.828-1.368-1.26-2.34-1.26-1.404 0-2.772.972-2.772 2.88zm37.692 2.52l-.972-12.312-.18-5.364h5.976l-.18 5.364-.972 12.312h-3.672zm1.836 9.576c-1.836 0-3.168-1.296-3.168-3.168 0-1.908 1.368-3.204 3.168-3.204s3.168 1.296 3.168 3.204c0 1.872-1.368 3.168-3.168 3.168z" fill="#000"/><path fill-rule="evenodd" clip-rule="evenodd" d="M89 0C74.088 0 62 12.088 62 27s12.088 27 27 27h112.487l10.547 11.28L210.851 54H323c14.912 0 27-12.088 27-27S337.912 0 323 0H89z" fill="url(#paint0_linear_578_6489)"/><path d="M100.901 19.7c.64.06 1.22.08 1.9.08.86 0 4.6-.18 5.82-.32.66-.06 1.12-.16 1.4-.24l1.58 1.84c-.42.26-1.18.76-1.58 1.1-1.44 1.14-3.4 2.78-4.76 3.86 2.68-.28 6-.48 8.42-.48l.02 2.36c-1.92-.12-3.94-.12-5.16.04-1.82.26-3.36 1.56-3.36 3.2 0 1.58 1.24 2.2 3.04 2.4 1.12.12 2.3.1 3.04.04l-.52 2.64c-5.14.22-8.12-1.34-8.12-4.66 0-1.24.72-2.48 1.46-3.16-1.84.14-4.06.44-6.08.8l-.22-2.42c1.06-.12 2.46-.28 3.5-.4 1.78-1.18 4.4-3.44 5.64-4.56-.82.06-3.3.18-4.12.26-.48.04-1.16.12-1.78.18l-.12-2.56zm26.92 1.6c-.28 2.04-.68 4.38-1.38 6.74-1.2 4.04-2.92 6.52-5.1 6.52-2.24 0-4.08-2.46-4.08-5.84 0-4.6 4.02-8.56 9.2-8.56 4.94 0 8.08 3.44 8.08 7.82 0 4.2-2.58 7.18-7.62 7.96l-1.52-2.36c.78-.1 1.34-.2 1.88-.32 2.54-.62 4.54-2.44 4.54-5.38 0-3.14-1.96-5.38-5.42-5.38-4.24 0-6.56 3.46-6.56 5.98 0 2.02.8 3 1.56 3 .86 0 1.62-1.28 2.46-3.98.58-1.88 1.02-4.18 1.22-6.28l2.74.08zm12.38 8.78h11.36v1.42h-11.36v-1.42zm.02-2.5h12.72V34h-12.72v-1.62h10.34v-3.2h-10.34v-1.6zm4.42.88h2.3v5.6c0 .74.22.86 1.44.86h3.8c1 0 1.2-.32 1.32-2.02.5.34 1.4.64 2.02.76-.28 2.44-.96 3.08-3.14 3.08h-4.22c-2.76 0-3.52-.58-3.52-2.68v-5.6zm-5.62-.88h2.3v7.3h-2.3v-7.3zm-.48-8.84h14.84v1.76h-14.84v-1.76zm1.54 4.78h3.96v1.3h-3.96v-1.3zm-.38 2h4.34v1.3h-4.34v-1.3zm8.16 0h4.38v1.3h-4.38v-1.3zm0-2h3.92v1.3h-3.92v-1.3zm-3.1-4.08h2.34v7.6h-2.34v-7.6zm-7.58 1.8h17.66v4.1h-2.22v-2.5h-13.32v2.5h-2.12v-4.1zm28.26 7.48h9.22v8h-2.4v-5.84h-4.56v5.94h-2.26v-8.1zm7.82-10.5l1.68 2c-2.72.8-6.4 1.26-9.56 1.48-.08-.58-.4-1.48-.68-2.02 3.04-.26 6.44-.78 8.56-1.46zm-4.56 1.88h2.46v9.7h-2.46v-9.7zm-4.32 3.72h11.1v2.26h-11.1v-2.26zm2.58 9.86h6.44v2.16h-6.44v-2.16zm-9.4-9.38h6.04v1.8h-6.04v-1.8zm.12-5.66h5.92v1.82h-5.92v-1.82zm-.12 8.46h6.04v1.8h-6.04v-1.8zm-.98-5.68h7.66v1.88h-7.66v-1.88zm2.16 8.5h4.96V36h-4.96v-1.88h2.9v-2.3h-2.9v-1.9zm-1.24 0h2.02v6.88h-2.02v-6.88zm28.28-7.44h9.54v2.3h-9.54v-2.3zm-8.86-1.38h9.52v2.22h-9.52V21.1zm13.88-3.08h2.38v15.8c0 1.36-.26 2.04-1.02 2.46-.76.42-1.94.5-3.62.5-.08-.7-.42-1.84-.76-2.58 1.12.06 2.2.06 2.56.06.34-.02.46-.12.46-.46V18.02zm-5.24 9.28l1.94-.94c.94 1.32 1.9 3.06 2.22 4.26l-2.08 1.06c-.3-1.18-1.16-3.02-2.08-4.38zm-8.26-1.16l1.68-1.36c2.4 2.54 5.24 5.98 6.4 8.36l-1.92 1.64c-1.06-2.4-3.8-6-6.16-8.64zm3.12-8.1h2.3v4.42h-2.3v-4.42zm2.18 5.68l2.32.34c-1.02 5.8-3.08 10.02-6.94 12.6-.3-.48-1.14-1.46-1.62-1.88 3.62-2.12 5.44-5.94 6.24-11.06zm21.96 2.76h2.36v6.98c0 .74.12.82.68.82h1.62c.6 0 .7-.48.78-3.22.5.4 1.5.8 2.12.96-.22 3.44-.8 4.42-2.68 4.42h-2.22c-2.14 0-2.66-.74-2.66-2.98v-6.98zm-2.86 1.54l2.16.48c-.2 2.3-.58 4.94-1.48 6.56l-2.14-.94c.84-1.54 1.28-3.86 1.46-6.1zm3-3.76l1.6-1.58c1.6.76 3.78 1.98 4.88 2.92l-1.74 1.78c-.98-.92-3.1-2.28-4.74-3.12zm6.1 4.06l2.14-.84c1.2 2.08 2.38 4.76 2.7 6.6l-2.36.96c-.26-1.8-1.32-4.58-2.48-6.72zm-5.42-10.3h2.5v3.64h-2.5v-3.64zm-6.04 2.34h15.8v2.28h-15.8v-2.28zm-1.14 0h2.4v5.06c0 3.24-.3 8.2-2.12 11.34-.44-.4-1.5-1.1-2.08-1.34 1.68-2.88 1.8-7.1 1.8-10v-5.06zm19.18.94c.78-.02 1.58-.06 1.96-.1 1.66-.16 4.96-.44 8.62-.76 2.08-.16 4.26-.3 5.68-.36l.02 2.58c-1.08 0-2.8.02-3.88.26-2.4.64-4.22 3.24-4.22 5.62 0 3.28 3.08 4.48 6.46 4.64l-.94 2.74c-4.18-.26-8.14-2.52-8.14-6.86 0-2.86 1.62-5.14 2.96-6.16-1.86.2-5.96.64-8.26 1.14l-.26-2.74zm13.42 3.32c.48.7 1.2 1.92 1.58 2.72l-1.5.66c-.52-1.08-.94-1.88-1.56-2.76l1.48-.62zm2.22-.92c.52.7 1.28 1.88 1.7 2.66l-1.5.72c-.54-1.08-1-1.84-1.64-2.72l1.44-.66zm14.8-2.4c-.28 2.04-.68 4.38-1.38 6.74-1.2 4.04-2.92 6.52-5.1 6.52-2.24 0-4.08-2.46-4.08-5.84 0-4.6 4.02-8.56 9.2-8.56 4.94 0 8.08 3.44 8.08 7.82 0 4.2-2.58 7.18-7.62 7.96l-1.52-2.36c.78-.1 1.34-.2 1.88-.32 2.54-.62 4.54-2.44 4.54-5.38 0-3.14-1.96-5.38-5.42-5.38-4.24 0-6.56 3.46-6.56 5.98 0 2.02.8 3 1.56 3 .86 0 1.62-1.28 2.46-3.98.58-1.88 1.02-4.18 1.22-6.28l2.74.08zm16.9-2.54c-.08.38-.16 1.24-.18 1.74-.1 1.58-.16 3.74-.16 5.6 0 2.18.12 5.64.12 6.8 0 2.46-.88 3.14-2.2 3.14-1.94 0-4.7-1.68-4.7-3.8 0-1.94 2.5-3.98 5.28-4.96 1.78-.64 3.8-.96 5.32-.96 3.08 0 5.52 1.6 5.52 4.36 0 2.38-1.24 4.16-4.42 4.94-.92.2-1.82.26-2.64.34l-.9-2.6c.88 0 1.76 0 2.44-.14 1.62-.28 2.92-1.1 2.92-2.54 0-1.38-1.2-2.16-2.94-2.16-1.7 0-3.46.36-5.02.98-1.8.68-3.08 1.76-3.08 2.62 0 .64.94 1.18 1.46 1.18.36 0 .62-.16.62-.86 0-1.04-.1-3.82-.1-6.24 0-2.28.02-4.76.02-5.68 0-.4-.06-1.4-.12-1.76h2.76zm5.7 2.18c1.52.74 3.84 2.04 4.92 2.8l-1.22 2.04c-.96-.8-3.56-2.3-4.8-2.9l1.1-1.94zm-12.28 1.1c1.18.14 2.04.14 2.76.14 2.08 0 5.2-.38 7.26-.98l.06 2.48c-2.26.52-5.48.88-7.24.88-1.32 0-2.1-.02-2.78-.1l-.06-2.42zm25-2.32l2.02-.74c.8 1.48 1.6 3.44 1.86 4.7l-2.18.86c-.22-1.26-.96-3.28-1.7-4.82zm3.94-.84l2.1-.6c.62 1.56 1.22 3.56 1.38 4.84l-2.24.7c-.12-1.28-.66-3.36-1.24-4.94zm-1.12 8.94l1.2-1.58c1.84 1.26 4.22 3.1 5.3 4.42l-1.3 1.84c-1.04-1.36-3.34-3.34-5.2-4.68zm-2.4-2.18h2.3v10.98h-2.3V25.64zm8.92-.04h2.34v10.98h-2.34V25.6zm-7.82 7.74h8.92v2.16h-8.92v-2.16zm8.04-14.78l2.48.56c-.66 2.32-1.72 4.76-2.74 6.3-.54-.36-1.68-.84-2.32-1.08 1.06-1.4 2.02-3.68 2.58-5.78zm-2.98 6.58l2.1.46c-.88 3.06-2.42 5.92-4.2 7.74-.38-.36-1.26-1.04-1.74-1.34 1.74-1.58 3.1-4.14 3.84-6.86zm-10.52-7.12h2.32V36.8h-2.32V18.02zm-1.88 3.96l1.58.2c.02 1.92-.28 4.26-.98 5.74l-1.56-.7c.64-1.24.92-3.44.96-5.24zm3.8.04l1.48-.64c.64 1.16 1.3 2.66 1.48 3.64l-1.6.76c-.16-1-.76-2.56-1.36-3.76zm19.14-2.14c.54.04 1.24.08 1.66.08 1.16 0 3.28-.08 4.2-.16.5-.04 1.02-.16 1.38-.3l1.58 1.26c-.26.3-.5.56-.66.82-.68 1.14-1.76 3.72-2.66 5.8-.8 1.84-1.76 4.22-2.58 5.48-.8 1.22-1.74 1.76-3.12 1.76-1.74 0-3.06-1.2-3.06-3.24 0-3.2 3.06-5.66 7.34-5.66 4.66 0 8.74 2.48 10.84 3.92l-1.16 2.78c-2.46-2.18-5.98-4.46-10.1-4.46-2.92 0-4.6 1.58-4.6 3.04 0 .66.38 1 .86 1 .4 0 .66-.18 1.04-.68.66-.98 1.38-2.82 2.1-4.4.7-1.58 1.52-3.54 2.12-4.78-.8.02-2.54.08-3.44.14-.42.02-1.12.1-1.64.16l-.1-2.56zm13.16 4.72c-.28 5.68-1.4 9.36-6.18 11.84l-2.14-1.74c4.94-2.12 5.54-5.86 5.72-8.2.04-.78.06-1.58-.02-2.2l2.62.3z" fill="#fff"/><path d="M41.9 133.905c2.2 1.63 2.939 3.707 2.215 6.23-.735 2.59-3.285 3.465-5.95 3.48-6.09.04-10.805.25-15.98-1.59-8.396-2.993-14.31-8.445-17.74-16.355C-7.035 99.185 22.8 73.61 47.27 88.985c7.34 4.613 11.852 11.41 13.535 20.39a.4.4 0 01-.07.31.41.41 0 01-.275.165l-9.71 1.4a.281.281 0 01-.31-.22C47.725 98.42 34.7 90.86 22.92 97.045c-15.82 8.305-12.86 31.135 4.325 35.46 3.765.945 8.62.41 12.645.665a3.694 3.694 0 012.01.735zm255.748-44.15h-8.56c-.124 0-.225.1-.225.225v43.3c0 .124.101.225.225.225h8.56a.225.225 0 00.225-.225v-43.3c0-.124-.1-.225-.225-.225zm15.547-.005h-8.4a.295.295 0 00-.295.295v43.16c0 .163.132.295.295.295h8.4a.295.295 0 00.295-.295v-43.16a.295.295 0 00-.295-.295zm-103.867 11.095a5.375 5.375 0 100-10.75 5.375 5.375 0 000 10.75zm-20.374 5.175c.197.19.295.148.295-.125v-14.08c0-.084.033-.164.091-.223a.307.307 0 01.219-.092h8.375a.315.315 0 01.315.315v41.435a.25.25 0 01-.25.25h-8.5a.25.25 0 01-.25-.25v-1.955c.003-.29-.105-.34-.325-.15-4.42 3.785-10.195 4.21-15.235 1.415-10.18-5.645-10.245-21.345-.625-27.595 4.9-3.18 11.535-3.2 15.89 1.055zm-6.746 19.869a7.089 7.089 0 002.751-.61 7.191 7.191 0 002.312-1.639 7.38 7.38 0 001.522-2.419 7.518 7.518 0 00-.099-5.644 7.374 7.374 0 00-1.605-2.365 7.227 7.227 0 00-2.368-1.558 7.096 7.096 0 00-2.771-.513 7.089 7.089 0 00-2.751.61 7.191 7.191 0 00-2.312 1.639 7.38 7.38 0 00-1.522 2.419 7.518 7.518 0 00.098 5.644 7.392 7.392 0 001.606 2.365 7.227 7.227 0 002.368 1.558 7.096 7.096 0 002.771.513zM90.635 105.83c0 .193.068.222.205.085 4.27-4.315 11.715-4.505 15.63.445a.205.205 0 00.069.055.226.226 0 00.086.02.219.219 0 00.16-.07c2.68-3.11 6.525-4.14 10.4-3.535 7.005 1.095 9.585 6.805 9.575 13.295-.007 5.66-.01 11.333-.01 17.02a.354.354 0 01-.355.355h-8.015a.74.74 0 01-.694-.477.752.752 0 01-.051-.293c.157-5.457.175-10.857.055-16.2-.075-3.52-1.425-6.34-5.46-5.425-3.705.84-3.525 4.79-3.585 8.075-.085 4.665.195 9.31.035 13.99a.308.308 0 01-.091.208.308.308 0 01-.209.087l-8.41.14a.215.215 0 01-.152-.062.205.205 0 01-.063-.148c-.007-5.367-.007-10.748 0-16.145 0-1.125-.08-3.015-.63-4.12-1.625-3.25-6.795-2.7-8.02.665-.25.683-.368 1.918-.355 3.705a477.24 477.24 0 01-.14 15.735.246.246 0 01-.24.235l-8.395.105a.218.218 0 01-.208-.138.227.227 0 01-.017-.087v-29.6a.251.251 0 01.25-.25h8.31a.31.31 0 01.31.31l.015 2.02zm50.472 16.63c2.155 4.98 9.02 4.675 12.635 1.795a.417.417 0 01.47-.03l6.615 3.855a.256.256 0 01.074.069.242.242 0 01.035.195.24.24 0 01-.044.091c-3.6 4.695-9.095 6.34-14.815 5.825-11.135-1.005-17.815-11.735-13.385-22.22 3.81-9.03 15.62-12.255 23.625-6.51 5.1 3.665 6.995 10.26 5.955 16.365a.27.27 0 01-.26.22l-20.7.03a.222.222 0 00-.107.028.214.214 0 00-.081.074.23.23 0 00-.017.213zm12.4-7.335c-1.985-6.115-10.34-5.845-12.745.01a.175.175 0 00.075.219.16.16 0 00.08.021h12.405a.198.198 0 00.192-.162.202.202 0 00-.007-.088zm65.533 4.965c-1.71-16.94 20.15-23.76 29.205-10.04.024.036.04.077.047.119a.32.32 0 01-.152.331l-7.325 4.23a.352.352 0 01-.48-.13c-1.985-3.47-7.13-3.97-10-1.505-7.29 6.265 2.625 18.105 10.225 9.31a.258.258 0 01.325-.055l7.2 4.1a.328.328 0 01.104.092.356.356 0 01.066.263.355.355 0 01-.05.13c-7.95 12.77-27.64 8.24-29.165-6.845z" fill="#4999EB"/><path d="M273.045 131.055c-4.57 3.98-10.66 4.375-15.77 1.24-9.695-5.94-9.695-21.58-.12-27.51 4.89-3.03 11.5-2.865 15.795 1.18.2.19.3.147.3-.13v-1.65a.684.684 0 01.685-.685H282a.252.252 0 01.25.25v29.495a.238.238 0 01-.072.17.247.247 0 01-.173.07l-8.415.045a.343.343 0 01-.345-.345l.01-2.035c0-.183-.07-.215-.21-.095zm-6.925-5.16a7.14 7.14 0 005.095-2.178 7.463 7.463 0 002.095-5.222 7.462 7.462 0 00-2.132-5.208 7.137 7.137 0 00-5.109-2.142 7.135 7.135 0 00-5.094 2.178 7.454 7.454 0 00-2.095 5.222 7.457 7.457 0 002.131 5.208 7.137 7.137 0 005.109 2.142zm-52.533-22.402l-8.62.015a.134.134 0 00-.135.135l.052 29.73c0 .074.061.135.135.135l8.62-.016c.075 0 .135-.06.135-.135l-.052-29.73a.134.134 0 00-.135-.134zm-174.25 1.657l-.436.059a3.564 3.564 0 00-3.062 4.005l.7 5.253a3.564 3.564 0 004.006 3.062l.436-.058a3.564 3.564 0 003.062-4.005l-.7-5.253a3.566 3.566 0 00-4.006-3.063zm-16.478 2.808l-.436.06a3.57 3.57 0 00-3.046 4.027l.706 5.082a3.57 3.57 0 004.026 3.045l.436-.06a3.57 3.57 0 003.045-4.027l-.704-5.082a3.57 3.57 0 00-4.027-3.045zM57.88 133.02l-.255 10.71a49.04 49.04 0 01-4.955.01c-6.75-.33-6.74-9.79-.675-10.74 1.343-.207 3.305-.2 5.885.02z" fill="#4999EB"/><path d="M57.88 133.02c2.135-.02 4.765-.35 6.56.53 3.805 1.865 4.015 7.33.315 9.515-1.845 1.09-4.88.695-7.13.665l.255-10.71z" fill="#E15C7A"/><path d="M41.99 133.559a3.695 3.695 0 00-2.01-.735c-4.025-.255-8.88.28-12.645-.665-17.185-4.325-20.145-27.155-4.325-35.46 11.78-6.184 24.805 1.376 27.52 13.985a.281.281 0 00.31.22l9.71-1.4a.408.408 0 00.345-.475c-1.683-8.98-6.195-15.776-13.535-20.39-24.47-15.374-54.305 10.2-42.825 36.685 3.43 7.91 9.344 13.362 17.74 16.355 5.175 1.84 9.89 1.63 15.98 1.59 2.665-.015 5.215-.89 5.95-3.48.724-2.523-.015-4.6-2.215-6.23zm255.977-43.925a.226.226 0 00-.225-.225h-8.56a.224.224 0 00-.225.225v43.3a.224.224 0 00.225.225h8.56a.224.224 0 00.225-.225v-43.3zm15.613.066a.294.294 0 00-.295-.295h-8.4a.296.296 0 00-.295.295v43.159a.295.295 0 00.295.295h8.4a.294.294 0 00.295-.295v-43.16zm-98.783 5.424a5.375 5.375 0 10-10.75 0 5.375 5.375 0 0010.75 0zm-25.753 10.55c-4.355-4.255-10.99-4.235-15.89-1.055-9.62 6.25-9.555 21.95.625 27.595 5.04 2.795 10.815 2.37 15.235-1.415.22-.19.328-.14.325.15v1.955a.249.249 0 00.25.25h8.5a.25.25 0 00.25-.25V91.469a.315.315 0 00-.315-.315h-8.375a.314.314 0 00-.31.315v14.08c0 .274-.099.315-.295.125zm-98.319-.19l-.015-2.02a.31.31 0 00-.31-.31h-8.31a.25.25 0 00-.25.25v29.6a.23.23 0 00.14.21.21.21 0 00.085.015l8.395-.105a.246.246 0 00.166-.069.246.246 0 00.074-.166c.133-5.246.18-10.491.14-15.735-.014-1.786.105-3.021.355-3.705 1.225-3.365 6.395-3.915 8.02-.665.55 1.105.63 2.995.63 4.12-.007 5.397-.007 10.779 0 16.145 0 .056.023.11.063.149a.22.22 0 00.152.061l8.41-.14a.304.304 0 00.3-.295c.16-4.68-.12-9.325-.035-13.99.06-3.285-.12-7.235 3.585-8.075 4.035-.915 5.385 1.905 5.46 5.425.12 5.344.102 10.744-.055 16.2a.738.738 0 00.211.544.735.735 0 00.534.226h8.015a.354.354 0 00.355-.355c0-5.686.003-11.36.01-17.02.01-6.49-2.57-12.2-9.575-13.295-3.875-.605-7.72.425-10.4 3.535a.21.21 0 01-.161.07.196.196 0 01-.154-.075c-3.915-4.95-11.36-4.76-15.63-.445-.137.137-.205.109-.205-.085zm50.676 16.315l20.7-.03a.26.26 0 00.169-.062.27.27 0 00.091-.158c1.04-6.105-.855-12.7-5.955-16.365-8.005-5.745-19.815-2.52-23.625 6.51-4.43 10.485 2.25 21.215 13.385 22.22 5.72.515 11.215-1.13 14.815-5.825a.216.216 0 00.045-.091.245.245 0 00-.036-.194.236.236 0 00-.074-.07l-6.615-3.855a.424.424 0 00-.47.03c-3.615 2.88-10.48 3.185-12.635-1.795a.222.222 0 01.018-.212.23.23 0 01.187-.103zm106.934-12.095c-9.055-13.72-30.915-6.9-29.205 10.04 1.525 15.085 21.215 19.615 29.165 6.845a.35.35 0 00.05-.129.345.345 0 00-.17-.356l-7.2-4.1a.264.264 0 00-.325.055c-7.6 8.795-17.515-3.045-10.225-9.31 2.87-2.465 8.015-1.965 10 1.505a.334.334 0 00.09.104.33.33 0 00.123.061.334.334 0 00.267-.035l7.325-4.23a.325.325 0 00.149-.202.325.325 0 00-.044-.248z" stroke="#A4CCF5" stroke-width="2"/><path d="M273.344 130.804l-.01 2.035a.346.346 0 00.345.345l8.415-.045a.25.25 0 00.174-.07.237.237 0 00.071-.17v-29.495a.25.25 0 00-.25-.25h-8.065a.689.689 0 00-.685.685v1.65c0 .277-.1.32-.3.13-4.295-4.045-10.905-4.21-15.795-1.18-9.575 5.93-9.575 21.57.12 27.51 5.11 3.135 11.2 2.74 15.77-1.24.14-.12.21-.088.21.095zm-59.528-27.522a.131.131 0 00-.011-.052.135.135 0 00-.124-.083l-8.62.015a.15.15 0 00-.052.01.135.135 0 00-.083.125l.052 29.73a.13.13 0 00.01.052.16.16 0 00.029.044.134.134 0 00.096.039l8.62-.015a.128.128 0 00.095-.04.11.11 0 00.029-.044.13.13 0 00.011-.051l-.052-29.73zm-170.383 4.585a3.564 3.564 0 00-4.005-3.062l-.436.058a3.562 3.562 0 00-3.062 4.005l.7 5.254a3.563 3.563 0 004.006 3.062l.436-.058a3.562 3.562 0 003.062-4.005l-.7-5.254zm-16.457 2.791a3.57 3.57 0 00-4.027-3.046l-.436.061a3.566 3.566 0 00-2.964 2.636 3.57 3.57 0 00-.081 1.391l.705 5.081a3.57 3.57 0 004.026 3.045l.436-.06a3.567 3.567 0 002.964-2.636c.119-.454.146-.926.082-1.391l-.705-5.081z" stroke="#A4CCF5" stroke-width="2"/><path d="M57.715 143.385c2.25.03 5.285.425 7.13-.665 3.7-2.185 3.49-7.65-.315-9.515-1.795-.88-4.425-.55-6.56-.53" stroke="#F0ADBD" stroke-width="2"/><path d="M57.97 132.674c-2.58-.22-4.542-.226-5.885-.02-6.065.95-6.075 10.41.675 10.74 1.65.08 3.301.077 4.955-.01" stroke="#A4CCF5" stroke-width="2"/><path d="M57.97 132.674l-.255 10.71" stroke="#957BB3" stroke-width="2"/><path d="M182.301 125.543a7.07 7.07 0 002.751-.609 7.222 7.222 0 002.312-1.639 7.396 7.396 0 001.522-2.42 7.513 7.513 0 00-.098-5.644 7.403 7.403 0 00-1.606-2.365 7.198 7.198 0 00-2.368-1.557 7.06 7.06 0 00-5.521.096 7.215 7.215 0 00-2.313 1.639 7.396 7.396 0 00-1.522 2.42 7.513 7.513 0 00.099 5.644 7.384 7.384 0 001.605 2.365 7.209 7.209 0 002.368 1.557c.882.355 1.823.53 2.771.513zm-28.707-10.764c-1.985-6.115-10.34-5.845-12.745.01a.174.174 0 00-.012.084.172.172 0 00.087.136c.025.013.052.02.08.02h12.405a.195.195 0 00.192-.161.192.192 0 00-.007-.089zm112.616 10.77a7.135 7.135 0 005.094-2.178 7.457 7.457 0 002.095-5.222 7.458 7.458 0 00-2.132-5.207 7.136 7.136 0 00-5.109-2.143 7.14 7.14 0 00-5.094 2.178 7.461 7.461 0 00-2.095 5.223 7.457 7.457 0 002.131 5.207 7.137 7.137 0 005.11 2.142z" stroke="#A4CCF5" stroke-width="2"/><defs><linearGradient id="paint0_linear_578_6489" x1="350" y1="27" x2="62" y2="27" gradientUnits="userSpaceOnUse"><stop stop-color="#117DEF"/><stop offset="1" stop-color="#62ACFA"/></linearGradient></defs></svg>